<svg width="32" height="32" xmlns="http://www.w3.org/2000/svg" viewBox="0 0 1055.78 1014.78"><defs><style>.cls-1{fill:#eeb911;}.cls-2{fill:#f9e9b4;}.cls-3{fill:#f7e096;}.cls-4{fill:#f2c842;}.cls-5{fill:#fefefe;}</style></defs><g id="Layer_2" data-name="Layer 2"><g id="Layer_1-2" data-name="Layer 1"><path class="cls-1" d="M510.89,0h29c2,1.06,4.19.24,6.28.5h7.22c32.49-.36,64.2,5.26,95.76,12.32a526.81,526.81,0,0,1,84.76,26.45A538.2,538.2,0,0,1,854.19,107.8a514.12,514.12,0,0,1,138.24,157c23.86,41.83,40.66,86.37,51.76,133.13,4.07,17.18,7.55,34.52,9.3,52.06a387,387,0,0,1,1.79,46.83v18c1.65,55.72-9.8,109.17-28.33,161.33-16.51,46.48-40.24,89.15-69.71,128.61-11,14.8-23.22,28.68-35.73,42.3-27.16,29.6-57.66,55.24-90.74,77.83-34.68,23.68-72,42.3-111.29,57.05a556.72,556.72,0,0,1-114.86,29.73c-15.31,2.25-30.82,2.38-46.28,2.61H550.1c-2.73.25-5.53-.55-8.21.5h-30c-2.35-1.06-4.83-.26-7.23-.5h-8.13c-38.76.39-76.42-6.9-113.6-16.92a534.3,534.3,0,0,1-199.39-103,574.32,574.32,0,0,1-53.46-50.92,469.77,469.77,0,0,1-62.4-83.9A515.82,515.82,0,0,1,20.89,654.37C12.28,627.2,5.74,599.5,2.32,571.19A317.65,317.65,0,0,1,.5,533.38v-8.11C.27,523.15,1,521,0,518.89v-31c1.06-2.31.25-4.75.5-7.12v-6.39c.17-22.73,3.86-45,8.53-67.17a484.31,484.31,0,0,1,25.15-83.07A513.36,513.36,0,0,1,101.12,207c19-25.05,40.49-47.79,63.43-69.07A496.8,496.8,0,0,1,261,68.22,541.57,541.57,0,0,1,422.17,9.32C447,4.5,471.91.31,497.33.5h7.23C506.66.24,508.85,1.05,510.89,0Z"/><path class="cls-2" d="M1055.78,515.89l-.43.07h-.42q0-10.07,0-20.14a1,1,0,0,1,.8.08Z"/><path class="cls-3" d="M495.9,1014.78a2.26,2.26,0,0,0-.07-.9l8.88.06.83.26-.65.58Z"/><path class="cls-3" d="M559,1013.88a2.1,2.1,0,0,0-.07.9h-9l-.64-.58.83-.26Z"/><path class="cls-4" d="M550.07,1013.94c-.05.28-.12.56-.19.84h-8C544.46,1013.05,547.31,1014,550.07,1013.94Z"/><path class="cls-4" d="M504.89,1014.78q-.11-.42-.18-.84c2.43,0,5-.79,7.18.84Z"/><path class="cls-5" d="M456.61,613.14c0-20.32-.06-40.64.06-61,0-3.2-.89-5-3.88-6.58-36.43-19.58-72-40.66-108.65-59.92-2.82-1.48-4.31-3.18-4.29-6.82.1-22.81-.09-45.63-.25-68.45,0-2.66.39-4.59,3.08-6.11,19.67-11.12,39-22.84,59-33.34,4.54-2.38,8.2-2.06,12.57.13,24.69,12.34,48.42,26.41,72.43,40,11,6.22,22.19,12.05,33.19,18.24,3.26,1.83,5.94,1.69,9.31.11,27.75-13,53.71-29.18,80.42-44,9.3-5.16,18.78-10,28.09-15.13a8.46,8.46,0,0,1,8-.32c14.35,5.91,27.51,14,40.83,21.85,7,4.13,14.11,8.13,21.36,11.84,2.13,1.09,2.93,2.13,2.92,4.44q-.09,35.71,0,71.43c0,2.7-.94,4.16-3.28,5.47-36.44,20.28-72.79,40.69-109.24,60.94-3.27,1.82-4.65,3.72-4.63,7.66.18,40.32.06,80.64.2,120.95,0,3.68-1.09,5.59-4.39,7.26-19,9.6-36.71,21.48-55.8,30.92-5.73,2.83-10.37,3.43-16.45.2-19.53-10.36-38.38-21.88-57.59-32.76-2.93-1.66-3.11-3.79-3.11-6.56Q456.66,643.38,456.61,613.14Z"/><path class="cls-5" d="M223.19,575.37q0-49.46,0-98.93c0-5.7,0-5.68,5.15-2.8,20,11.18,40,22.42,60.08,33.44,2.76,1.52,3.49,3.22,3.59,6.22,1.39,41.12.25,82.25.77,123.37,0,3.24,1.06,4.94,4,6.55,36.78,20.32,73.45,40.84,110.21,61.21a4.6,4.6,0,0,1,2.72,4.7c-.25,23.14.35,46.29-.43,69.43-.18,5.41-2.65,2.57-4.5,1.55-30.54-16.83-61.12-33.6-91.57-50.61-28.85-16.11-57.52-32.56-86.38-48.66-3.17-1.77-3.88-3.73-3.87-7,.1-32.81.06-65.62.06-98.44Z"/><path class="cls-5" d="M708.77,276.49c-13,7.36-25.73,14.67-38.56,21.88-6.23,3.51-12.77,6.49-18.78,10.33s-11.86,3.32-17.79,0q-16.53-9.24-33.07-18.45C576.78,277,553,263.8,529.21,250.44c-2.91-1.64-5.1-1.72-8.07,0-36.59,20.7-73.28,41.2-109.85,61.92-2.53,1.43-4.13.94-6.27-.26-20.1-11.35-40.19-22.75-60.43-33.86-3.91-2.15-2.48-3.19-.1-5C354.57,265.45,366,260,377,253.84c47.82-26.82,95.92-53.14,143.42-80.53,2.42-1.4,4.48-2.53,7.67-.74Q611.21,219,694.44,265.2A51.23,51.23,0,0,1,708.77,276.49Z"/><path class="cls-5" d="M827.58,471.66v39.22q0,68.94,0,137.88c0,8.48-.62,17-.3,25.44.17,4.38-1.56,6.53-5.09,8.48q-42.52,23.45-84.95,47.13c-30,16.79-59.9,33.75-89.85,50.63-1.29.73-2.65,1.34-4.23,2.14-1.74-4.25-1.12-8.6-1.14-12.77-.11-20.31.09-40.63,0-60.94,0-2.82.74-4.46,3.39-5.84,34.35-17.82,67.46-37.94,101.8-55.75,9.62-5,12.12-10.65,11.93-20.94-.71-37.3-.29-74.61-.38-111.91,0-2.88.42-4.91,3.23-6.5,21.11-11.93,42.13-24,63.18-36A10.35,10.35,0,0,1,827.58,471.66Z"/><path class="cls-5" d="M358.54,341.63c-20.51,11.48-40.76,22.9-61.13,34.12-3.26,1.79-4.79,3.7-4.75,7.61.19,17.83.09,35.65,0,53.48,0,4.49-.51,9-.38,13.46.11,4-1.18,4.06-4.33,2.55-15-7.22-29.36-15.57-43.81-23.78-5.92-3.36-11.86-6.69-17.91-9.82a5.07,5.07,0,0,1-3.09-5.1q0-35.23-.17-70.47c0-1.78.26-3.2,2-4.17,21.35-11.86,41.83-25.26,64-35.57a5.33,5.33,0,0,1,5.14-.08c21.93,10.82,43.35,22.52,63.52,36.41C357.94,340.44,358,340.82,358.54,341.63Z"/><path class="cls-5" d="M691.38,341.28c11.35-7.79,22.55-14.25,33.81-20.59,9.12-5.14,18.53-9.78,27.46-15.21,4.66-2.85,8.55-2.56,13-.08,18.26,10.23,36.4,20.68,55,30.36,5.84,3.05,7.27,6.57,7.16,12.75-.4,21.64-.23,43.3-.08,64.95,0,3.12-1.06,4.69-3.71,6.11-18.86,10.15-37.1,21.43-56.2,31.17-8.81,4.5-8.79,4.77-8.83-5-.09-21-.14-42,0-62.95,0-3.31-1.06-5-3.95-6.53C734,364.87,713.07,353.25,691.38,341.28Z"/><path class="cls-5" d="M593.82,772.83c0,11.49-.05,23,0,34.47,0,2.36-.47,3.88-2.79,5.17q-24.41,13.5-48.63,27.36c-16,9.11-16.72,9.35-32.87.39-16.85-9.34-33.44-19.14-50.19-28.65a4.27,4.27,0,0,1-2.52-4.28c.08-23.31.13-46.63,0-69.94,0-3.73,1-3.82,3.88-2.18C480.83,746.59,501,757.84,521,769.34c2.77,1.59,4.79,1.84,7.66.32C549,758.79,569,747.18,589,735.67c4.5-2.59,4.59-2.59,4.62,2.7.06,11.48,0,23,0,34.46Z"/><path class="cls-5" d="M409.06,651.16c-18.75-8.35-35.41-18.32-52.23-28q-7.32-4.23-14.65-8.48c-1.39-.81-2.71-1.33-2.67-3.62.41-24.47-.35-48.94.57-73.41,0-.14.14-.27.46-.84,7.32,4.06,14.62,8.17,22,12.19,13.56,7.4,27.21,14.63,40.32,22.85a10,10,0,0,1,5.21,8.22C410.75,603.5,407.93,627,409.06,651.16Z"/><path class="cls-5" d="M591.86,341.6l-37.2,21.53a242,242,0,0,1-26.23,13.22,7.78,7.78,0,0,1-7-.15c-16.23-7.35-31.16-17-46.68-25.65-5.5-3.06-11-6-17.22-9.39,6.94-4.35,13.46-8.59,20.12-12.57,14-8.36,28.31-16.06,42.71-23.66a8.59,8.59,0,0,1,8.72-.18c21,10.11,41.66,20.7,60.3,34.84C590.18,340.18,590.91,340.82,591.86,341.6Z"/><path class="cls-5" d="M710.65,536.65c.61,25.64.56,50.56.16,75.48a3.18,3.18,0,0,1-1.87,3.11q-31.8,17.57-63.54,35.26a21.91,21.91,0,0,1-2.83,1c0-9.36,0-18.24,0-27.12.08-15.46.24-30.93.32-46.4,0-2.07.11-3.75,2.31-5C666.84,561.05,688.41,549,710.65,536.65Z"/></g></g></svg>