<svg width="360" height="300" viewBox="0 0 360 300" fill="none" xmlns="http://www.w3.org/2000/svg">
    <g opacity="0.5">
        <path d="M371.306 176.03L366.695 185.256L337.007 168.568L341.618 159.336L371.306 176.03Z" fill="#FF6F48" />
        <path d="M310.206 67.8678L319.446 64.2598L331.034 97.7157L321.794 101.318L310.206 67.8678Z" fill="#3BBEDB" />
        <path d="M233.263 136.507L235.93 146.563L203.581 156.207L200.92 146.151L233.263 136.507Z" fill="#FFD748" />
        <path d="M314.173 6.88123L310.604 -2.85497L341.917 -15.7812L345.486 -6.04505L314.173 6.88123Z" fill="#FF6F48" />
        <path d="M365.701 40.9889L360.777 50.0367L331.678 32.2177L336.601 23.1699L365.701 40.9889Z" fill="#8B5CF6" />
        <path d="M288.936 70.7203L281.971 78.1085L258.212 52.9074L265.177 45.5254L288.936 70.7203Z" fill="#FFD748" />
        <path d="M255.68 124.275L246.415 120.722L257.844 87.2109L267.102 90.7637L255.68 124.275Z" fill="#FF6F48" />
        <path d="M213.999 36.3547L223.588 33.9883L231.198 68.7042L221.608 71.0645L213.999 36.3547Z" fill="#8B5CF6" />
        <path d="M288.066 113.132L296.95 117.637L282.462 149.79L273.571 145.285L288.066 113.132Z" fill="#FF8719" />
        <path d="M333.861 123.747L337.951 133.25L307.38 148.045L303.29 138.542L333.861 123.747Z" fill="#8B5CF6" />
        <path d="M231.105 101.183L228.315 111.202L196.095 101.103L198.884 91.084L231.105 101.183Z" fill="#10B981" />
        <path d="M271.204 25.5799L273.056 15.3213L306.055 22.0334L304.203 32.292L271.204 25.5799Z" fill="#10B981" />
        <path d="M246.942 -12.751L256.734 -11.6261L253.11 23.8089L243.318 22.678L246.942 -12.751Z" fill="#3BBEDB" />
        <path d="M203.563 26.6237L195.034 31.8483L178.234 0.980175L186.763 -4.23828L203.563 26.6237Z" fill="#8B5CF6" />
        <path d="M314.173 274.51L310.604 264.774L341.917 251.848L345.486 261.584L314.173 274.51Z" fill="#FF6F48" />
        <path d="M336.645 213.038L327.055 215.404L319.446 180.695L329.036 178.328L336.645 213.038Z" fill="#FFD748" />
        <path d="M286.521 247.495L277.471 243.371L290.745 210.628L299.789 214.758L286.521 247.495Z" fill="#8B5CF6" />
        <path d="M246.942 254.877L256.734 256.008L253.11 291.437L243.318 290.306L246.942 254.877Z" fill="#3BBEDB" />
        <path d="M170.258 182.305L173.606 172.482L205.201 184.603L201.853 194.426L170.258 182.305Z" fill="#3BBEDB" />
        <path d="M118.986 176.03L114.376 185.256L84.6875 168.568L89.2983 159.336L118.986 176.03Z" fill="#FF6F48" />
        <path d="M133.414 140.914L142.899 138.087L151.992 172.391L142.507 175.218L133.414 140.914Z" fill="#FFD748" />
        <path d="M57.8809 67.8678L67.127 64.2598L78.7153 97.7157L69.4692 101.318L57.8809 67.8678Z" fill="#3BBEDB" />
        <path d="M141.741 -4.7666L151.189 -1.80395L141.667 32.3711L132.219 29.4146L141.741 -4.7666Z" fill="#FFD748" />
        <path d="M61.8546 6.88123L58.2861 -2.85497L89.593 -15.7812L93.1676 -6.04505L61.8546 6.88123Z" fill="#FF6F48" />
        <path d="M113.377 40.9889L108.453 50.0367L79.3535 32.2177L84.2831 23.1699L113.377 40.9889Z" fill="#8B5CF6" />
        <path d="M36.6108 70.7203L29.6517 78.1085L5.89258 52.9074L12.8578 45.5254L36.6108 70.7203Z" fill="#FFD748" />
        <path d="M3.35507 124.275L-5.90332 120.722L5.52558 87.2109L14.784 90.7637L3.35507 124.275Z" fill="#FF6F48" />
        <path d="M194.992 54.751L191.11 64.352L160.227 50.307L164.114 40.7061L194.992 54.751Z" fill="#FF6F48" />
        <path d="M35.7404 113.132L44.6309 117.637L30.1363 149.79L21.252 145.285L35.7404 113.132Z" fill="#FF8719" />
        <path d="M81.5418 123.747L85.6253 133.25L55.0603 148.045L50.9707 138.542L81.5418 123.747Z" fill="#8B5CF6" />
        <path d="M18.8857 25.5799L20.7374 15.3213L53.7365 22.0334L51.8849 32.292L18.8857 25.5799Z" fill="#10B981" />
        <path d="M-5.37635 -12.751L4.41547 -11.6261L0.791824 23.8089L-9 22.678L-5.37635 -12.751Z" fill="#3BBEDB" />
        <path d="M142.648 110.033L144.88 120.206L112.15 128.276L109.925 118.098L142.648 110.033Z" fill="#FFD748" />
        <path d="M117.693 87.3898L109.777 81.1756L129.76 52.5264L137.681 58.7406L117.693 87.3898Z" fill="#FF8719" />
        <path d="M185.892 119.782L177.786 125.713L158.705 96.3758L166.817 90.4443L185.892 119.782Z" fill="#8B5CF6" />
        <path d="M5.25586 175.919L11.6202 167.947L37.2556 190.991L30.8851 198.963L5.25586 175.919Z" fill="#FFD748" />
        <path d="M141.741 262.862L151.189 265.825L141.667 300L132.219 297.043L141.741 262.862Z" fill="#FFD748" />
        <path d="M170.153 242.597L165.162 233.598L194.121 215.527L199.112 224.532L170.153 242.597Z" fill="#3BBEDB" />
        <path d="M61.8546 274.51L58.2861 264.774L89.593 251.848L93.1676 261.584L61.8546 274.51Z" fill="#FF6F48" />
        <path d="M162.329 200.942L161.838 211.372L128.281 209.59L128.772 199.159L162.329 200.942Z" fill="#8B5CF6" />
        <path d="M34.1961 247.495L25.1523 243.371L38.4207 210.628L47.4706 214.758L34.1961 247.495Z" fill="#8B5CF6" />
        <path d="M170.258 182.305L173.606 172.482L205.201 184.603L201.853 194.426L170.258 182.305Z" fill="#3BBEDB" />
        <path d="M-5.37635 254.877L4.41547 256.008L0.791824 291.437L-9 290.306L-5.37635 254.877Z" fill="#3BBEDB" />
    </g>
</svg>