<svg width="32" height="32" viewBox="0 0 32 32" fill="none" xmlns="http://www.w3.org/2000/svg">
<circle cx="16" cy="16" r="16" fill="#FF8766"/>
<path d="M25 24.0781C25 24.3291 24.9505 24.5777 24.8544 24.8096C24.7583 25.0415 24.6174 25.2522 24.4398 25.4297C24.2622 25.6072 24.0514 25.748 23.8194 25.8441C23.5873 25.9402 23.3386 25.9896 23.0875 25.9896C22.8363 25.9896 22.5876 25.9401 22.3556 25.8441C22.1236 25.748 21.9127 25.6072 21.7352 25.4297C21.5576 25.2522 21.4167 25.0415 21.3206 24.8096C21.2245 24.5776 21.175 24.3291 21.175 24.0781V23.8551C22.3696 22.9182 23.3345 21.7212 23.9961 20.3552C24.6578 18.9892 24.9987 17.4903 24.9929 15.9727" fill="white"/>
<path d="M21.1935 7.91957V8.14258C19.3281 6.66969 16.9969 5.91255 14.6215 6.00805C12.1857 6.17764 9.88775 7.20086 8.13254 8.8975C6.37734 10.5942 5.27739 12.8554 5.02644 15.283C4.92877 16.6225 5.10231 17.9679 5.53668 19.2388C5.97105 20.5097 6.65733 21.6801 7.55451 22.6799C8.45169 23.6797 9.54134 24.4884 10.7583 25.0578C11.9753 25.6271 13.2947 25.9454 14.6375 25.9936C15.9804 26.0417 17.3192 25.8188 18.5739 25.3381C19.8286 24.8574 20.9734 24.1287 21.94 23.1958C22.9065 22.2628 23.675 21.1446 24.1994 19.9081C24.7237 18.6716 24.9933 17.3421 24.992 15.999V7.91957C24.992 7.41713 24.7941 6.93488 24.4411 6.57715C24.0882 6.21942 23.6085 6.01497 23.1058 6.00805C22.8547 6.00805 22.606 6.05749 22.3739 6.15355C22.1419 6.24962 21.9311 6.39042 21.7535 6.56792C21.5759 6.74542 21.435 6.95615 21.3389 7.18807C21.2428 7.41998 21.1934 7.66855 21.1934 7.91957H21.1935ZM17.9535 14.0812C17.9449 14.1433 17.9237 14.2029 17.8911 14.2564C17.8586 14.3099 17.8155 14.3563 17.7644 14.3926C17.7134 14.4288 17.6554 14.4543 17.5941 14.4674C17.5329 14.4805 17.4696 14.481 17.4081 14.4688C17.2413 14.4369 17.0718 14.4215 16.902 14.4228C16.6499 14.3988 16.3957 14.4305 16.1572 14.5157C15.9187 14.6008 15.7018 14.7373 15.522 14.9155C15.1969 15.3982 15.0484 15.9782 15.1013 16.5576V19.2968C15.1013 19.4152 15.0543 19.5288 14.9704 19.6126C14.8866 19.6964 14.773 19.7434 14.6544 19.7434H13.4386C13.32 19.7434 13.2064 19.6964 13.1226 19.6126C13.0387 19.5288 12.9917 19.4152 12.9917 19.2968V12.9451C12.9917 12.8267 13.0387 12.713 13.1226 12.6293C13.2064 12.5455 13.32 12.4984 13.4386 12.4984H14.6084C14.6682 12.4984 14.7274 12.5104 14.7825 12.5337C14.8376 12.5569 14.8875 12.591 14.9291 12.6339C14.9708 12.6768 15.0035 12.7276 15.0251 12.7833C15.0468 12.839 15.0571 12.8985 15.0553 12.9583L15.0223 14.364C15.1742 13.7638 15.4906 13.2179 15.9357 12.7874C16.3427 12.4331 16.8685 12.2454 17.408 12.2618L17.7497 12.2948C17.8086 12.3021 17.8655 12.321 17.917 12.3505C17.9685 12.38 18.0136 12.4194 18.0497 12.4665C18.0858 12.5136 18.1122 12.5674 18.1272 12.6248C18.1423 12.6821 18.1458 12.7419 18.1375 12.8007L17.9535 14.0812Z" fill="white"/>
</svg>
