<svg width="32" height="32" viewBox="0 0 32 32" fill="none" xmlns="http://www.w3.org/2000/svg">
<path d="M16 32C24.8366 32 32 24.8366 32 16C32 7.16344 24.8366 0 16 0C7.16344 0 0 7.16344 0 16C0 24.8366 7.16344 32 16 32Z" fill="#F0B90B"/>
<path d="M9.42199 16L6.71441 18.7068L4 16L6.70759 13.2932L9.42199 16ZM16.0034 9.42045L20.6479 14.0636L23.3555 11.3568L16.0034 4L8.6445 11.3568L11.3521 14.0636L16.0034 9.42045ZM25.2924 13.2932L22.5848 16L25.2924 18.7068L28 16L25.2924 13.2932ZM16.0034 22.5795L11.3589 17.9364L8.65132 20.6432L16.0034 28L23.3555 20.6432L20.6479 17.9364L16.0034 22.5795ZM16.0034 18.7068L18.711 16L16.0034 13.2932L13.289 16L16.0034 18.7068Z" fill="white"/>
</svg>
