<svg width="32" height="32" viewBox="0 0 32 32" fill="none" xmlns="http://www.w3.org/2000/svg">
<path d="M16 32C24.8366 32 32 24.8366 32 16C32 7.16344 24.8366 0 16 0C7.16344 0 0 7.16344 0 16C0 24.8366 7.16344 32 16 32Z" fill="#8247E5"/>
<path d="M5 10.1596C5.0085 10.094 5.01556 10.0279 5.02582 9.9626C5.09081 9.54994 5.29141 9.23312 5.64118 9.02106C6.34103 8.59686 7.04069 8.17221 7.74017 7.7471C8.61883 7.21317 9.4975 6.67932 10.3762 6.14554C10.5295 6.05269 10.6925 5.98953 10.878 6.00191C11.0267 6.01252 11.1759 6.01252 11.3245 6.00191C11.4971 5.98862 11.6465 6.04593 11.7894 6.13305C12.8401 6.77358 13.8906 7.41468 14.9408 8.05636C15.3974 8.33521 15.8537 8.6136 16.3098 8.89153C16.6278 9.08433 16.8615 9.35003 16.9844 9.71489C17.0306 9.84783 17.055 9.98792 17.0563 10.1293C17.0563 10.8036 17.0569 11.478 17.058 12.1524C17.058 12.1919 17.045 12.2135 17.0119 12.2335C16.3231 12.6467 15.6346 13.0608 14.9462 13.4757C14.9323 13.484 14.9172 13.4906 14.891 13.5037V13.4303C14.891 12.8056 14.8958 12.1808 14.8896 11.5561C14.8842 11.0086 14.6556 10.5818 14.2046 10.2952C13.3894 9.7779 12.5717 9.26433 11.7518 8.75455C11.5556 8.63224 11.3356 8.57631 11.1069 8.56163C10.798 8.54192 10.5184 8.62628 10.2518 8.78951C9.46345 9.27209 8.66801 9.74229 7.88063 10.2267C7.47745 10.4747 7.24441 10.8507 7.18317 11.3361C7.17559 11.4101 7.17264 11.4846 7.17435 11.5591C7.17383 12.5105 7.17357 13.4619 7.17357 14.4133C7.17291 14.8704 7.31701 15.2636 7.64936 15.5697C7.74866 15.6614 7.86529 15.7345 7.9796 15.8066C8.75198 16.2944 9.52568 16.7805 10.3007 17.2646C10.5086 17.3942 10.739 17.4543 10.9819 17.4674C11.2918 17.484 11.569 17.3938 11.8332 17.2278C12.8445 16.5924 13.858 15.961 14.8737 15.3336C15.3164 15.0618 15.7702 14.8092 16.2229 14.5553C17.0009 14.1189 17.7585 13.6462 18.5202 13.1805C19.1029 12.8242 19.6845 12.4658 20.2685 12.112C20.4417 12.007 20.6333 11.9547 20.8321 11.9286C21.1923 11.8819 21.5079 11.998 21.815 12.1851C22.9993 12.9067 24.188 13.6192 25.3756 14.3349C25.6791 14.5183 25.9843 14.698 26.2857 14.8851C26.6621 15.1186 26.9012 15.4572 26.9808 15.9085C26.9966 15.9978 26.9985 16.0906 26.9985 16.1819C26.9994 18.0541 26.9994 19.9263 26.9985 21.7986C26.9985 22.3647 26.7599 22.798 26.2889 23.0833C25.084 23.8131 23.8778 24.5406 22.6704 25.2659C22.343 25.4633 22.017 25.6632 21.6872 25.8562C21.5968 25.9092 21.4959 25.9435 21.3983 25.9823C21.3668 25.9926 21.3339 25.9971 21.301 25.9956C21.1134 25.9968 20.9258 25.9874 20.7382 25.9987C20.5676 26.0091 20.4205 25.9529 20.2789 25.8675C19.5936 25.4548 18.9086 25.0422 18.2239 24.6295C17.3769 24.1187 16.5299 23.6079 15.6831 23.0969C15.341 22.8906 15.1012 22.5953 15.001 22.1938C14.9674 22.0572 14.9499 21.9169 14.9489 21.776C14.9434 21.157 14.947 20.538 14.9455 19.919C14.9455 19.8748 14.9597 19.8503 14.9959 19.8281C15.6865 19.414 16.3768 18.9992 17.0668 18.584C17.0806 18.5756 17.0953 18.5686 17.1204 18.5551V18.63C17.1204 19.2375 17.1162 19.845 17.122 20.4525C17.1273 21.0115 17.3686 21.4383 17.8309 21.721C18.6389 22.2141 19.4492 22.7031 20.2618 23.1881C20.4335 23.2912 20.6229 23.3453 20.8202 23.37C21.16 23.4124 21.469 23.331 21.7618 23.1477C22.5282 22.6678 23.2999 22.1971 24.067 21.7182C24.4274 21.493 24.6606 21.1659 24.7481 20.7346C24.7657 20.6509 24.7751 20.5655 24.776 20.4798C24.7779 19.4615 24.7859 18.4431 24.7737 17.425C24.7675 16.9142 24.5457 16.4993 24.1241 16.2314C23.5458 15.864 22.9545 15.5193 22.3682 15.1654C22.1347 15.0242 21.9022 14.8813 21.6676 14.7424C21.4517 14.6141 21.209 14.5421 20.9604 14.5325C20.6745 14.5197 20.4136 14.5933 20.1673 14.7429C19.2392 15.3063 18.3102 15.8681 17.3801 16.4282C16.4921 16.9641 15.6035 17.4992 14.7144 18.0336C13.7324 18.6262 12.7507 19.2194 11.7695 19.8132C11.5732 19.9315 11.3594 19.9944 11.1324 20.0149C10.8207 20.0428 10.5394 19.9602 10.271 19.7978C8.90715 18.9725 7.54222 18.1491 6.17622 17.3277C5.97617 17.207 5.77116 17.0922 5.58336 16.953C5.25819 16.7123 5.07382 16.3743 5.01721 15.9628C5.01026 15.9123 5.00618 15.8614 5 15.8107V10.1596Z" fill="white"/>
</svg>
