<svg width="32" height="32" viewBox="0 0 32 32" fill="none" xmlns="http://www.w3.org/2000/svg">
<path d="M22.6666 14.6667H12.5466L16.9466 10.28C17.1977 10.029 17.3387 9.68843 17.3387 9.33336C17.3387 8.97829 17.1977 8.63776 16.9466 8.38669C16.6955 8.13562 16.355 7.99457 15.9999 7.99457C15.6449 7.99457 15.3043 8.13562 15.0533 8.38669L8.38661 15.0534C8.26522 15.1802 8.17007 15.3297 8.10661 15.4934C7.97325 15.818 7.97325 16.1821 8.10661 16.5067C8.17007 16.6704 8.26522 16.8199 8.38661 16.9467L15.0533 23.6134C15.1772 23.7383 15.3247 23.8375 15.4872 23.9052C15.6497 23.9729 15.8239 24.0078 15.9999 24.0078C16.176 24.0078 16.3502 23.9729 16.5127 23.9052C16.6752 23.8375 16.8227 23.7383 16.9466 23.6134C17.0716 23.4894 17.1708 23.3419 17.2385 23.1795C17.3062 23.017 17.341 22.8427 17.341 22.6667C17.341 22.4907 17.3062 22.3164 17.2385 22.1539C17.1708 21.9914 17.0716 21.844 16.9466 21.72L12.5466 17.3334H22.6666C23.0202 17.3334 23.3594 17.1929 23.6094 16.9428C23.8595 16.6928 23.9999 16.3536 23.9999 16C23.9999 15.6464 23.8595 15.3073 23.6094 15.0572C23.3594 14.8072 23.0202 14.6667 22.6666 14.6667Z" fill="white"/>
</svg>
