<svg width="24" height="24" viewBox="0 0 24 24" fill="none" xmlns="http://www.w3.org/2000/svg">
<rect width="24" height="24" rx="12" fill="#353446"/>
<path d="M16.0003 12.7868V10.6668C15.9994 9.72225 15.6642 8.80848 15.0541 8.08735C14.444 7.36622 13.5984 6.88426 12.667 6.72683V6.00016C12.667 5.82335 12.5968 5.65378 12.4717 5.52876C12.3467 5.40373 12.1771 5.3335 12.0003 5.3335C11.8235 5.3335 11.6539 5.40373 11.5289 5.52876C11.4039 5.65378 11.3337 5.82335 11.3337 6.00016V6.72683C10.4023 6.88426 9.55667 7.36622 8.94658 8.08735C8.33649 8.80848 8.00128 9.72225 8.00033 10.6668V12.7868C7.61129 12.9244 7.27432 13.1789 7.03562 13.5155C6.79691 13.852 6.66815 14.2542 6.66699 14.6668V16.0002C6.66699 16.177 6.73723 16.3465 6.86225 16.4716C6.98728 16.5966 7.15685 16.6668 7.33366 16.6668H9.42699C9.58051 17.2317 9.91566 17.7304 10.3807 18.086C10.8458 18.4415 11.4149 18.6342 12.0003 18.6342C12.5857 18.6342 13.1549 18.4415 13.6199 18.086C14.085 17.7304 14.4201 17.2317 14.5737 16.6668H16.667C16.8438 16.6668 17.0134 16.5966 17.1384 16.4716C17.2634 16.3465 17.3337 16.177 17.3337 16.0002V14.6668C17.3325 14.2542 17.2037 13.852 16.965 13.5155C16.7263 13.1789 16.3894 12.9244 16.0003 12.7868ZM9.33366 10.6668C9.33366 9.95959 9.61461 9.28131 10.1147 8.78121C10.6148 8.28111 11.2931 8.00016 12.0003 8.00016C12.7076 8.00016 13.3858 8.28111 13.8859 8.78121C14.386 9.28131 14.667 9.95959 14.667 10.6668V12.6668H9.33366V10.6668ZM12.0003 17.3335C11.7676 17.3321 11.5394 17.2698 11.3382 17.1529C11.1371 17.0359 10.97 16.8683 10.8537 16.6668H13.147C13.0307 16.8683 12.8636 17.0359 12.6624 17.1529C12.4613 17.2698 12.233 17.3321 12.0003 17.3335ZM16.0003 15.3335H8.00033V14.6668C8.00033 14.49 8.07056 14.3204 8.19559 14.1954C8.32061 14.0704 8.49018 14.0002 8.66699 14.0002H15.3337C15.5105 14.0002 15.68 14.0704 15.8051 14.1954C15.9301 14.3204 16.0003 14.49 16.0003 14.6668V15.3335Z" fill="white"/>
</svg>
