<svg width="102" height="26" viewBox="0 0 102 26" fill="none" xmlns="http://www.w3.org/2000/svg">
<path fill-rule="evenodd" clip-rule="evenodd" d="M19.8695 12.3346C19.8229 12.2937 19.7711 12.263 19.7194 12.222C20.5664 10.9783 20.9975 9.50319 20.9518 8.00455C20.9518 5.54095 20.0974 3.61477 18.3886 2.226C16.6797 0.837242 14.3271 0.141153 11.3307 0.137741H3.87401V1.1614H11.196C13.7437 1.1614 16.048 1.67323 17.4513 2.88114C18.5014 3.76862 19.2678 4.93872 19.6572 6.24898C19.3191 5.21591 18.6525 4.31835 17.7568 3.68984C16.6953 2.89138 15.4732 2.24647 12.0142 2.24647H6.25601V3.27013C6.25601 3.27013 8.84511 3.23942 11.8847 3.27013C14.8311 3.30596 15.9134 3.63353 16.9076 4.35521C18.1763 5.28674 18.9789 6.42812 18.9789 8.03014C18.98 8.59742 18.857 9.15823 18.6183 9.67415C18.3797 10.1901 18.031 10.6489 17.5963 11.0192C17.4979 10.9783 17.3943 10.9476 17.2908 10.9117L17.3995 10.8554C17.8999 10.5573 18.3089 10.1301 18.5825 9.61983C18.8562 9.10951 18.9842 8.53523 18.953 7.95849C18.9588 7.36598 18.8045 6.78268 18.5059 6.26889C18.2073 5.75509 17.7753 5.32944 17.2545 5.03594C16.4519 4.52411 15.7528 4.20678 12.4491 4.20678H8.30656V4.86704H12.3249C15.2505 4.86704 16.3639 5.37887 16.7005 5.58872C17.1501 5.80576 17.5303 6.14151 17.799 6.55883C18.0677 6.97615 18.2144 7.45878 18.2228 7.95336C18.2162 8.41132 18.0991 8.8611 17.8811 9.26528C17.6631 9.66945 17.3507 10.0163 16.9697 10.2771C16.7201 10.4089 16.4582 10.5168 16.1878 10.5995C15.0824 10.3485 13.951 10.2265 12.8168 10.2361H7.82499V11.2598H12.677C15.2247 11.2598 17.529 11.7716 18.9374 12.9795C19.9875 13.867 20.754 15.0371 21.1434 16.3474C20.8032 15.3139 20.1349 14.4165 19.2378 13.7882C18.1763 12.9898 16.9542 12.3449 13.4951 12.3449H5.67605V13.3685C5.67605 13.3685 10.3364 13.3378 13.3657 13.3685C16.3173 13.3992 17.3943 13.7268 18.3886 14.4536C19.6572 15.3851 20.4598 16.5265 20.4598 18.1285C20.4598 19.7306 19.6572 20.7696 18.3886 21.7113C17.1199 22.6531 15.0849 22.6736 14.2771 22.6889C13.9664 22.6889 10.005 22.6889 10.005 22.6889V23.7126C10.005 23.7126 11.9779 23.7382 13.1948 23.7126C15.9962 23.6512 17.6584 23.4874 19.2015 22.3511C19.8951 21.8806 20.4604 21.2481 20.847 20.5096C21.2337 19.7711 21.4298 18.9497 21.4178 18.1183C21.4178 18.149 21.4178 18.1797 21.4178 18.2104C21.4319 19.1542 21.2241 20.0883 20.8108 20.9392C20.3974 21.7901 19.7898 22.5345 19.0358 23.1137C17.5704 24.3114 14.9606 24.8386 12.3456 24.8386H3.92582V25.8623H12.3974C15.5457 25.8623 18.0071 25.1798 19.7815 23.8149C21.5559 22.4501 22.4414 20.5495 22.4379 18.1132C22.4379 15.653 21.5818 13.7268 19.8695 12.3346ZM18.8339 11.6232C18.7407 11.572 18.6527 11.5157 18.5594 11.4696C19.4584 10.5328 19.9509 9.28542 19.9317 7.99431C19.9317 8.02502 19.9317 8.05573 19.9317 8.08644C19.9513 9.35171 19.5632 10.5904 18.8235 11.6232H18.8339ZM14.6913 16.6749H7.3486V17.2328H14.6809L14.6913 16.6749ZM14.6447 19.1982V18.7171H10.383V19.1982H14.6447ZM3.93615 17.2328H6.10582V16.6749H3.93615V17.2328ZM2.57946 19.2392H9.16098V18.6762H2.56913L2.57946 19.2392ZM4.20543 4.83633H6.79453V4.37056H4.20543V4.83633ZM8.30141 8.05061H2.4293V8.56244H8.31174L8.30141 8.05061ZM8.78816 23.6307V22.9551H2.57431V23.6307H8.78816ZM1.02085 25.8111H2.57431V24.8386H1.02085V25.8111ZM14.6447 6.40765H4.9045V6.94506H14.6499L14.6447 6.40765ZM14.4583 8.58803V8.07621H9.79789V8.58803H14.4583ZM18.8649 20.8719C19.3579 20.5913 19.7634 20.1823 20.0374 19.6895C20.3113 19.1968 20.4431 18.6391 20.4184 18.0773C20.4198 17.4987 20.2626 16.9305 19.9636 16.4331C19.6645 15.9356 19.2348 15.5275 18.72 15.252C17.9225 14.776 17.2183 14.4536 13.9198 14.4536H8.64316V15.0934H13.8214C16.7522 15.0934 17.8604 15.6052 18.197 15.7843C18.642 15.9865 19.0207 16.3081 19.2899 16.7126C19.559 17.1171 19.7078 17.5882 19.7194 18.0722C19.7112 18.5186 19.5927 18.9561 19.3743 19.3469C19.1559 19.7376 18.8441 20.0696 18.4662 20.314C17.7879 20.6774 16.5451 21.005 14.3547 21.005H0.829224V21.6448H14.3858C17.0319 21.6397 17.9639 21.3633 18.8701 20.8719H18.8649Z" fill="white"/>
<path d="M28.4379 20.0673V6.29909H33.3312C34.5739 6.23369 35.8078 6.5386 36.8732 7.17432C37.271 7.40909 37.6005 7.74192 37.8292 8.14026C38.0579 8.5386 38.1781 8.9888 38.1781 9.44683C38.1911 10.2047 37.9072 10.9383 37.3858 11.4941C36.7978 12.1074 36.0392 12.5348 35.2058 12.7225V12.7635C36.2215 12.8142 37.1949 13.1815 37.9865 13.8127C38.3242 14.0953 38.5928 14.4497 38.7721 14.8495C38.9515 15.2493 39.037 15.684 39.0221 16.1211C39.0268 16.692 38.8836 17.2545 38.6063 17.7553C38.3289 18.2561 37.9266 18.6784 37.4376 18.9822C36.252 19.7478 34.8551 20.1306 33.44 20.0775L28.4379 20.0673ZM30.4522 7.78339V12.2312H32.5234C33.4317 12.2778 34.3333 12.055 35.1126 11.5914C35.4154 11.3985 35.6621 11.1308 35.8283 10.8149C35.9944 10.4989 36.0744 10.1456 36.0602 9.78976C36.0602 8.4556 34.9607 7.7868 32.7617 7.78339H30.4522ZM30.4522 13.6797V18.6342H33.1863C34.1527 18.6912 35.1137 18.4555 35.9411 17.9585C36.2508 17.7606 36.5036 17.487 36.675 17.1642C36.8465 16.8414 36.9308 16.4804 36.9197 16.116C36.9197 14.4918 35.5389 13.6797 32.7772 13.6797H30.4522Z" fill="white"/>
<path d="M42.7601 7.74251C42.4347 7.7511 42.1163 7.648 41.8591 7.45076C41.7426 7.36798 41.648 7.25875 41.5831 7.13227C41.5182 7.0058 41.485 6.86577 41.4863 6.72396C41.4846 6.58066 41.5176 6.43902 41.5824 6.31084C41.6473 6.18265 41.7421 6.07161 41.8591 5.98693C42.1163 5.78968 42.4347 5.6866 42.7601 5.69519C43.0905 5.68557 43.4141 5.78858 43.6767 5.98693C43.7949 6.07076 43.891 6.18149 43.9568 6.30978C44.0226 6.43807 44.0562 6.58014 44.0547 6.72396C44.0546 6.86464 44.0202 7.00321 43.9544 7.12795C43.8886 7.25268 43.7933 7.3599 43.6767 7.44052C43.4163 7.64406 43.092 7.75093 42.7601 7.74251ZM43.7181 20.0673H41.7504V10.2351H43.7181V20.0673Z" fill="white"/>
<path d="M52.9249 19.97C52.3419 20.1967 51.7177 20.3013 51.0918 20.2771C48.9376 20.2771 47.8606 19.3166 47.8606 17.3955V11.5812H45.7531V10.2351H47.8606V7.83458L49.8335 7.32275V10.2299H52.9404V11.576H49.8335V17.1038C49.7812 17.6108 49.9317 18.1178 50.2529 18.5164C50.4447 18.6736 50.6661 18.7916 50.9043 18.8636C51.1425 18.9356 51.3928 18.9603 51.6407 18.9361C52.0915 18.9493 52.5368 18.8357 52.9249 18.6086V19.97Z" fill="white"/>
<path d="M71.2822 20.0673H69.4387V11.5709C69.4479 10.7482 69.4997 9.92651 69.5941 9.10905H69.5526C69.4344 9.53113 69.2749 9.94083 69.0763 10.3323L63.6702 20.0571H62.764L57.3631 10.404C57.1622 9.98919 57.0043 9.55532 56.8919 9.10905H56.8453C56.9188 9.93269 56.9482 10.7596 56.9333 11.5863V20.0673H55.1469V7.40466H57.5962L62.4378 16.2337C62.7246 16.7242 62.9688 17.2379 63.1679 17.7692H63.2352C63.5511 17.0731 63.8048 16.5562 63.9964 16.2337L68.952 7.44048H71.2666L71.2822 20.0673Z" fill="white"/>
<path d="M83.7043 20.0673H81.7366V18.5318H81.6899C81.2597 19.1153 80.6881 19.5827 80.0277 19.8912C79.3673 20.1997 78.6391 20.3394 77.9099 20.2977C76.8916 20.3562 75.882 20.0829 75.036 19.5197C74.7088 19.2865 74.4437 18.9785 74.2634 18.6219C74.083 18.2654 73.9928 17.8709 74.0003 17.4724C74.0003 15.6366 75.3535 14.5669 78.06 14.2632L81.7417 13.8486C81.7417 12.1801 80.8977 11.3458 79.2096 11.3458C77.7797 11.3312 76.3801 11.753 75.2017 12.5537V10.9414C76.4977 10.3071 77.9294 9.99112 79.3753 10.0201C82.2647 10.0201 83.7095 11.2434 83.7095 13.6899L83.7043 20.0673ZM81.7366 15.0924L78.7746 15.4199C78.0553 15.4673 77.352 15.6515 76.7033 15.9625C76.4677 16.1035 76.2774 16.3078 76.1545 16.5515C76.0317 16.7952 75.9814 17.0684 76.0095 17.3393C76.0079 17.573 76.0659 17.8034 76.1781 18.0091C76.2903 18.2148 76.4532 18.3893 76.6516 18.5165C77.1584 18.8426 77.7564 19.002 78.3604 18.972C79.2419 19.0032 80.1037 18.7095 80.7786 18.148C81.0853 17.8948 81.3303 17.5764 81.4953 17.2166C81.6602 16.8568 81.7409 16.4649 81.7314 16.0699L81.7366 15.0924Z" fill="white"/>
<path d="M93.3255 11.8319C92.8694 11.5923 92.3549 11.4824 91.8393 11.5146C91.4391 11.5087 91.0425 11.5905 90.678 11.7543C90.3136 11.918 89.9905 12.1595 89.7318 12.4615C89.137 13.1944 88.8365 14.1183 88.8878 15.0565V20.0673H86.92V10.235H88.8878V12.2824H88.9343C89.187 11.6272 89.6348 11.0633 90.2186 10.665C90.7866 10.2793 91.4609 10.0756 92.15 10.0815C92.5467 10.0664 92.9434 10.1131 93.3255 10.2197V11.8319Z" fill="white"/>
<path d="M101.16 19.97C100.578 20.1967 99.9533 20.3013 99.3274 20.2771C97.1732 20.2771 96.1014 19.3149 96.1014 17.3955V11.5812H93.9886V10.2351H96.0962V7.83458L98.0639 7.32275V10.2299H101.171V11.576H98.0639V17.1038C98.0144 17.6105 98.1646 18.1166 98.4833 18.5164C98.6759 18.674 98.8982 18.7922 99.1373 18.8642C99.3764 18.9363 99.6275 18.9607 99.8763 18.9361C100.325 18.9486 100.769 18.8351 101.155 18.6086L101.16 19.97Z" fill="white"/>
</svg>
