<svg width="16" height="16" viewBox="0 0 16 16" fill="none" xmlns="http://www.w3.org/2000/svg">
<path d="M13.26 6.36667C13.2046 6.25672 13.1199 6.16427 13.0151 6.09955C12.9104 6.03483 12.7898 6.00037 12.6667 6H9.33336V2C9.34052 1.85379 9.29935 1.70929 9.21621 1.5888C9.13308 1.46831 9.01259 1.37854 8.87336 1.33333C8.73951 1.28929 8.59515 1.2888 8.461 1.33192C8.32686 1.37504 8.20982 1.45955 8.1267 1.57333L2.79336 8.90667C2.72654 9.00324 2.68642 9.11576 2.67705 9.23283C2.66768 9.3499 2.68941 9.46736 2.74003 9.57333C2.78664 9.6945 2.86762 9.79942 2.97302 9.87521C3.07842 9.95101 3.20366 9.99438 3.33336 10H6.6667V14C6.6668 14.1406 6.71134 14.2775 6.79396 14.3913C6.87658 14.505 6.99304 14.5898 7.1267 14.6333C7.19368 14.6541 7.26325 14.6653 7.33336 14.6667C7.43855 14.6669 7.54232 14.6423 7.63617 14.5948C7.73002 14.5473 7.8113 14.4783 7.87336 14.3933L13.2067 7.06C13.2785 6.96053 13.3215 6.84317 13.3309 6.72084C13.3403 6.59851 13.3158 6.47595 13.26 6.36667ZM8.00003 11.9467V9.33333C8.00003 9.15652 7.92979 8.98695 7.80477 8.86193C7.67974 8.7369 7.51017 8.66667 7.33336 8.66667H4.6667L8.00003 4.05333V6.66667C8.00003 6.84348 8.07027 7.01305 8.19529 7.13807C8.32032 7.26309 8.48989 7.33333 8.6667 7.33333H11.3334L8.00003 11.9467Z" fill="white"/>
</svg>
