<svg width="16" height="16" viewBox="0 0 16 16" fill="none" xmlns="http://www.w3.org/2000/svg">
<circle cx="8" cy="8" r="6" fill="#06976A"/>
<path d="M9.81363 5.86L6.95363 8.72667L5.85363 7.62667C5.79387 7.55688 5.72032 7.5002 5.63761 7.46018C5.5549 7.42017 5.46481 7.39768 5.373 7.39413C5.28119 7.39059 5.18963 7.40606 5.10408 7.43957C5.01853 7.47309 4.94084 7.52393 4.87587 7.5889C4.8109 7.65387 4.76006 7.73157 4.72654 7.81712C4.69302 7.90267 4.67755 7.99422 4.6811 8.08603C4.68465 8.17785 4.70713 8.26794 4.74715 8.35065C4.78716 8.43336 4.84384 8.5069 4.91363 8.56667L6.4803 10.14C6.54259 10.2018 6.61647 10.2507 6.69769 10.2838C6.77892 10.317 6.8659 10.3338 6.95363 10.3333C7.12853 10.3326 7.29613 10.2632 7.4203 10.14L10.7536 6.80667C10.8161 6.74469 10.8657 6.67096 10.8996 6.58972C10.9334 6.50848 10.9508 6.42134 10.9508 6.33333C10.9508 6.24532 10.9334 6.15819 10.8996 6.07695C10.8657 5.99571 10.8161 5.92197 10.7536 5.86C10.6287 5.73583 10.4598 5.66614 10.2836 5.66614C10.1075 5.66614 9.93854 5.73583 9.81363 5.86Z" fill="white"/>
</svg>
