<svg width="24" height="24" viewBox="0 0 24 24" fill="none" xmlns="http://www.w3.org/2000/svg">
<path d="M7.00029 9.17C7.18766 8.98374 7.44111 8.8792 7.70529 8.8792C7.96948 8.8792 8.22293 8.98374 8.41029 9.17L12.0003 12.71L15.5403 9.17C15.7277 8.98375 15.9811 8.8792 16.2453 8.8792C16.5095 8.8792 16.7629 8.98375 16.9503 9.17C17.044 9.26296 17.1184 9.37356 17.1692 9.49542C17.22 9.61728 17.2461 9.74798 17.2461 9.88C17.2461 10.012 17.22 10.1427 17.1692 10.2646C17.1184 10.3864 17.044 10.497 16.9503 10.59L12.7103 14.83C12.6173 14.9237 12.5067 14.9981 12.3849 15.0489C12.263 15.0997 12.1323 15.1258 12.0003 15.1258C11.8683 15.1258 11.7376 15.0997 11.6157 15.0489C11.4939 14.9981 11.3833 14.9237 11.2903 14.83L7.00029 10.59C6.90657 10.497 6.83217 10.3864 6.7814 10.2646C6.73063 10.1427 6.7045 10.012 6.7045 9.88C6.7045 9.74798 6.73063 9.61728 6.7814 9.49542C6.83217 9.37356 6.90657 9.26296 7.00029 9.17Z" fill="#A6A4BC"/>
</svg>
