<svg width="16" height="16" viewBox="0 0 16 16" fill="none" xmlns="http://www.w3.org/2000/svg">
<path d="M13.6467 4.91334C13.6467 4.91334 13.6467 4.91334 13.6467 4.86L13.6067 4.76C13.5927 4.73878 13.5771 4.71872 13.56 4.7C13.5422 4.67178 13.5221 4.64503 13.5 4.62L13.44 4.57334L13.3333 4.52L8.33333 1.43334C8.22737 1.36711 8.10494 1.332 7.98 1.332C7.85505 1.332 7.73262 1.36711 7.62666 1.43334L2.66666 4.52L2.60666 4.57334L2.54666 4.62C2.52456 4.64503 2.5045 4.67178 2.48666 4.7C2.46952 4.71872 2.45392 4.73878 2.43999 4.76L2.39999 4.86C2.39999 4.86 2.39999 4.86 2.39999 4.91334C2.39344 4.97093 2.39344 5.02908 2.39999 5.08667V10.9133C2.39977 11.0266 2.42842 11.1381 2.48324 11.2373C2.53807 11.3364 2.61725 11.42 2.71333 11.48L7.71333 14.5667C7.7441 14.5857 7.77794 14.5992 7.81333 14.6067C7.81333 14.6067 7.84666 14.6067 7.86666 14.6067C7.97945 14.6424 8.10054 14.6424 8.21333 14.6067C8.21333 14.6067 8.24666 14.6067 8.26666 14.6067C8.30205 14.5992 8.33589 14.5857 8.36666 14.5667L13.3333 11.48C13.4294 11.42 13.5086 11.3364 13.5634 11.2373C13.6182 11.1381 13.6469 11.0266 13.6467 10.9133V5.08667C13.6532 5.02908 13.6532 4.97093 13.6467 4.91334ZM7.33333 12.8067L3.66666 10.54V6.28667L7.33333 8.54667V12.8067ZM8 7.39334L4.26666 5.08667L8 2.78667L11.7333 5.08667L8 7.39334ZM12.3333 10.54L8.66666 12.8067V8.54667L12.3333 6.28667V10.54Z" fill="white"/>
</svg>
