<svg width="16" height="16" viewBox="0 0 16 16" fill="none" xmlns="http://www.w3.org/2000/svg">
<path d="M6.66667 8.6665H2.66667C2.48986 8.6665 2.32029 8.73674 2.19526 8.86177C2.07024 8.98679 2 9.15636 2 9.33317V13.3332C2 13.51 2.07024 13.6796 2.19526 13.8046C2.32029 13.9296 2.48986 13.9998 2.66667 13.9998H6.66667C6.84348 13.9998 7.01305 13.9296 7.13807 13.8046C7.2631 13.6796 7.33333 13.51 7.33333 13.3332V9.33317C7.33333 9.15636 7.2631 8.98679 7.13807 8.86177C7.01305 8.73674 6.84348 8.6665 6.66667 8.6665ZM6 12.6665H3.33333V9.99984H6V12.6665Z" fill="#FFFFFF"/>
<path d="M6.66667 2H2.66667C2.48986 2 2.32029 2.07024 2.19526 2.19526C2.07024 2.32029 2 2.48986 2 2.66667V6.66667C2 6.84348 2.07024 7.01305 2.19526 7.13807C2.32029 7.2631 2.48986 7.33333 2.66667 7.33333H6.66667C6.84348 7.33333 7.01305 7.2631 7.13807 7.13807C7.2631 7.01305 7.33333 6.84348 7.33333 6.66667V2.66667C7.33333 2.48986 7.2631 2.32029 7.13807 2.19526C7.01305 2.07024 6.84348 2 6.66667 2ZM6 6H3.33333V3.33333H6V6Z" fill="#FFFFFF"/>
<path d="M13.3334 2H9.33341C9.1566 2 8.98703 2.07024 8.86201 2.19526C8.73699 2.32029 8.66675 2.48986 8.66675 2.66667V6.66667C8.66675 6.84348 8.73699 7.01305 8.86201 7.13807C8.98703 7.2631 9.1566 7.33333 9.33341 7.33333H13.3334C13.5102 7.33333 13.6798 7.2631 13.8048 7.13807C13.9298 7.01305 14.0001 6.84348 14.0001 6.66667V2.66667C14.0001 2.48986 13.9298 2.32029 13.8048 2.19526C13.6798 2.07024 13.5102 2 13.3334 2ZM12.6667 6H10.0001V3.33333H12.6667V6Z" fill="#FFFFFF"/>
<path d="M13.3334 8.6665H9.33341C9.1566 8.6665 8.98703 8.73674 8.86201 8.86177C8.73699 8.98679 8.66675 9.15636 8.66675 9.33317V13.3332C8.66675 13.51 8.73699 13.6796 8.86201 13.8046C8.98703 13.9296 9.1566 13.9998 9.33341 13.9998H13.3334C13.5102 13.9998 13.6798 13.9296 13.8048 13.8046C13.9298 13.6796 14.0001 13.51 14.0001 13.3332V9.33317C14.0001 9.15636 13.9298 8.98679 13.8048 8.86177C13.6798 8.73674 13.5102 8.6665 13.3334 8.6665ZM12.6667 12.6665H10.0001V9.99984H12.6667V12.6665Z" fill="#FFFFFF"/>
</svg>
