<svg width="16" height="16" viewBox="0 0 12 12" fill="none" xmlns="http://www.w3.org/2000/svg">
<path fill-rule="evenodd" clip-rule="evenodd" d="M9.96773 2.97377C9.99198 2.99202 10.0105 3.01202 10.0267 3.03752C10.2037 3.31427 11.289 5.13452 11.4995 8.44552C11.5017 8.48102 11.4895 8.51777 11.4657 8.54427C10.3177 9.83027 8.67048 9.98202 8.31873 10C8.27698 10.0023 8.23723 9.98377 8.21198 9.95027L7.89148 9.52302C7.86648 9.48952 7.87998 9.44252 7.91923 9.42827C8.59548 9.18152 9.34823 8.75327 10.0022 8.00177C9.19223 8.61427 7.96998 9.25002 5.99998 9.25002C4.02998 9.25002 2.80773 8.61427 1.99748 8.00177C2.65123 8.75327 3.40423 9.18177 4.08048 9.42827C4.11973 9.44252 4.13323 9.48952 4.10823 9.52302L3.78773 9.95027C3.76273 9.98377 3.72273 10.002 3.68098 10C3.32948 9.98227 1.68198 9.83027 0.533983 8.54427C0.510233 8.51777 0.497983 8.48102 0.500233 8.44552C0.710983 5.13452 1.79623 3.31427 1.97323 3.03752C1.98973 3.01202 2.00798 2.99202 2.03223 2.97377C2.22448 2.82927 3.19998 2.13902 4.44848 2.00502C4.45073 2.00477 4.46048 2.00427 4.46273 2.00427C4.48748 2.00427 4.50848 2.01852 4.51873 2.03927L4.58598 2.17377H4.58623C4.59048 2.18202 4.59273 2.19152 4.59273 2.20152C4.59273 2.22877 4.57523 2.25202 4.55073 2.26052C4.55001 2.26076 4.54719 2.26135 4.54405 2.26201C4.54068 2.26272 4.53692 2.2635 4.53498 2.26402C3.46823 2.52102 2.81923 2.98652 2.24773 3.50027C3.25973 2.98402 4.25873 2.50002 5.99998 2.50002C7.74123 2.50002 8.74048 2.98377 9.75223 3.50027C9.18073 2.98652 8.53173 2.52102 7.46498 2.26402C7.46123 2.26327 7.45073 2.26102 7.44923 2.26052C7.42473 2.25202 7.40723 2.22877 7.40723 2.20152C7.40723 2.19152 7.40948 2.18202 7.41373 2.17377H7.41398L7.48123 2.03927C7.49148 2.01852 7.51273 2.00427 7.53723 2.00427C7.53948 2.00427 7.54898 2.00477 7.55148 2.00502C8.79998 2.13902 9.77548 2.82927 9.96773 2.97377ZM4.37497 7.49998C4.85822 7.49998 5.24997 7.05227 5.24997 6.49998C5.24997 5.9477 4.85822 5.49998 4.37497 5.49998C3.89172 5.49998 3.49997 5.9477 3.49997 6.49998C3.49997 7.05227 3.89172 7.49998 4.37497 7.49998ZM7.625 7.49998C8.10825 7.49998 8.5 7.05227 8.5 6.49998C8.5 5.9477 8.10825 5.49998 7.625 5.49998C7.14175 5.49998 6.75 5.9477 6.75 6.49998C6.75 7.05227 7.14175 7.49998 7.625 7.49998Z" fill="#8B5CF6"/>
</svg>
