<svg width="96" height="96" viewBox="0 0 96 96" fill="none" xmlns="http://www.w3.org/2000/svg">
<circle cx="48" cy="48" r="48" fill="#10B981"/>
<path d="M68.1294 33.63C67.8505 33.3488 67.5187 33.1256 67.1531 32.9733C66.7875 32.821 66.3954 32.7426 65.9994 32.7426C65.6033 32.7426 65.2112 32.821 64.8456 32.9733C64.4801 33.1256 64.1483 33.3488 63.8694 33.63L41.5194 56.01L32.1294 46.59C31.8398 46.3103 31.498 46.0904 31.1234 45.9427C30.7488 45.7951 30.3489 45.7227 29.9463 45.7297C29.5438 45.7367 29.1466 45.8228 28.7773 45.9833C28.4081 46.1438 28.0741 46.3754 27.7944 46.665C27.5146 46.9546 27.2947 47.2964 27.1471 47.671C26.9995 48.0455 26.9271 48.4455 26.9341 48.848C26.941 49.2506 27.0272 49.6478 27.1877 50.017C27.3482 50.3863 27.5798 50.7203 27.8694 51L39.3894 62.52C39.6683 62.8012 40.0001 63.0244 40.3656 63.1767C40.7312 63.329 41.1233 63.4074 41.5194 63.4074C41.9154 63.4074 42.3075 63.329 42.6731 63.1767C43.0387 63.0244 43.3705 62.8012 43.6494 62.52L68.1294 38.04C68.4339 37.7591 68.6769 37.4181 68.8431 37.0386C69.0093 36.6591 69.0952 36.2493 69.0952 35.835C69.0952 35.4207 69.0093 35.0109 68.8431 34.6314C68.6769 34.2519 68.4339 33.9109 68.1294 33.63Z" fill="white"/>
</svg>
