<svg width="8" height="6" viewBox="0 0 8 6" fill="none" xmlns="http://www.w3.org/2000/svg">
<path d="M7.33248 2.06012L4.47248 4.88679C4.41051 4.94927 4.33678 4.99887 4.25554 5.03271C4.1743 5.06656 4.08716 5.08398 3.99915 5.08398C3.91114 5.08398 3.82401 5.06656 3.74277 5.03271C3.66153 4.99887 3.58779 4.94927 3.52582 4.88679L0.699152 2.06012C0.636666 1.99814 0.58707 1.92441 0.553224 1.84317C0.519378 1.76193 0.501953 1.67479 0.501953 1.58679C0.501953 1.49878 0.519378 1.41164 0.553224 1.3304C0.58707 1.24916 0.636666 1.17543 0.699152 1.11345C0.82406 0.989285 0.993028 0.91959 1.16915 0.91959C1.34528 0.91959 1.51424 0.989285 1.63915 1.11345L3.99915 3.47345L6.35915 1.11345C6.48332 0.990289 6.65092 0.920855 6.82582 0.920119C6.91356 0.919611 7.00053 0.936428 7.08176 0.969604C7.16298 1.00278 7.23686 1.05166 7.29915 1.11345C7.36387 1.1732 7.4161 1.24517 7.45284 1.32523C7.48958 1.40528 7.51009 1.49181 7.51319 1.57984C7.51629 1.66786 7.50192 1.75562 7.4709 1.83806C7.43988 1.9205 7.39284 1.99597 7.33248 2.06012Z" fill="white"/>
</svg>
