<svg width="24" height="24" viewBox="0 0 24 24" fill="none" xmlns="http://www.w3.org/2000/svg">
<path d="M12 24C18.6274 24 24 18.6274 24 12C24 5.37258 18.6274 0 12 0C5.37258 0 0 5.37258 0 12C0 18.6274 5.37258 24 12 24Z" fill="#627EEA" fill-opacity="0.5"/>
<path d="M12.3735 3V9.65248L17.9962 12.165L12.3735 3Z" fill="white" fill-opacity="0.602"/>
<path d="M12.3735 3L6.75 12.165L12.3735 9.65248V3Z" fill="white"/>
<path d="M12.3735 16.476V20.9963L18 13.212L12.3735 16.476Z" fill="white" fill-opacity="0.602"/>
<path d="M12.3735 20.9963V16.4753L6.75 13.212L12.3735 20.9963Z" fill="white"/>
<path d="M12.3735 15.4296L17.9962 12.1648L12.3735 9.65381V15.4296Z" fill="white" fill-opacity="0.2"/>
<path d="M6.75 12.1648L12.3735 15.4296V9.65381L6.75 12.1648Z" fill="white" fill-opacity="0.602"/>
</svg>
