<svg width="16" height="16" viewBox="0 0 16 16" fill="none" xmlns="http://www.w3.org/2000/svg">
<path d="M7.99998 1.33333C6.68144 1.33333 5.39251 1.72432 4.29618 2.45686C3.19985 3.18941 2.34537 4.2306 1.84079 5.44877C1.3362 6.66695 1.20418 8.00739 1.46141 9.3006C1.71865 10.5938 2.35359 11.7817 3.28594 12.714C4.21829 13.6464 5.40617 14.2813 6.69938 14.5386C7.99259 14.7958 9.33303 14.6638 10.5512 14.1592C11.7694 13.6546 12.8106 12.8001 13.5431 11.7038C14.2757 10.6075 14.6666 9.31854 14.6666 8C14.6666 7.12452 14.4942 6.25761 14.1592 5.44877C13.8241 4.63993 13.3331 3.90501 12.714 3.28595C12.095 2.66689 11.36 2.17583 10.5512 1.8408C9.74237 1.50577 8.87546 1.33333 7.99998 1.33333ZM8.66665 13.2867V12.6667C8.66665 12.4899 8.59641 12.3203 8.47139 12.1953C8.34636 12.0702 8.17679 12 7.99998 12C7.82317 12 7.6536 12.0702 7.52858 12.1953C7.40355 12.3203 7.33332 12.4899 7.33332 12.6667V13.2867C6.15997 13.1379 5.06937 12.6033 4.23304 11.7669C3.39671 10.9306 2.86211 9.84001 2.71332 8.66666H3.33332C3.51013 8.66666 3.6797 8.59642 3.80472 8.4714C3.92974 8.34638 3.99998 8.17681 3.99998 8C3.99998 7.82318 3.92974 7.65361 3.80472 7.52859C3.6797 7.40357 3.51013 7.33333 3.33332 7.33333H2.71332C2.86211 6.15998 3.39671 5.06938 4.23304 4.23305C5.06937 3.39673 6.15997 2.86212 7.33332 2.71333V3.33333C7.33332 3.51014 7.40355 3.67971 7.52858 3.80473C7.6536 3.92976 7.82317 3.99999 7.99998 3.99999C8.17679 3.99999 8.34636 3.92976 8.47139 3.80473C8.59641 3.67971 8.66665 3.51014 8.66665 3.33333V2.71333C9.84 2.86212 10.9306 3.39673 11.7669 4.23305C12.6033 5.06938 13.1379 6.15998 13.2866 7.33333H12.6666C12.4898 7.33333 12.3203 7.40357 12.1952 7.52859C12.0702 7.65361 12 7.82318 12 8C12 8.17681 12.0702 8.34638 12.1952 8.4714C12.3203 8.59642 12.4898 8.66666 12.6666 8.66666H13.2866C13.1379 9.84001 12.6033 10.9306 11.7669 11.7669C10.9306 12.6033 9.84 13.1379 8.66665 13.2867ZM10.0933 5.03333L6.75998 6.44666C6.60459 6.51399 6.48065 6.63794 6.41332 6.79333L4.99998 10.1267C4.94748 10.2489 4.93275 10.3841 4.9577 10.5148C4.98265 10.6455 5.04613 10.7657 5.13998 10.86C5.26307 10.9856 5.4308 11.0575 5.60665 11.06C5.69889 11.0601 5.79 11.0396 5.87332 11L9.20665 9.58666C9.36204 9.51933 9.48599 9.39539 9.55332 9.24L10.9666 5.90666C11.0182 5.7845 11.0321 5.64975 11.0066 5.51964C10.9812 5.38952 10.9175 5.26995 10.8238 5.1762C10.73 5.08245 10.6105 5.01878 10.4803 4.99333C10.3502 4.96788 10.2155 4.98181 10.0933 5.03333ZM8.43332 8.43333L6.91332 9.09999L7.57998 7.58L9.09998 6.91333L8.43332 8.43333Z" fill="white"/>
</svg>
