<svg width="16" height="16" viewBox="0 0 16 16" fill="none" xmlns="http://www.w3.org/2000/svg">
<path d="M12.2813 5.472C12.2349 5.4273 12.1834 5.38819 12.1279 5.35546C12.0494 5.30924 11.9622 5.27961 11.8718 5.26842C11.7813 5.25723 11.6895 5.26471 11.6021 5.2904C11.5147 5.31609 11.4334 5.35944 11.3634 5.41778C11.2934 5.47611 11.2361 5.54819 11.195 5.62956C10.9654 6.08202 10.6486 6.48468 10.263 6.81445C10.322 6.48218 10.3517 6.14539 10.3519 5.80793C10.3531 4.78134 10.0823 3.77274 9.56697 2.88484C9.05166 1.99695 8.31027 1.26146 7.41827 0.753268C7.32001 0.697566 7.20921 0.667741 7.09626 0.666592C6.98332 0.665442 6.87193 0.693006 6.77256 0.746696C6.67318 0.800386 6.58908 0.878443 6.52813 0.973542C6.46719 1.06864 6.4314 1.17766 6.42413 1.29038C6.38683 1.9225 6.22158 2.54046 5.93839 3.10683C5.65521 3.67319 5.25999 4.17617 4.77669 4.58529L4.62304 4.71029C4.11765 5.05035 3.6703 5.46956 3.29817 5.95182C2.71972 6.68056 2.319 7.53405 2.12781 8.44461C1.93662 9.35517 1.96021 10.2977 2.1967 11.1976C2.4332 12.0975 2.8761 12.9298 3.49029 13.6287C4.10447 14.3276 4.87304 14.8738 5.73505 15.224C5.83626 15.2653 5.94609 15.2811 6.05486 15.27C6.16363 15.2589 6.26799 15.2212 6.35873 15.1602C6.44948 15.0992 6.52382 15.0168 6.5752 14.9203C6.62658 14.8238 6.65342 14.7161 6.65335 14.6068C6.65288 14.5361 6.64168 14.4658 6.62015 14.3984C6.471 13.8378 6.42805 13.2542 6.49352 12.6777C7.12435 13.8675 8.13695 14.8107 9.36852 15.3555C9.51885 15.4227 9.68879 15.4318 9.84541 15.3809C10.8185 15.0668 11.695 14.5091 12.3918 13.7609C13.0887 13.0126 13.5826 12.0986 13.8267 11.1057C14.0707 10.1128 14.0569 9.07399 13.7864 8.08795C13.5159 7.10191 12.9978 6.2014 12.2813 5.472Z" fill="#FF8766"/>
</svg>
