<svg width="24" height="24" viewBox="0 0 24 24" fill="none" xmlns="http://www.w3.org/2000/svg">
<rect width="24" height="24" rx="5" fill="#4CA0FF"/>
<path d="M12.1998 12.1468C12.5556 11.8389 12.8409 11.4581 13.0364 11.0302C13.232 10.6023 13.3332 10.1373 13.3332 9.66683C13.3332 8.78277 12.982 7.93493 12.3569 7.30981C11.7317 6.68469 10.8839 6.3335 9.99984 6.3335C9.11578 6.3335 8.26794 6.68469 7.64281 7.30981C7.01769 7.93493 6.6665 8.78277 6.6665 9.66683C6.6665 10.1373 6.76771 10.6023 6.96325 11.0302C7.1588 11.4581 7.44412 11.8389 7.79984 12.1468C6.8666 12.5694 6.07481 13.2518 5.51916 14.1125C4.9635 14.9732 4.66749 15.9757 4.6665 17.0002C4.6665 17.177 4.73674 17.3465 4.86177 17.4716C4.98679 17.5966 5.15636 17.6668 5.33317 17.6668C5.50998 17.6668 5.67955 17.5966 5.80458 17.4716C5.9296 17.3465 5.99984 17.177 5.99984 17.0002C5.99984 15.9393 6.42126 14.9219 7.17141 14.1717C7.92156 13.4216 8.93897 13.0002 9.99984 13.0002C11.0607 13.0002 12.0781 13.4216 12.8283 14.1717C13.5784 14.9219 13.9998 15.9393 13.9998 17.0002C13.9998 17.177 14.0701 17.3465 14.1951 17.4716C14.3201 17.5966 14.4897 17.6668 14.6665 17.6668C14.8433 17.6668 15.0129 17.5966 15.1379 17.4716C15.2629 17.3465 15.3332 17.177 15.3332 17.0002C15.3322 15.9757 15.0362 14.9732 14.4805 14.1125C13.9249 13.2518 13.1331 12.5694 12.1998 12.1468ZM9.99984 11.6668C9.60427 11.6668 9.2176 11.5495 8.8887 11.3298C8.5598 11.11 8.30345 10.7976 8.15208 10.4322C8.0007 10.0667 7.9611 9.66461 8.03827 9.27665C8.11544 8.88869 8.30592 8.53232 8.58562 8.25262C8.86533 7.97291 9.22169 7.78243 9.60966 7.70526C9.99762 7.62809 10.3998 7.6677 10.7652 7.81907C11.1307 7.97045 11.443 8.22679 11.6628 8.55569C11.8825 8.88459 11.9998 9.27127 11.9998 9.66683C11.9998 10.1973 11.7891 10.706 11.4141 11.081C11.039 11.4561 10.5303 11.6668 9.99984 11.6668ZM16.4932 11.8802C16.9198 11.3997 17.1985 10.8062 17.2957 10.1711C17.3929 9.53591 17.3045 8.88621 17.041 8.30016C16.7776 7.71411 16.3504 7.21669 15.8108 6.86778C15.2713 6.51886 14.6424 6.33332 13.9998 6.3335C13.823 6.3335 13.6535 6.40373 13.5284 6.52876C13.4034 6.65378 13.3332 6.82335 13.3332 7.00016C13.3332 7.17697 13.4034 7.34654 13.5284 7.47157C13.6535 7.59659 13.823 7.66683 13.9998 7.66683C14.5303 7.66683 15.039 7.87754 15.4141 8.25262C15.7891 8.62769 15.9998 9.1364 15.9998 9.66683C15.9989 10.017 15.906 10.3608 15.7305 10.6638C15.5551 10.9668 15.3031 11.2184 14.9998 11.3935C14.901 11.4505 14.8184 11.5319 14.7601 11.63C14.7017 11.728 14.6695 11.8394 14.6665 11.9535C14.6637 12.0667 14.6898 12.1787 14.7423 12.279C14.7948 12.3793 14.8719 12.4646 14.9665 12.5268L15.2265 12.7002L15.3132 12.7468C16.1168 13.128 16.7947 13.7308 17.2672 14.4844C17.7396 15.2379 17.9869 16.1108 17.9798 17.0002C17.9798 17.177 18.0501 17.3465 18.1751 17.4716C18.3001 17.5966 18.4697 17.6668 18.6465 17.6668C18.8233 17.6668 18.9929 17.5966 19.1179 17.4716C19.2429 17.3465 19.3132 17.177 19.3132 17.0002C19.3186 15.9771 19.0624 14.9697 18.5688 14.0735C18.0752 13.1774 17.3607 12.4224 16.4932 11.8802Z" fill="#2A2938"/>
</svg>
