<svg width="16" height="16" viewBox="0 0 16 16" fill="none" xmlns="http://www.w3.org/2000/svg">
<path d="M13.4399 3.33333C12.7332 2.6248 11.7964 2.19235 10.7988 2.11411C9.80111 2.03586 8.80837 2.31697 7.99986 2.90666C7.15163 2.27575 6.09585 1.98967 5.04514 2.10602C3.99442 2.22237 3.02682 2.73251 2.33717 3.53372C1.64753 4.33492 1.28707 5.36767 1.32839 6.424C1.36971 7.48033 1.80974 8.48177 2.55986 9.22666L6.69986 13.3733C7.04654 13.7145 7.51345 13.9057 7.99986 13.9057C8.48627 13.9057 8.95318 13.7145 9.29986 13.3733L13.4399 9.22666C14.2182 8.44351 14.6551 7.38418 14.6551 6.27999C14.6551 5.17581 14.2182 4.11648 13.4399 3.33333Z" fill="#565572"/>
</svg>
