<svg width="24" height="24" viewBox="0 0 24 24" fill="none" xmlns="http://www.w3.org/2000/svg">
<path fill-rule="evenodd" clip-rule="evenodd" d="M12 1.99998C17.5228 1.99998 22 6.47714 22 12C22 17.5228 17.5228 22 12 22C6.47715 22 2 17.5228 2 12C2 6.47714 6.47715 1.99998 12 1.99998ZM11.3055 8.28935C11.5111 8.4267 11.7528 8.50002 12 8.50002C12.3315 8.50002 12.6495 8.36832 12.8839 8.1339C13.1183 7.89948 13.25 7.58154 13.25 7.25002C13.25 7.00279 13.1767 6.76111 13.0393 6.55555C12.902 6.34999 12.7068 6.18977 12.4784 6.09517C12.2499 6.00056 11.9986 5.9758 11.7561 6.02403C11.5137 6.07227 11.2909 6.19132 11.1161 6.36613C10.9413 6.54095 10.8223 6.76368 10.774 7.00615C10.7258 7.24863 10.7505 7.49996 10.8452 7.72837C10.9398 7.95678 11.1 8.152 11.3055 8.28935ZM12.7071 10.2929C12.5196 10.1054 12.2652 10 12 10C11.7348 10 11.4804 10.1054 11.2929 10.2929C11.1054 10.4804 11 10.7348 11 11V16C11 16.2652 11.1054 16.5196 11.2929 16.7071C11.4804 16.8947 11.7348 17 12 17C12.2652 17 12.5196 16.8947 12.7071 16.7071C12.8946 16.5196 13 16.2652 13 16V11C13 10.7348 12.8946 10.4804 12.7071 10.2929Z" fill="#A78BFA"/>
</svg>
