<svg width="16" height="16" viewBox="0 0 12 12" fill="none" xmlns="http://www.w3.org/2000/svg">
<path d="M6 4.76003C5.75475 4.76003 5.51501 4.83276 5.31109 4.96901C5.10718 5.10526 4.94824 5.29892 4.85439 5.5255C4.76054 5.75208 4.73598 6.00141 4.78383 6.24194C4.83167 6.48248 4.94977 6.70343 5.12319 6.87684C5.29661 7.05026 5.51755 7.16836 5.75809 7.21621C5.99863 7.26405 6.24795 7.23949 6.47453 7.14564C6.70111 7.05179 6.89477 6.89286 7.03102 6.68894C7.16728 6.48502 7.24 6.24528 7.24 6.00003C7.24 5.83719 7.20793 5.67595 7.14561 5.5255C7.0833 5.37506 6.99196 5.23836 6.87681 5.12322C6.76167 5.00807 6.62497 4.91674 6.47453 4.85442C6.32408 4.7921 6.16284 4.76003 6 4.76003ZM10.965 3.53503C10.9624 3.14891 10.8913 2.76632 10.755 2.40503C10.6546 2.14066 10.4994 1.90058 10.2994 1.70062C10.0995 1.50067 9.85937 1.34539 9.595 1.24503C9.23372 1.10876 8.85112 1.03766 8.465 1.03503C7.82 1.00003 7.63 1.00003 6 1.00003C4.37 1.00003 4.18 1.00003 3.535 1.03503C3.14888 1.03766 2.76629 1.10876 2.405 1.24503C2.14063 1.34539 1.90055 1.50067 1.70059 1.70062C1.50064 1.90058 1.34536 2.14066 1.245 2.40503C1.10873 2.76632 1.03763 3.14891 1.035 3.53503C1 4.18003 1 4.37003 1 6.00003C1 7.63003 1 7.82003 1.035 8.46503C1.04038 8.85251 1.11139 9.23628 1.245 9.60003C1.34491 9.86319 1.50006 10.1019 1.7 10.3C1.8991 10.5012 2.13969 10.6565 2.405 10.755C2.76629 10.8913 3.14888 10.9624 3.535 10.965C4.18 11 4.37 11 6 11C7.63 11 7.82 11 8.465 10.965C8.85112 10.9624 9.23372 10.8913 9.595 10.755C9.86031 10.6565 10.1009 10.5012 10.3 10.3C10.4999 10.1019 10.6551 9.86319 10.755 9.60003C10.8911 9.23697 10.9622 8.85276 10.965 8.46503C11 7.82003 11 7.63003 11 6.00003C11 4.37003 11 4.18003 10.965 3.53503ZM9.695 7.53503C9.67896 7.84358 9.6131 8.14751 9.5 8.43503C9.40294 8.67487 9.25863 8.89275 9.07568 9.07571C8.89272 9.25866 8.67484 9.40297 8.435 9.50003C8.14476 9.60683 7.83914 9.66593 7.53 9.67503C7.135 9.67503 7.03 9.67503 6 9.67503C4.97 9.67503 4.865 9.67503 4.47 9.67503C4.16087 9.66593 3.85524 9.60683 3.565 9.50003C3.31705 9.40789 3.09314 9.26089 2.91 9.07003C2.72883 8.89066 2.58892 8.67397 2.5 8.43503C2.39278 8.14509 2.3353 7.83912 2.33 7.53003C2.33 7.13503 2.33 7.03003 2.33 6.00003C2.33 4.97003 2.33 4.86503 2.33 4.47003C2.3353 4.16094 2.39278 3.85497 2.5 3.56503C2.59214 3.31708 2.73914 3.09317 2.93 2.91003C3.11017 2.72984 3.32663 2.59008 3.565 2.50003C3.85524 2.39323 4.16087 2.33414 4.47 2.32503C4.865 2.32503 4.97 2.32503 6 2.32503C7.03 2.32503 7.135 2.32503 7.53 2.32503C7.83914 2.33414 8.14476 2.39323 8.435 2.50003C8.68295 2.59217 8.90686 2.73917 9.09 2.93003C9.27117 3.10941 9.41108 3.3261 9.5 3.56503C9.6068 3.85527 9.6659 4.1609 9.675 4.47003C9.675 4.86503 9.675 4.97003 9.675 6.00003C9.675 7.03003 9.71 7.13503 9.695 7.53003V7.53503ZM8.895 3.81503C8.83547 3.65352 8.74161 3.50685 8.61989 3.38514C8.49818 3.26342 8.35151 3.16956 8.19 3.11003C7.96824 3.03316 7.73467 2.99593 7.5 3.00003C7.11 3.00003 7 3.00003 6 3.00003C5 3.00003 4.89 3.00003 4.5 3.00003C4.26413 3.00234 4.03053 3.04635 3.81 3.13003C3.65096 3.18686 3.50585 3.27689 3.38429 3.39413C3.26274 3.51138 3.16753 3.65315 3.105 3.81003C3.03239 4.03271 2.99691 4.26583 3 4.50003C3 4.89003 3 5.00003 3 6.00003C3 7.00003 3 7.11003 3 7.50003C3.00496 7.73563 3.04888 7.96878 3.13 8.19003C3.18953 8.35154 3.28339 8.49821 3.40511 8.61992C3.52682 8.74164 3.67349 8.8355 3.835 8.89503C4.04833 8.97349 4.27283 9.01737 4.5 9.02503C4.89 9.02503 5 9.02503 6 9.02503C7 9.02503 7.11 9.02503 7.5 9.02503C7.73587 9.02273 7.96947 8.97871 8.19 8.89503C8.35151 8.8355 8.49818 8.74164 8.61989 8.61992C8.74161 8.49821 8.83547 8.35154 8.895 8.19003C8.97868 7.9695 9.0227 7.7359 9.025 7.50003C9.025 7.11003 9.025 7.00003 9.025 6.00003C9.025 5.00003 9.025 4.89003 9.025 4.50003C9.02515 4.26393 8.98105 4.02989 8.895 3.81003V3.81503ZM6 7.91003C5.74941 7.91003 5.50128 7.86059 5.26983 7.76454C5.03838 7.6685 4.82815 7.52773 4.65119 7.3503C4.47423 7.17288 4.33401 6.96228 4.23857 6.73058C4.14313 6.49888 4.09434 6.25062 4.095 6.00003C4.095 5.62206 4.20715 5.25258 4.41724 4.93837C4.62734 4.62417 4.92594 4.37936 5.27523 4.23495C5.62453 4.09053 6.00883 4.053 6.37947 4.12711C6.75011 4.20121 7.09043 4.38362 7.35734 4.65123C7.62426 4.91885 7.80578 5.25965 7.87891 5.63048C7.95204 6.00132 7.9135 6.38551 7.76817 6.73443C7.62284 7.08335 7.37725 7.3813 7.0625 7.59057C6.74774 7.79984 6.37797 7.91102 6 7.91003ZM8 4.46503C7.88947 4.45333 7.78718 4.40114 7.71284 4.31852C7.6385 4.23589 7.59737 4.12868 7.59737 4.01753C7.59737 3.90638 7.6385 3.79917 7.71284 3.71655C7.78718 3.63392 7.88947 3.58173 8 3.57003C8.11053 3.58173 8.21282 3.63392 8.28716 3.71655C8.3615 3.79917 8.40263 3.90638 8.40263 4.01753C8.40263 4.12868 8.3615 4.23589 8.28716 4.31852C8.21282 4.40114 8.11053 4.45333 8 4.46503Z" fill="#8B5CF6"/>
</svg>
