<svg width="24" height="24" viewBox="0 0 24 24" fill="none" xmlns="http://www.w3.org/2000/svg">
<rect width="24" height="24" rx="5" fill="#FF714D"/>
<path d="M17.4399 7.33328C16.7332 6.62475 15.7964 6.19231 14.7988 6.11406C13.8011 6.03581 12.8084 6.31692 11.9999 6.90661C11.1516 6.27571 10.0959 5.98962 9.04514 6.10597C7.99442 6.22232 7.02682 6.73247 6.33717 7.53367C5.64753 8.33488 5.28707 9.36763 5.32839 10.424C5.36971 11.4803 5.80974 12.4817 6.55986 13.2266L10.6999 17.3733C11.0465 17.7145 11.5134 17.9057 11.9999 17.9057C12.4863 17.9057 12.9532 17.7145 13.2999 17.3733L17.4399 13.2266C18.2182 12.4435 18.6551 11.3841 18.6551 10.2799C18.6551 9.17577 18.2182 8.11644 17.4399 7.33328ZM16.4999 12.3066L12.3599 16.4466C12.3127 16.4942 12.2567 16.5319 12.1949 16.5577C12.1331 16.5835 12.0668 16.5968 11.9999 16.5968C11.9329 16.5968 11.8666 16.5835 11.8048 16.5577C11.743 16.5319 11.687 16.4942 11.6399 16.4466L7.49986 12.2866C6.97703 11.7522 6.68426 11.0343 6.68426 10.2866C6.68426 9.53897 6.97703 8.82105 7.49986 8.28661C8.03263 7.76061 8.75117 7.46566 9.49986 7.46566C10.2485 7.46566 10.9671 7.76061 11.4999 8.28661C11.5618 8.3491 11.6356 8.3987 11.7168 8.43254C11.798 8.46639 11.8852 8.48381 11.9732 8.48381C12.0612 8.48381 12.1483 8.46639 12.2296 8.43254C12.3108 8.3987 12.3845 8.3491 12.4465 8.28661C12.9793 7.76061 13.6978 7.46566 14.4465 7.46566C15.1952 7.46566 15.9138 7.76061 16.4465 8.28661C16.9765 8.81405 17.2789 9.52807 17.2889 10.2757C17.2989 11.0234 17.0156 11.7452 16.4999 12.2866V12.3066Z" fill="#2A2938"/>
</svg>
