<svg width="16" height="16" viewBox="0 0 16 16"  fill="#A6A4BC" xmlns="http://www.w3.org/2000/svg">
<path d="M13.4399 3.33328C12.7332 2.62475 11.7964 2.19231 10.7988 2.11406C9.80111 2.03581 8.80837 2.31692 7.99986 2.90661C7.15163 2.27571 6.09585 1.98962 5.04514 2.10597C3.99442 2.22232 3.02682 2.73247 2.33717 3.53367C1.64753 4.33488 1.28707 5.36763 1.32839 6.42396C1.36971 7.48029 1.80974 8.48173 2.55986 9.22661L6.69986 13.3733C7.04654 13.7145 7.51345 13.9057 7.99986 13.9057C8.48627 13.9057 8.95318 13.7145 9.29986 13.3733L13.4399 9.22661C14.2182 8.44346 14.6551 7.38413 14.6551 6.27995C14.6551 5.17577 14.2182 4.11644 13.4399 3.33328Z"/>
</svg>
