<svg width="16" height="16" viewBox="0 0 16 16" fill="none" xmlns="http://www.w3.org/2000/svg">
<path d="M11.9999 7.21333C11.8231 7.21333 11.6535 7.28357 11.5285 7.40859C11.4035 7.53361 11.3333 7.70318 11.3333 7.87999V12.6667C11.3333 12.8435 11.263 13.013 11.138 13.1381C11.013 13.2631 10.8434 13.3333 10.6666 13.3333H3.33325C3.15644 13.3333 2.98687 13.2631 2.86185 13.1381C2.73682 13.013 2.66659 12.8435 2.66659 12.6667V5.33333C2.66659 5.15652 2.73682 4.98695 2.86185 4.86192C2.98687 4.7369 3.15644 4.66666 3.33325 4.66666H8.11992C8.29673 4.66666 8.4663 4.59642 8.59132 4.4714C8.71635 4.34638 8.78659 4.17681 8.78659 3.99999C8.78659 3.82318 8.71635 3.65361 8.59132 3.52859C8.4663 3.40357 8.29673 3.33333 8.11992 3.33333H3.33325C2.80282 3.33333 2.29411 3.54404 1.91904 3.91911C1.54397 4.29419 1.33325 4.8029 1.33325 5.33333V12.6667C1.33325 13.1971 1.54397 13.7058 1.91904 14.0809C2.29411 14.4559 2.80282 14.6667 3.33325 14.6667H10.6666C11.197 14.6667 11.7057 14.4559 12.0808 14.0809C12.4559 13.7058 12.6666 13.1971 12.6666 12.6667V7.87999C12.6666 7.70318 12.5963 7.53361 12.4713 7.40859C12.3463 7.28357 12.1767 7.21333 11.9999 7.21333ZM14.6133 1.74666C14.5456 1.58376 14.4162 1.45431 14.2533 1.38666C14.1731 1.3525 14.087 1.33438 13.9999 1.33333H9.99992C9.82311 1.33333 9.65354 1.40357 9.52851 1.52859C9.40349 1.65361 9.33325 1.82318 9.33325 1.99999C9.33325 2.17681 9.40349 2.34638 9.52851 2.4714C9.65354 2.59642 9.82311 2.66666 9.99992 2.66666H12.3933L5.52659 9.52666C5.4641 9.58864 5.4145 9.66237 5.38066 9.74361C5.34681 9.82485 5.32939 9.91199 5.32939 10C5.32939 10.088 5.34681 10.1751 5.38066 10.2564C5.4145 10.3376 5.4641 10.4114 5.52659 10.4733C5.58856 10.5358 5.66229 10.5854 5.74353 10.6193C5.82477 10.6531 5.91191 10.6705 5.99992 10.6705C6.08793 10.6705 6.17506 10.6531 6.2563 10.6193C6.33754 10.5854 6.41128 10.5358 6.47325 10.4733L13.3333 3.60666V6C13.3333 6.17681 13.4035 6.34637 13.5285 6.4714C13.6535 6.59642 13.8231 6.66666 13.9999 6.66666C14.1767 6.66666 14.3463 6.59642 14.4713 6.4714C14.5963 6.34637 14.6666 6.17681 14.6666 6V1.99999C14.6655 1.91288 14.6474 1.82681 14.6133 1.74666Z" fill="white"/>
</svg>
