<svg width="24" height="24" viewBox="0 0 24 24" fill="none" xmlns="http://www.w3.org/2000/svg">
<rect width="24" height="24" rx="5" fill="#55E0FF"/>
<path d="M9.00017 8.00017C8.80239 8.00017 8.60905 8.05882 8.4446 8.1687C8.28015 8.27859 8.15198 8.43476 8.07629 8.61749C8.00061 8.80022 7.9808 9.00128 8.01939 9.19526C8.05797 9.38925 8.15321 9.56743 8.29307 9.70728C8.43292 9.84713 8.6111 9.94237 8.80508 9.98096C8.99906 10.0195 9.20013 9.99974 9.38286 9.92405C9.56558 9.84837 9.72176 9.72019 9.83164 9.55574C9.94153 9.39129 10.0002 9.19796 10.0002 9.00017C10.0002 8.73496 9.89482 8.4806 9.70728 8.29307C9.51974 8.10553 9.26539 8.00017 9.00017 8.00017ZM18.0802 11.1402L12.4735 5.52684C12.4112 5.46505 12.3373 5.41617 12.2561 5.38299C12.1749 5.34982 12.0879 5.333 12.0002 5.33351H6.00017C5.82336 5.33351 5.65379 5.40375 5.52877 5.52877C5.40375 5.65379 5.33351 5.82336 5.33351 6.00017V12.0002C5.333 12.0879 5.34982 12.1749 5.38299 12.2561C5.41617 12.3373 5.46505 12.4112 5.52684 12.4735L11.1402 18.0802C11.5152 18.4547 12.0235 18.6651 12.5535 18.6651C13.0835 18.6651 13.5918 18.4547 13.9668 18.0802L18.0802 14.0002C18.4547 13.6252 18.6651 13.1168 18.6651 12.5868C18.6651 12.0568 18.4547 11.5485 18.0802 11.1735V11.1402ZM17.1402 13.0202L13.0202 17.1335C12.8953 17.2577 12.7263 17.3274 12.5502 17.3274C12.3741 17.3274 12.2051 17.2577 12.0802 17.1335L6.66684 11.7268V6.66684H11.7268L17.1402 12.0802C17.202 12.1425 17.2508 12.2163 17.284 12.2976C17.3172 12.3788 17.334 12.4658 17.3335 12.5535C17.3328 12.7284 17.2633 12.896 17.1402 13.0202Z" fill="#2A2938"/>
</svg>
