<svg width="16" height="16" viewBox="0 0 16 16" fill="none" xmlns="http://www.w3.org/2000/svg">
<path d="M8.00033 8.66667C7.79736 8.6643 7.59854 8.72416 7.43062 8.8382C7.2627 8.95225 7.13376 9.11499 7.06113 9.30454C6.98851 9.49408 6.9757 9.70133 7.02442 9.89837C7.07315 10.0954 7.18107 10.2728 7.33366 10.4067V11.3333C7.33366 11.5101 7.4039 11.6797 7.52892 11.8047C7.65394 11.9298 7.82351 12 8.00033 12C8.17714 12 8.34671 11.9298 8.47173 11.8047C8.59675 11.6797 8.66699 11.5101 8.66699 11.3333V10.4067C8.81958 10.2728 8.9275 10.0954 8.97623 9.89837C9.02495 9.70133 9.01214 9.49408 8.93952 9.30454C8.86689 9.11499 8.73795 8.95225 8.57003 8.8382C8.40212 8.72416 8.20329 8.6643 8.00033 8.66667ZM11.3337 6V4.66667C11.3337 3.78261 10.9825 2.93477 10.3573 2.30964C9.73223 1.68452 8.88438 1.33333 8.00033 1.33333C7.11627 1.33333 6.26842 1.68452 5.6433 2.30964C5.01818 2.93477 4.66699 3.78261 4.66699 4.66667V6C4.13656 6 3.62785 6.21071 3.25278 6.58579C2.87771 6.96086 2.66699 7.46957 2.66699 8V12.6667C2.66699 13.1971 2.87771 13.7058 3.25278 14.0809C3.62785 14.456 4.13656 14.6667 4.66699 14.6667H11.3337C11.8641 14.6667 12.3728 14.456 12.7479 14.0809C13.1229 13.7058 13.3337 13.1971 13.3337 12.6667V8C13.3337 7.46957 13.1229 6.96086 12.7479 6.58579C12.3728 6.21071 11.8641 6 11.3337 6ZM6.00033 4.66667C6.00033 4.13623 6.21104 3.62753 6.58611 3.25245C6.96118 2.87738 7.46989 2.66667 8.00033 2.66667C8.53076 2.66667 9.03947 2.87738 9.41454 3.25245C9.78961 3.62753 10.0003 4.13623 10.0003 4.66667V6H6.00033V4.66667ZM12.0003 12.6667C12.0003 12.8435 11.9301 13.013 11.8051 13.1381C11.68 13.2631 11.5105 13.3333 11.3337 13.3333H4.66699C4.49018 13.3333 4.32061 13.2631 4.19559 13.1381C4.07056 13.013 4.00033 12.8435 4.00033 12.6667V8C4.00033 7.82319 4.07056 7.65362 4.19559 7.5286C4.32061 7.40357 4.49018 7.33333 4.66699 7.33333H11.3337C11.5105 7.33333 11.68 7.40357 11.8051 7.5286C11.9301 7.65362 12.0003 7.82319 12.0003 8V12.6667Z" fill="#C4B5FD"/>
</svg>
