<svg width="40" height="40" viewBox="0 0 40 40" fill="none" xmlns="http://www.w3.org/2000/svg">
<path d="M39.9999 36.1576C40 36.6596 39.901 37.1568 39.7088 37.6206C39.5166 38.0845 39.2349 38.5059 38.8797 38.8609C38.5245 39.2159 38.1028 39.4975 37.6387 39.6897C37.1746 39.8818 36.6773 39.9807 36.1749 39.9806C35.6726 39.9806 35.1753 39.8817 34.7112 39.6896C34.2471 39.4975 33.8255 39.2159 33.4703 38.8609C33.1151 38.5059 32.8334 38.0844 32.6412 37.6206C32.449 37.1568 32.3501 36.6596 32.3501 36.1576V35.7116C34.7393 33.8379 36.669 31.4439 37.9923 28.7119C39.3155 25.9799 39.9974 22.982 39.9859 19.9468" fill="url(#paint0_linear_5929_39904)"/>
<g style="mix-blend-mode:multiply" opacity="0.2">
<path d="M39.9862 19.998L32.3489 34.299V36.275C32.3618 36.5925 32.4112 36.9075 32.496 37.2138C38.3319 32.642 39.9862 26.1988 39.9862 19.998Z" fill="black"/>
</g>
<path d="M32.3871 3.83913V4.28515C28.6562 1.33938 23.9938 -0.174905 19.2431 0.0160927C14.3713 0.355273 9.77551 2.40172 6.26509 5.79501C2.75467 9.1883 0.55479 13.7108 0.05288 18.566C-0.142454 21.245 0.204621 23.9358 1.07336 26.4776C1.9421 29.0194 3.31466 31.3601 5.10902 33.3597C6.90337 35.3594 9.08268 36.9769 11.5167 38.1156C13.9507 39.2543 16.5894 39.8908 19.2751 39.9871C21.9608 40.0835 24.6384 39.6376 27.1478 38.6762C29.6571 37.7147 31.9468 36.2575 33.88 34.3916C35.8131 32.5256 37.35 30.2893 38.3987 27.8162C39.4475 25.3431 39.9867 22.6841 39.9839 19.9981V3.83913C39.984 2.83427 39.5883 1.86976 38.8823 1.1543C38.1763 0.438834 37.2169 0.0299437 36.2116 0.0160927C35.7093 0.0160927 35.2119 0.11498 34.7479 0.307108C34.2838 0.499235 33.8622 0.780841 33.507 1.13585C33.1518 1.49085 32.8701 1.9123 32.6779 2.37613C32.4857 2.83996 32.3868 3.33709 32.3868 3.83913H32.3871ZM25.9071 16.1625C25.8898 16.2865 25.8473 16.4057 25.7823 16.5128C25.7173 16.6199 25.631 16.7125 25.5289 16.7851C25.4268 16.8577 25.3109 16.9087 25.1883 16.9349C25.0658 16.9611 24.9392 16.962 24.8162 16.9375C24.4827 16.8738 24.1437 16.843 23.8041 16.8455C23.2999 16.7977 22.7913 16.8611 22.3144 17.0314C21.8374 17.2016 21.4037 17.4746 21.0439 17.8309C20.3938 18.7964 20.0967 19.9563 20.2027 21.1153V26.5935C20.2027 26.8305 20.1085 27.0577 19.9409 27.2252C19.7733 27.3928 19.5459 27.4869 19.3089 27.4869H16.8771C16.6401 27.4869 16.4127 27.3928 16.2451 27.2252C16.0775 27.0577 15.9833 26.8305 15.9833 26.5935V13.8902C15.9833 13.6533 16.0775 13.4261 16.2451 13.2585C16.4127 13.091 16.6401 12.9969 16.8771 12.9969H19.2168C19.3364 12.9968 19.4548 13.0208 19.565 13.0673C19.6752 13.1138 19.775 13.182 19.8583 13.2678C19.9417 13.3535 20.0069 13.4551 20.0503 13.5666C20.0936 13.678 20.1141 13.797 20.1106 13.9165L20.0445 16.7279C20.3485 15.5276 20.9811 14.4358 21.8715 13.5749C22.6855 12.8663 23.7371 12.4908 24.8161 12.5236L25.4995 12.5897C25.6173 12.6042 25.731 12.6421 25.834 12.701C25.937 12.76 26.0273 12.8388 26.0995 12.933C26.1717 13.0272 26.2244 13.1348 26.2545 13.2495C26.2846 13.3643 26.2916 13.4839 26.275 13.6013L25.9071 16.1625Z" fill="url(#paint1_linear_5929_39904)"/>
<defs>
<linearGradient id="paint0_linear_5929_39904" x1="36.175" y1="19.9468" x2="36.175" y2="39.9806" gradientUnits="userSpaceOnUse">
<stop stop-color="#F7F6FF"/>
<stop offset="1" stop-color="white"/>
</linearGradient>
<linearGradient id="paint1_linear_5929_39904" x1="19.992" y1="0" x2="19.992" y2="40" gradientUnits="userSpaceOnUse">
<stop stop-color="#EAEAF5"/>
<stop offset="1" stop-color="white"/>
</linearGradient>
</defs>
</svg>
