<svg width="16" height="16" viewBox="0 0 12 12" fill="none" xmlns="http://www.w3.org/2000/svg">
<path d="M10.6045 3.20832H11V2.04163H7.25989L6.01697 6.62494H5.98297L4.75135 2.04163H1V3.20829H1.38419C1.473 3.22274 1.5554 3.26361 1.62065 3.32558C1.6859 3.38754 1.73098 3.46772 1.75 3.55567V8.47083C1.7298 8.55562 1.68374 8.63204 1.61821 8.68951C1.55267 8.74699 1.47089 8.78267 1.38419 8.79163H1V9.95832H4V8.79163H3.25V3.62497H3.29376L5.02255 9.95832H6.37855L8.12995 3.62497H8.16672V8.79163H7.41669V9.95832H11V8.79163H10.6045C10.5198 8.7806 10.4405 8.74398 10.3771 8.68665C10.3138 8.62933 10.2694 8.55403 10.25 8.47083V3.5557C10.2684 3.46934 10.3118 3.39033 10.3749 3.32854C10.4379 3.26675 10.5178 3.22493 10.6045 3.20832Z" fill="#A78BFA"/>
</svg>
