<svg width="24" height="24" viewBox="0 0 24 24" fill="none" xmlns="http://www.w3.org/2000/svg">
<path d="M12 24C18.6274 24 24 18.6274 24 12C24 5.37258 18.6274 0 12 0C5.37258 0 0 5.37258 0 12C0 18.6274 5.37258 24 12 24Z" fill="#233447"/>
<path d="M18.5886 5.61182L12.9902 9.7187L14.0311 7.29844L18.5886 5.61182Z" fill="#E17726" stroke="#E17726" stroke-width="0.25" stroke-linecap="round" stroke-linejoin="round"/>
<path d="M5.67452 5.61182L11.2231 9.75714L10.232 7.29844L5.67452 5.61182ZM16.5726 15.1348L15.0828 17.3906L18.2725 18.2612L19.1859 15.1838L16.5726 15.1348ZM5.08203 15.1838L5.98995 18.2612L9.17408 17.3906L7.69028 15.1344L5.08203 15.1838Z" fill="#E27625" stroke="#E27625" stroke-width="0.25" stroke-linecap="round" stroke-linejoin="round"/>
<path d="M9.00251 11.3232L8.11719 12.6482L11.2736 12.7905L11.1683 9.42237L9.00251 11.3232ZM15.2599 11.3232L13.0617 9.38477L12.9897 12.791L16.1461 12.6485L15.2599 11.3232ZM9.1743 17.3906L11.0848 16.476L9.44028 15.2057L9.1743 17.3906ZM13.1781 16.476L15.083 17.3906L14.823 15.2057L13.1781 16.476Z" fill="#E27625" stroke="#E27625" stroke-width="0.25" stroke-linecap="round" stroke-linejoin="round"/>
<path d="M15.0846 17.3906L13.1792 16.4761L13.3347 17.703L13.3177 18.2227L15.0846 17.3906ZM9.17578 17.3906L10.9477 18.2232L10.9366 17.703L11.0863 16.4761L9.17578 17.3906Z" fill="#D5BFB2" stroke="#D5BFB2" stroke-width="0.25" stroke-linecap="round" stroke-linejoin="round"/>
<path d="M10.98 14.3954L9.39648 13.9355L10.515 13.4263L10.98 14.3954ZM13.2839 14.3954L13.7486 13.4263L14.873 13.9355L13.2839 14.3954Z" fill="#233447" stroke="#233447" stroke-width="0.25" stroke-linecap="round" stroke-linejoin="round"/>
<path d="M9.17519 17.3908L9.45226 15.1351L7.69141 15.184L9.17519 17.3908ZM14.8125 15.1351L15.0839 17.3908L16.5732 15.184L14.8125 15.1351ZM16.1475 12.6484L12.9906 12.7912L13.2843 14.3955L13.7489 13.4264L14.8733 13.9357L16.1475 12.6484ZM9.39685 13.9357L10.5153 13.4264L10.9804 14.3955L11.2741 12.7912L8.11766 12.6488L9.39685 13.9357Z" fill="#CC6228" stroke="#CC6228" stroke-width="0.25" stroke-linecap="round" stroke-linejoin="round"/>
<path d="M8.11719 12.6484L9.4407 15.206L9.39638 13.9357L8.11719 12.6484ZM14.8729 13.9357L14.8231 15.206L16.1466 12.6488L14.8729 13.9357ZM11.2736 12.7912L10.9799 14.3955L11.3508 16.2904L11.4343 13.7929L11.2736 12.7912ZM12.9901 12.7912L12.8349 13.7877L12.9126 16.2904L13.2834 14.3955L12.9901 12.7912Z" fill="#E27525" stroke="#E27525" stroke-width="0.25" stroke-linecap="round" stroke-linejoin="round"/>
<path d="M13.2839 14.3954L12.9131 16.2903L13.1787 16.4762L14.8232 15.2059L14.873 13.9355L13.2839 14.3954ZM9.39648 13.9355L9.44083 15.2059L11.0853 16.4762L11.3513 16.2903L10.9804 14.3954L9.39648 13.9355Z" fill="#F5841F" stroke="#F5841F" stroke-width="0.25" stroke-linecap="round" stroke-linejoin="round"/>
<path d="M13.3177 18.2232L13.3347 17.7029L13.1906 17.5825H11.0752L10.9366 17.7029L10.9477 18.2227L9.17578 17.3906L9.79598 17.8944L11.0534 18.7543H13.2073L14.4698 17.8944L15.0846 17.3906L13.3177 18.2232Z" fill="#C0AC9D" stroke="#C0AC9D" stroke-width="0.25" stroke-linecap="round" stroke-linejoin="round"/>
<path d="M13.1796 16.476L12.9136 16.29H11.3527L11.0867 16.476L10.9375 17.7028L11.0756 17.5823H13.1911L13.3351 17.7028L13.1796 16.476Z" fill="#161616" stroke="#161616" stroke-width="0.25" stroke-linecap="round" stroke-linejoin="round"/>
<path d="M18.8273 9.98704L19.2975 7.72061L18.589 5.61182L13.179 9.58176L15.2613 11.3229L18.2016 12.1723L18.8495 11.4218L18.5669 11.2189L19.0157 10.8141L18.6722 10.5512L19.1206 10.2115L18.8273 9.98704ZM4.9668 7.72019L5.44292 9.98704L5.13858 10.2119L5.59254 10.5512L5.2494 10.8141L5.69783 11.2194L5.41521 11.4222L6.06312 12.172L9.00385 11.3233L11.0857 9.58218L5.67566 5.61182L4.9668 7.72019Z" fill="#763E1A" stroke="#763E1A" stroke-width="0.25" stroke-linecap="round" stroke-linejoin="round"/>
<path d="M18.2009 12.1719L15.2606 11.3232L16.1463 12.6485L14.8229 15.2057L16.5731 15.1837H19.1864L18.2009 12.1719ZM9.00272 11.3232L6.06242 12.1719L5.08203 15.1837H7.69071L9.44049 15.2057L8.11696 12.6485L9.00272 11.3232ZM12.99 12.7909L13.1784 9.58167L14.0309 7.29834H10.2325L11.085 9.58167L11.2734 12.7909L11.3454 13.7985L11.351 16.2901H12.9123L12.9179 13.7985L12.99 12.7909Z" fill="#F5841F" stroke="#F5841F" stroke-width="0.25" stroke-linecap="round" stroke-linejoin="round"/>
</svg>
