<svg width="148" height="18" viewBox="0 0 148 18" fill="none" xmlns="http://www.w3.org/2000/svg">
<path d="M29.1847 12.707L22.8548 1.72713C21.4672 -0.561354 18.0831 -0.5857 16.7441 1.8245L10.0978 13.2426C8.85613 15.3363 10.3899 17.9656 12.8732 17.9656H26.1902C28.6978 17.9656 30.5724 15.2632 29.1847 12.707Z" fill="#00B897"/>
<path d="M20.055 13.5591L19.6655 12.8774C19.3003 12.2444 18.4969 10.8811 18.4969 10.8811L13.1409 1.58111C11.7532 -0.488266 8.46657 -0.658686 7.07887 1.94629L0.846415 12.7314C-0.443899 14.9955 1.08987 17.9413 3.88961 17.9657H17.1335H22.7817H26.1414C22.7087 17.99 21.6132 16.2127 20.055 13.5591Z" fill="#76FCB2"/>
<path d="M20.055 13.559L19.6655 12.8774C19.3003 12.2444 18.4969 10.8811 18.4969 10.8811L15.0398 4.79466L10.0733 13.2669C8.83175 15.3606 10.3655 17.9899 12.8488 17.9899H17.1092H22.7574H26.1414C22.6844 17.9656 21.6131 16.2127 20.055 13.559Z" fill="url(#paint0_linear_9854_51686)"/>
<path d="M146.57 17.1133C145.669 17.1133 144.963 16.9186 144.427 16.5777C143.867 16.2126 143.575 15.6769 143.575 14.9465V4.33189H144.987C145.499 4.33189 145.937 4.74577 145.937 5.28137V14.63C145.937 14.6544 145.937 15.0926 146.302 15.4578C146.52 15.6769 146.789 15.7986 147.153 15.7986H147.422C147.519 15.7986 147.616 15.896 147.616 15.9934V17.1377L146.57 17.1133Z" fill="#00B897"/>
<path d="M116.138 17.1131C114.677 17.1131 113.484 16.7236 112.583 15.9445C112.121 15.555 111.804 15.1168 111.61 14.6298C111.415 14.143 111.317 13.4369 111.317 12.4875C111.317 11.5624 111.415 10.8319 111.61 10.345C111.78 9.88252 112.096 9.46859 112.559 9.07908C113.459 8.30004 114.652 7.91051 116.113 7.91051C117.574 7.91051 118.767 8.30004 119.668 9.07908C120.131 9.46859 120.447 9.90685 120.617 10.345C120.812 10.8563 120.909 11.5624 120.909 12.4875C120.909 13.4369 120.812 14.143 120.617 14.6298C120.422 15.1168 120.106 15.555 119.643 15.9445C118.791 16.7236 117.599 17.1131 116.138 17.1131ZM116.138 9.2495C114.53 9.2495 113.727 10.345 113.727 12.5118C113.727 14.7029 114.53 15.7984 116.138 15.7984C117.744 15.7984 118.548 14.7029 118.548 12.5361C118.548 10.345 117.72 9.2495 116.138 9.2495Z" fill="#00B897"/>
<path d="M126.216 17.1133C124.95 17.1133 123.782 16.7725 122.784 16.1151C122.686 16.0177 122.492 15.896 122.248 15.75C122.2 15.7256 122.151 15.6525 122.151 15.5795V4.33189H123.587C124.099 4.33189 124.537 4.77011 124.537 5.28137V8.56801L124.975 8.32456C125.486 8.05677 126.168 7.93504 127.044 7.93504C128.578 7.93504 129.747 8.3976 130.526 9.29835C131.207 10.1018 131.549 11.173 131.549 12.4877C131.549 13.8023 131.159 14.8735 130.38 15.6525C129.479 16.6264 128.067 17.1133 126.216 17.1133ZM126.46 9.24968C125.925 9.24968 125.315 9.44444 124.634 9.85836L124.537 9.90703V15.19L124.634 15.263C125.17 15.6039 125.803 15.7743 126.46 15.7743C127.336 15.7743 128.019 15.4091 128.48 14.6788C128.87 14.0944 129.09 13.3398 129.09 12.4877C129.09 10.3452 128.189 9.24968 126.46 9.24968Z" fill="#00B897"/>
<path d="M137.172 17.0888C134.494 17.0888 132.815 15.3359 132.815 12.4875C132.815 9.66343 134.469 7.91051 137.123 7.91051C138.146 7.91051 139.022 8.17831 139.728 8.68957L139.875 8.78695V8.08093H141.749C141.871 8.08093 141.944 8.17831 141.944 8.27569V16.9184H139.85V16.1393L139.704 16.261C139.12 16.7966 138.194 17.0888 137.172 17.0888ZM137.659 9.46859C135.979 9.46859 134.981 10.7589 134.981 12.4875C134.981 14.216 135.979 15.555 137.659 15.555C138.194 15.555 139.12 15.5064 139.85 14.7759L139.875 14.7516V10.3207L139.85 10.2964C139.339 9.7121 138.584 9.46859 137.659 9.46859Z" fill="#00B897"/>
<path d="M50.6722 16.9914V4.30742H61.2138V5.11082C61.2138 5.7438 60.7026 6.25506 60.0696 6.25506H53.3015V9.66341H60.0696V11.6111H53.3015V15.0194H60.0696C60.7026 15.0194 61.2138 15.5307 61.2138 16.1637V16.9671L50.6722 16.9914Z" fill="white"/>
<path d="M76.3568 4.30742H73.8735C73.4109 4.30742 72.9971 4.50218 72.7049 4.86736L69.7104 8.64093L66.7159 4.89171C66.4238 4.52653 66.0099 4.33176 65.5474 4.33176H63.0641L68.1036 10.6616L63.0641 16.9914H65.5474C66.0099 16.9914 66.4238 16.7967 66.7159 16.4315L69.7104 12.6823L72.7292 16.4559C73.0214 16.7967 73.4353 17.0158 73.8979 17.0158H76.3811L71.3416 10.6859L76.3568 4.30742Z" fill="white"/>
<path d="M42.4192 15.6533L45.8762 9.61557V16.9679H48.5056V4.28391H46.8744C46.3632 4.28391 45.8762 4.5517 45.6328 5.01427L41.4941 12.5614L37.3553 5.01427C37.1118 4.5517 36.6249 4.28391 36.1137 4.28391H34.4825V16.9679H37.1118V9.61557L40.5689 15.6533H42.4192Z" fill="white"/>
<path d="M83.2223 17.1377C79.5705 17.1863 76.6004 14.3135 76.576 10.6617C76.576 8.66538 77.1846 7.00987 78.3289 5.86564C79.4732 4.74574 81.1286 4.1371 83.1007 4.1371C85.4135 4.1371 87.2394 4.94051 88.554 6.49862L87.7263 7.20464C87.2151 7.64286 86.4603 7.66721 85.9004 7.25334C85.17 6.69339 84.2448 6.42558 83.198 6.42558C80.6174 6.42558 79.0836 7.9837 79.0836 10.613C79.0836 13.2667 80.666 14.8979 83.198 14.8979C84.2692 14.8979 85.17 14.6057 85.9004 14.0701C86.436 13.6562 87.1906 13.6806 87.7263 14.1188L88.554 14.8248C87.2394 16.3586 85.4865 17.1377 83.2223 17.1377Z" fill="white"/>
<path d="M99.4122 17.1376C95.3223 17.1376 92.7903 14.6544 92.7903 10.6616C92.7903 6.66899 95.3223 4.18575 99.3637 4.18575C101.311 4.18575 102.942 4.74569 104.208 5.88993L103.6 6.57161C103.332 6.86376 102.942 7.03418 102.553 7.03418C102.334 7.03418 102.114 6.98549 101.92 6.8881C101.165 6.49857 100.289 6.30381 99.3637 6.30381C96.7338 6.30381 95.1028 7.98365 95.1028 10.686C95.1028 13.4127 96.807 15.0925 99.5339 15.0925C100.848 15.0925 101.871 14.8491 102.626 14.3135L102.674 14.2892V11.6841H99.7772V10.832C99.7772 10.1991 100.289 9.68786 100.922 9.68786H104.5C104.598 9.68786 104.695 9.78519 104.695 9.88261V15.5065C103.454 16.5776 101.676 17.1376 99.4122 17.1376Z" fill="#00B897"/>
<path d="M109.394 17.1133C108.493 17.1133 107.787 16.9186 107.252 16.5777C106.692 16.2126 106.399 15.6769 106.399 14.9465V4.33189H107.811C108.323 4.33189 108.761 4.74577 108.761 5.28137V14.63C108.761 14.6544 108.761 15.0926 109.126 15.4578C109.345 15.6769 109.613 15.7986 109.978 15.7986H110.246C110.343 15.7986 110.44 15.896 110.44 15.9934V17.1377L109.394 17.1133Z" fill="#00B897"/>
<defs>
<linearGradient id="paint0_linear_9854_51686" x1="8.30579" y1="9.41746" x2="23.6917" y2="15.103" gradientUnits="userSpaceOnUse">
<stop stop-color="#53E57A" stop-opacity="0"/>
<stop offset="1" stop-color="#00A977"/>
</linearGradient>
</defs>
</svg>
