<svg width="32" height="32" viewBox="0 0 32 32" fill="none" xmlns="http://www.w3.org/2000/svg">
<circle cx="16" cy="16" r="16" fill="#353446"/>
<path d="M16 10C15.8687 9.99997 15.7386 10.0258 15.6173 10.0761C15.4959 10.1263 15.3857 10.2 15.2928 10.2928C15.2 10.3857 15.1263 10.4959 15.0761 10.6173C15.0258 10.7386 15 10.8687 15 11V15.3838L12.5693 16.6069C12.4521 16.6659 12.3476 16.7474 12.2618 16.8468C12.176 16.9462 12.1106 17.0615 12.0694 17.1861C12.0282 17.3108 12.0119 17.4423 12.0216 17.5733C12.0312 17.7042 12.0665 17.8319 12.1255 17.9492C12.1845 18.0665 12.266 18.171 12.3654 18.2568C12.4648 18.3426 12.5801 18.4079 12.7047 18.4491C12.8293 18.4904 12.9609 18.5066 13.0918 18.497C13.2227 18.4874 13.3505 18.4521 13.4678 18.3931L16.4492 16.8931C16.6148 16.81 16.7541 16.6824 16.8513 16.5247C16.9486 16.367 17.0001 16.1853 17 16V11C17 10.8687 16.9742 10.7386 16.924 10.6173C16.8737 10.4959 16.8001 10.3857 16.7072 10.2928C16.6143 10.2 16.5041 10.1263 16.3827 10.0761C16.2614 10.0258 16.1313 9.99997 16 10ZM16 6C14.0222 6 12.0888 6.58649 10.4443 7.6853C8.79981 8.78412 7.51809 10.3459 6.76121 12.1732C6.00433 14.0004 5.8063 16.0111 6.19215 17.9509C6.578 19.8907 7.53041 21.6725 8.92894 23.0711C10.3275 24.4696 12.1093 25.422 14.0491 25.8079C15.9889 26.1937 17.9996 25.9957 19.8268 25.2388C21.6541 24.4819 23.2159 23.2002 24.3147 21.5557C25.4135 19.9112 26 17.9778 26 16C25.997 13.3488 24.9424 10.807 23.0677 8.93228C21.193 7.05758 18.6512 6.00303 16 6ZM16 24C14.4178 24 12.871 23.5308 11.5554 22.6518C10.2398 21.7727 9.21447 20.5233 8.60897 19.0615C8.00347 17.5997 7.84504 15.9911 8.15372 14.4393C8.4624 12.8874 9.22433 11.462 10.3432 10.3431C11.462 9.22433 12.8874 8.4624 14.4393 8.15372C15.9911 7.84504 17.5997 8.00346 19.0615 8.60896C20.5233 9.21447 21.7727 10.2398 22.6518 11.5554C23.5308 12.871 24 14.4177 24 16C23.9976 18.121 23.1539 20.1544 21.6542 21.6542C20.1544 23.1539 18.121 23.9976 16 24Z" fill="#A6A4BC"/>
</svg>
