<svg width="117" height="29" viewBox="0 0 117 29" fill="none" xmlns="http://www.w3.org/2000/svg">
<path d="M54.6826 22.3864H51.2318L51.3222 20.6657C50.896 21.358 50.286 21.9254 49.5566 22.3081C48.7899 22.6847 47.9368 22.8631 47.079 22.8262C46.3101 22.8623 45.5437 22.7167 44.8451 22.4018C44.1464 22.087 43.5362 21.6121 43.0665 21.0178C42.0062 19.6601 41.4732 17.9804 41.5619 16.2763C41.4721 14.5554 42.0164 12.8598 43.0966 11.4956C43.6176 10.9277 44.261 10.4789 44.9806 10.1815C45.7002 9.88404 46.4784 9.74521 47.2595 9.77493C48.0985 9.75006 48.9271 9.96043 49.647 10.3811C50.3821 10.835 50.9863 11.4643 51.4024 12.2093V10.254H54.7629V22.3861L54.6826 22.3864ZM51.4024 16.3836C51.4557 15.4565 51.1754 14.5403 50.6099 13.7929C50.3191 13.4816 49.9642 13.2336 49.5684 13.0651C49.1726 12.8967 48.7447 12.8115 48.3128 12.8153C47.8821 12.8197 47.4568 12.9086 47.0621 13.0765C46.6674 13.2445 46.3115 13.4882 46.0154 13.793C45.709 14.1496 45.4798 14.563 45.3419 15.0083C45.204 15.4536 45.1601 15.9215 45.213 16.3838C45.1597 17.3109 45.44 18.2271 46.0056 18.9744C46.623 19.5567 47.4485 19.8823 48.3077 19.8823C49.167 19.8823 49.9925 19.5567 50.6099 18.9744C51.2021 18.2403 51.4855 17.314 51.4024 16.3836Z" fill="white"/>
<path d="M66.9904 13.4503C67.2548 12.4297 67.8073 11.5017 68.5854 10.7716C69.2758 10.1997 70.1572 9.89369 71.0631 9.91137C71.4142 9.91137 71.8556 9.9994 72.2167 9.9994H72.4675L71.9359 13.7926L71.1434 13.5384C70.8552 13.4667 70.5578 13.4371 70.2607 13.4504C69.8289 13.3989 69.3908 13.4415 68.9779 13.5751C68.5651 13.7086 68.1878 13.9299 67.8733 14.2228C67.3306 15.0402 67.08 16.0093 67.1605 16.9797V22.3273H63.5397V10.2244H67.0806L66.9904 13.4503Z" fill="white"/>
<path d="M79.3792 7.21379C79.3823 6.97621 79.4564 6.74466 79.5925 6.54752C79.7285 6.35037 79.9206 6.19619 80.1452 6.10384C80.3698 6.0115 80.6171 5.98501 80.8569 6.02761C81.0966 6.07021 81.3185 6.18006 81.4952 6.34371C81.6221 6.44766 81.7205 6.58065 81.7818 6.73077C81.843 6.88089 81.8651 7.04347 81.8462 7.20397C81.8429 7.44266 81.7681 7.6752 81.6307 7.87285C81.4934 8.0705 81.2998 8.22461 81.0736 8.31612C80.8474 8.40764 80.5987 8.43255 80.3582 8.38779C80.1177 8.34302 79.8959 8.23054 79.7202 8.06424C79.5343 7.81368 79.4169 7.52101 79.3793 7.21391L79.3792 7.21379ZM79.8205 22.3964V11.4372H81.415V22.3866L79.8205 22.3964Z" fill="white"/>
<path d="M89.1995 22.3869L95.479 12.816H89.6409V11.4375H98.1373L91.938 21.0085H98.3078V22.3869H89.1995Z" fill="white"/>
<path d="M115.932 16.9603H106.994C106.998 18.1502 107.369 19.3116 108.058 20.2941C108.4 20.6763 108.822 20.9824 109.297 21.1915C109.771 21.4007 110.286 21.5081 110.806 21.5063C111.605 21.5305 112.388 21.2851 113.023 20.8117C113.716 20.3025 114.265 19.6298 114.618 18.8569L116.033 19.6295C115.607 20.6587 114.864 21.5334 113.906 22.1326C112.981 22.6989 111.897 22.969 110.806 22.9049C110.054 22.9424 109.302 22.8141 108.608 22.5297C107.913 22.2452 107.293 21.8119 106.794 21.2619C106.268 20.6907 105.864 20.023 105.605 19.2979C105.347 18.5727 105.239 17.8046 105.289 17.0385C105.202 15.4662 105.741 13.922 106.793 12.727C107.286 12.169 107.905 11.7302 108.601 11.4452C109.298 11.1602 110.052 11.0368 110.806 11.0848C111.507 11.054 112.205 11.1778 112.849 11.447C113.494 11.7161 114.068 12.1237 114.528 12.6392C115.513 13.7664 116.019 15.2177 115.942 16.6964L115.932 16.9603ZM114.077 15.6699C114.08 15.2305 113.987 14.7956 113.803 14.3943C113.62 13.993 113.351 13.6346 113.013 13.3431C112.323 12.7712 111.442 12.4652 110.536 12.4828C109.655 12.4512 108.797 12.7605 108.148 13.3431C107.491 13.9597 107.082 14.785 106.995 15.6699H114.077Z" fill="white"/>
<path d="M29.7739 26.2143C29.7739 26.5783 29.7004 26.9387 29.5575 27.275C29.4145 27.6113 29.2051 27.9168 28.941 28.1742C28.6769 28.4316 28.3634 28.6357 28.0183 28.775C27.6733 28.9143 27.3034 28.986 26.93 28.986C26.5565 28.986 26.1867 28.9143 25.8416 28.775C25.4966 28.6357 25.1831 28.4315 24.919 28.1742C24.6549 27.9168 24.4455 27.6112 24.3026 27.2749C24.1597 26.9387 24.0861 26.5782 24.0861 26.2143V25.8909C25.8625 24.5325 27.2973 22.7968 28.2812 20.8161C29.265 18.8354 29.772 16.662 29.7635 14.4614" fill="url(#paint0_linear_5759_15850)"/>
<g style="mix-blend-mode:multiply" opacity="0.2">
<path d="M29.7636 14.4985L24.0851 24.8668V26.2994C24.0948 26.5296 24.1315 26.758 24.1945 26.98C28.5336 23.6654 29.7636 18.9941 29.7636 14.4985Z" fill="black"/>
</g>
<path d="M24.1136 2.78337V3.10674C21.3396 0.971053 17.873 -0.126806 14.3408 0.0116672C10.7185 0.257573 7.30146 1.74124 4.6914 4.20138C2.08135 6.66152 0.445699 9.94033 0.0725202 13.4604C-0.0727138 15.4026 0.185342 17.3534 0.831263 19.1963C1.47718 21.0391 2.49771 22.7361 3.83184 24.1858C5.16598 25.6355 6.78632 26.8082 8.59604 27.6338C10.4058 28.4594 12.3677 28.9209 14.3645 28.9907C16.3614 29.0605 18.3522 28.7373 20.218 28.0402C22.0838 27.3432 23.7862 26.2867 25.2235 24.9339C26.6608 23.5811 27.8035 21.9597 28.5833 20.1667C29.3631 18.3738 29.7639 16.446 29.7619 14.4986V2.78337C29.762 2.05484 29.4677 1.35558 28.9428 0.836866C28.4179 0.318154 27.7046 0.0217092 26.9571 0.0116672C26.5837 0.0116672 26.2139 0.0833604 25.8688 0.222653C25.5238 0.361946 25.2103 0.56611 24.9462 0.823488C24.6821 1.08087 24.4727 1.38642 24.3297 1.7227C24.1868 2.05897 24.1133 2.41939 24.1133 2.78337H24.1136ZM19.2955 11.7178C19.2827 11.8077 19.2511 11.8942 19.2028 11.9718C19.1544 12.0494 19.0903 12.1166 19.0144 12.1692C18.9384 12.2218 18.8522 12.2588 18.7611 12.2778C18.67 12.2968 18.5759 12.2974 18.4845 12.2797C18.2365 12.2335 17.9844 12.2112 17.7319 12.213C17.357 12.1783 16.9789 12.2243 16.6243 12.3477C16.2697 12.4712 15.9472 12.6691 15.6797 12.9274C15.1964 13.6274 14.9754 14.4683 15.0542 15.3086V19.2803C15.0542 19.4521 14.9842 19.6168 14.8596 19.7383C14.735 19.8598 14.5659 19.928 14.3897 19.928H12.5816C12.4054 19.928 12.2363 19.8598 12.1117 19.7383C11.9871 19.6168 11.9171 19.4521 11.9171 19.2803V10.0704C11.9171 9.89865 11.9871 9.73391 12.1117 9.61245C12.2363 9.49098 12.4054 9.42275 12.5816 9.42275H14.3212C14.4102 9.42271 14.4982 9.44007 14.5801 9.4738C14.6621 9.50754 14.7362 9.55696 14.7982 9.61913C14.8602 9.6813 14.9087 9.75497 14.9409 9.83576C14.9731 9.91656 14.9884 10.0028 14.9858 10.0895L14.9366 12.1277C15.1626 11.2575 15.633 10.4659 16.295 9.8418C16.9002 9.32804 17.6821 9.05584 18.4844 9.07962L18.9925 9.12753C19.0801 9.13807 19.1646 9.16551 19.2412 9.20824C19.3178 9.25097 19.3849 9.30814 19.4386 9.37642C19.4923 9.44469 19.5314 9.5227 19.5539 9.6059C19.5763 9.68909 19.5814 9.7758 19.5691 9.86096L19.2955 11.7178Z" fill="url(#paint1_linear_5759_15850)"/>
<defs>
<linearGradient id="paint0_linear_5759_15850" x1="26.93" y1="14.4614" x2="26.93" y2="28.986" gradientUnits="userSpaceOnUse">
<stop stop-color="#F7F6FF"/>
<stop offset="1" stop-color="white"/>
</linearGradient>
<linearGradient id="paint1_linear_5759_15850" x1="14.8976" y1="0" x2="14.8976" y2="29" gradientUnits="userSpaceOnUse">
<stop stop-color="#EAEAF5"/>
<stop offset="1" stop-color="white"/>
</linearGradient>
</defs>
</svg>
