<svg width="148" height="24" viewBox="0 0 148 24" fill="none" xmlns="http://www.w3.org/2000/svg">
<path d="M28.5701 18.1873C28.2275 18.1873 27.9852 18.1164 27.8434 17.9747C27.7134 17.8328 27.6484 17.6083 27.6484 17.3011V7.03886C27.6484 6.73164 27.7193 6.50713 27.8611 6.36535C28.0029 6.21174 28.2392 6.13493 28.5701 6.13493H32.9125C34.5667 6.13493 35.7837 6.48351 36.5637 7.18065C37.3435 7.8778 37.7335 8.91761 37.7335 10.3001C37.7335 11.6707 37.3435 12.7046 36.5637 13.4018C35.7956 14.0872 34.5785 14.4298 32.9125 14.4298H31.2287V17.3011C31.2287 17.6083 31.1578 17.8328 31.016 17.9747C30.8742 18.1164 30.632 18.1873 30.2893 18.1873H28.5701ZM32.6289 11.8598C33.1134 11.8598 33.4856 11.7298 33.7456 11.4699C34.0172 11.2099 34.1532 10.82 34.1532 10.3001C34.1532 9.76836 34.0172 9.37253 33.7456 9.11257C33.4856 8.85263 33.1134 8.72264 32.6289 8.72264H31.2287V11.8598H32.6289Z" fill="white"/>
<path d="M41.9191 18.4531C40.8084 18.4531 39.9163 18.0986 39.2428 17.3898C38.581 16.6689 38.2502 15.6587 38.2502 14.3589C38.2502 13.3663 38.4748 12.4978 38.9237 11.7535C39.3846 11.009 40.0286 10.436 40.8557 10.0342C41.6947 9.62066 42.6576 9.41387 43.7447 9.41387C44.6427 9.41387 45.4344 9.51431 46.1197 9.71518C46.8169 9.90424 47.4549 10.1819 48.0339 10.5482V17.6379C48.0339 17.8624 47.9926 18.0101 47.9098 18.0809C47.8271 18.1519 47.6617 18.1873 47.4136 18.1873H45.6057C45.4757 18.1873 45.3753 18.1696 45.3045 18.1341C45.2335 18.0869 45.1745 18.0159 45.1272 17.9214L44.8967 17.3898C44.5541 17.756 44.1406 18.0219 43.6561 18.1873C43.1835 18.3646 42.6045 18.4531 41.9191 18.4531ZM43.2485 16.0426C43.7092 16.0426 44.0696 15.9304 44.3296 15.706C44.5895 15.4815 44.7195 15.1624 44.7195 14.7488V11.9839C44.4951 11.8775 44.2114 11.8244 43.8688 11.8244C43.2425 11.8244 42.7403 12.0429 42.3622 12.4801C41.9959 12.9173 41.8128 13.5317 41.8128 14.3234C41.8128 15.4696 42.2913 16.0426 43.2485 16.0426Z" fill="white"/>
<path d="M50.5004 18.1873C50.1576 18.1873 49.9154 18.1164 49.7737 17.9746C49.6319 17.8328 49.561 17.6083 49.561 17.3011V10.2292C49.561 10.0165 49.5965 9.8747 49.6673 9.8038C49.75 9.72109 49.9154 9.67974 50.1636 9.67974H51.9892C52.1309 9.67974 52.2373 9.70337 52.3082 9.75063C52.3909 9.78608 52.4382 9.85698 52.45 9.96333L52.5386 10.495C52.8695 10.1642 53.3008 9.90424 53.8324 9.71518C54.376 9.51431 54.9786 9.41387 55.6403 9.41387C56.5974 9.41387 57.3714 9.68564 57.9622 10.2292C58.553 10.7609 58.8484 11.5526 58.8484 12.6042V17.3011C58.8484 17.6083 58.7775 17.8328 58.6357 17.9746C58.5057 18.1164 58.2694 18.1873 57.9267 18.1873H56.2075C55.8649 18.1873 55.6168 18.1164 55.4631 17.9746C55.3213 17.8328 55.2504 17.6083 55.2504 17.3011V12.8346C55.2504 12.4801 55.1736 12.2261 55.02 12.0725C54.8664 11.9189 54.6241 11.8421 54.2933 11.8421C53.9388 11.8421 53.6552 11.9366 53.4425 12.1256C53.2417 12.3147 53.1413 12.5747 53.1413 12.9056V17.3011C53.1413 17.6083 53.0703 17.8328 52.9286 17.9746C52.7986 18.1164 52.5623 18.1873 52.2196 18.1873H50.5004Z" fill="white"/>
<path d="M65.1135 18.4531C63.4592 18.4531 62.1831 18.0691 61.285 17.3011C60.387 16.5331 59.938 15.4165 59.938 13.9512C59.938 13.0533 60.1448 12.2616 60.5583 11.5762C60.9719 10.8909 61.5686 10.3592 62.3485 9.98105C63.1402 9.60293 64.0737 9.41387 65.1489 9.41387C65.9642 9.41387 66.6496 9.49068 67.2049 9.64429C67.7721 9.79789 68.2742 10.0342 68.7114 10.3533C68.8414 10.436 68.9064 10.5423 68.9064 10.6723C68.9064 10.7668 68.8591 10.8909 68.7646 11.0445L68.0379 12.3029C67.9552 12.4684 67.8548 12.5511 67.7366 12.5511C67.6657 12.5511 67.5534 12.5038 67.3998 12.4093C67.0808 12.2084 66.7795 12.0607 66.4959 11.9661C66.2241 11.8716 65.8815 11.8244 65.468 11.8244C64.8771 11.8244 64.3986 12.0134 64.0323 12.3915C63.6778 12.7696 63.5005 13.2895 63.5005 13.9512C63.5005 14.6248 63.6836 15.1447 64.05 15.5109C64.4163 15.8654 64.9185 16.0426 65.5565 16.0426C65.9346 16.0426 66.2774 15.9895 66.5846 15.8831C66.8918 15.7768 67.2049 15.6291 67.524 15.4401C67.6894 15.3455 67.8075 15.2982 67.8784 15.2982C67.9847 15.2982 68.0793 15.3809 68.162 15.5464L68.9595 16.9112C69.0186 17.0293 69.0482 17.1238 69.0482 17.1947C69.0482 17.3011 68.9772 17.4015 68.8355 17.496C68.3392 17.8151 67.7956 18.0514 67.2049 18.205C66.6259 18.3704 65.9287 18.4531 65.1135 18.4531Z" fill="white"/>
<path d="M73.5422 18.4531C72.4315 18.4531 71.5394 18.0986 70.8659 17.3898C70.2042 16.6689 69.8733 15.6587 69.8733 14.3589C69.8733 13.3663 70.0978 12.4978 70.5468 11.7535C71.0076 11.009 71.6516 10.436 72.4787 10.0342C73.3177 9.62066 74.2808 9.41387 75.3678 9.41387C76.2658 9.41387 77.0575 9.51431 77.7428 9.71518C78.4399 9.90424 79.0781 10.1819 79.6571 10.5482V17.6379C79.6571 17.8624 79.6157 18.0101 79.533 18.0809C79.4503 18.1519 79.2849 18.1873 79.0366 18.1873H77.2289C77.0989 18.1873 76.9984 18.1696 76.9275 18.1341C76.8567 18.0869 76.7975 18.0159 76.7503 17.9214L76.5199 17.3898C76.1772 17.756 75.7636 18.0219 75.2791 18.1873C74.8065 18.3646 74.2275 18.4531 73.5422 18.4531ZM74.8715 16.0426C75.3324 16.0426 75.6928 15.9304 75.9527 15.706C76.2127 15.4815 76.3426 15.1624 76.3426 14.7488V11.9839C76.1181 11.8775 75.8346 11.8244 75.4918 11.8244C74.8656 11.8244 74.3635 12.0429 73.9853 12.4801C73.6191 12.9173 73.4358 13.5317 73.4358 14.3234C73.4358 15.4696 73.9144 16.0426 74.8715 16.0426Z" fill="white"/>
<path d="M90.7905 17.5138C90.8732 17.6083 90.9146 17.7147 90.9146 17.8328C90.9146 17.9391 90.8792 18.0278 90.8082 18.0986C90.7374 18.1578 90.6428 18.1873 90.5247 18.1873H87.7774C87.612 18.1873 87.4879 18.1755 87.4052 18.1519C87.3344 18.1164 87.2575 18.0514 87.1748 17.9569L84.7643 14.6779V17.3011C84.7643 17.6083 84.6935 17.8328 84.5517 17.9747C84.4098 18.1164 84.1676 18.1873 83.825 18.1873H82.1057C81.7631 18.1873 81.5209 18.1164 81.379 17.9747C81.2491 17.8328 81.1841 17.6083 81.1841 17.3011V7.03886C81.1841 6.73164 81.2549 6.50713 81.3968 6.36535C81.5386 6.21174 81.7749 6.13493 82.1057 6.13493H83.825C84.1676 6.13493 84.4098 6.21174 84.5517 6.36535C84.6935 6.50713 84.7643 6.73164 84.7643 7.03886V12.9764L87.104 9.92789C87.1748 9.83335 87.2517 9.76836 87.3344 9.73291C87.4171 9.69748 87.5412 9.67975 87.7066 9.67975H90.4538C90.572 9.67975 90.6605 9.71519 90.7197 9.78609C90.7905 9.84518 90.826 9.92789 90.826 10.0342C90.826 10.1524 90.7846 10.2587 90.7019 10.3533L87.6711 13.8272L90.7905 17.5138Z" fill="white"/>
<path d="M96.5457 18.4531C95.5532 18.4531 94.667 18.2877 93.8871 17.9569C93.1191 17.626 92.5106 17.1297 92.0615 16.4681C91.6126 15.8064 91.3881 14.997 91.3881 14.0399C91.3881 12.5392 91.8134 11.3931 92.6642 10.6014C93.5149 9.80972 94.7379 9.41387 96.333 9.41387C97.8928 9.41387 99.0744 9.8038 99.8779 10.5837C100.693 11.3517 101.101 12.4211 101.101 13.7917C101.101 14.3825 100.841 14.6779 100.321 14.6779H94.7556C94.7556 15.186 94.9446 15.576 95.3228 15.8477C95.7127 16.1195 96.2976 16.2553 97.0774 16.2553C97.5619 16.2553 97.9637 16.214 98.2827 16.1313C98.6135 16.0368 98.9445 15.9009 99.2753 15.7237C99.4171 15.6646 99.5116 15.635 99.5588 15.635C99.6652 15.635 99.7537 15.706 99.8247 15.8477L100.427 16.982C100.486 17.1003 100.516 17.1888 100.516 17.2479C100.516 17.3542 100.445 17.4548 100.303 17.5492C99.8188 17.8683 99.2694 18.0986 98.655 18.2405C98.0405 18.3823 97.3374 18.4531 96.5457 18.4531ZM97.9105 12.9233C97.9105 12.4742 97.7806 12.1256 97.5206 11.8775C97.2607 11.6294 96.8706 11.5053 96.3507 11.5053C95.8308 11.5053 95.4351 11.6353 95.1633 11.8952C94.8915 12.1434 94.7556 12.4861 94.7556 12.9233H97.9105Z" fill="white"/>
<path d="M107.176 18.4532C106.183 18.4532 105.244 18.3528 104.358 18.1519C103.471 17.9391 102.756 17.6438 102.213 17.2657C102.012 17.1357 101.912 16.9998 101.912 16.8581C101.912 16.7635 101.947 16.6631 102.018 16.5567L102.886 15.1743C102.981 15.0325 103.075 14.9616 103.17 14.9616C103.229 14.9616 103.329 15.0029 103.471 15.0856C103.908 15.3338 104.405 15.5346 104.96 15.6882C105.515 15.8419 106.065 15.9187 106.608 15.9187C107.164 15.9187 107.571 15.836 107.831 15.6705C108.103 15.5051 108.239 15.2393 108.239 14.8729C108.239 14.5184 108.091 14.2408 107.796 14.0399C107.512 13.839 106.975 13.585 106.183 13.2778C104.99 12.8288 104.056 12.3266 103.383 11.7712C102.721 11.204 102.39 10.436 102.39 9.46708C102.39 8.2973 102.81 7.40519 103.649 6.79074C104.488 6.17632 105.604 5.86909 106.998 5.86909C107.967 5.86909 108.794 5.95772 109.48 6.13495C110.177 6.30038 110.768 6.56033 111.252 6.91482C111.453 7.06843 111.553 7.21021 111.553 7.3402C111.553 7.42291 111.518 7.51743 111.447 7.62378L110.579 9.00626C110.472 9.14805 110.378 9.21895 110.295 9.21895C110.236 9.21895 110.135 9.17759 109.994 9.09487C109.308 8.64587 108.493 8.42136 107.548 8.42136C107.04 8.42136 106.65 8.50407 106.378 8.6695C106.106 8.83493 105.97 9.1067 105.97 9.48481C105.97 9.74477 106.041 9.95745 106.183 10.1229C106.325 10.2883 106.514 10.436 106.75 10.566C106.998 10.6841 107.376 10.8377 107.885 11.0268L108.221 11.1509C109.096 11.4935 109.781 11.8244 110.277 12.1435C110.785 12.4506 111.169 12.8346 111.429 13.2955C111.689 13.7445 111.819 14.3116 111.819 14.997C111.819 16.0487 111.424 16.8876 110.632 17.5138C109.852 18.1401 108.7 18.4532 107.176 18.4532Z" fill="white"/>
<path d="M115.585 18.1873C115.408 18.1873 115.272 18.1577 115.177 18.0986C115.083 18.0396 115.012 17.9214 114.965 17.7441L112.678 10.0873C112.655 10.0165 112.643 9.96329 112.643 9.92784C112.643 9.76241 112.761 9.6797 112.997 9.6797H115.337C115.491 9.6797 115.602 9.70924 115.674 9.76831C115.745 9.81558 115.792 9.89829 115.815 10.0164L116.772 14.0399L117.977 10.7963C118.037 10.6545 118.096 10.56 118.155 10.5127C118.226 10.4536 118.344 10.4241 118.51 10.4241H119.626C119.791 10.4241 119.904 10.4536 119.963 10.5127C120.034 10.56 120.098 10.6545 120.158 10.7963L121.345 14.0399L122.321 10.0164C122.355 9.89829 122.402 9.81558 122.462 9.76831C122.521 9.70924 122.628 9.6797 122.781 9.6797H125.139C125.374 9.6797 125.493 9.76241 125.493 9.92784C125.493 9.96329 125.481 10.0165 125.457 10.0873L123.153 17.7441C123.106 17.9214 123.035 18.0396 122.941 18.0986C122.858 18.1577 122.728 18.1873 122.551 18.1873H120.814C120.648 18.1873 120.524 18.1577 120.441 18.0986C120.358 18.0277 120.288 17.9096 120.228 17.7441L119.059 14.5361L117.889 17.7441C117.842 17.9096 117.77 18.0277 117.676 18.0986C117.593 18.1577 117.47 18.1873 117.305 18.1873H115.585Z" fill="white"/>
<path d="M129.986 18.4531C128.875 18.4531 127.983 18.0986 127.309 17.3898C126.648 16.6689 126.317 15.6587 126.317 14.3589C126.317 13.3663 126.541 12.4978 126.991 11.7535C127.451 11.009 128.095 10.436 128.922 10.0342C129.762 9.62066 130.724 9.41387 131.811 9.41387C132.71 9.41387 133.501 9.51431 134.186 9.71518C134.883 9.90424 135.522 10.1819 136.1 10.5482V17.6379C136.1 17.8624 136.059 18.0101 135.976 18.0809C135.893 18.1519 135.729 18.1873 135.48 18.1873H133.672C133.542 18.1873 133.442 18.1696 133.371 18.1341C133.3 18.0869 133.241 18.0159 133.194 17.9214L132.964 17.3898C132.621 17.756 132.207 18.0219 131.723 18.1873C131.25 18.3646 130.671 18.4531 129.986 18.4531ZM131.315 16.0426C131.776 16.0426 132.137 15.9304 132.397 15.706C132.657 15.4815 132.787 15.1624 132.787 14.7488V11.9839C132.561 11.8775 132.278 11.8244 131.935 11.8244C131.309 11.8244 130.807 12.0429 130.429 12.4801C130.063 12.9173 129.879 13.5317 129.879 14.3234C129.879 15.4696 130.358 16.0426 131.315 16.0426Z" fill="white"/>
<path d="M138.549 21.7676C138.206 21.7676 137.965 21.6967 137.822 21.5549C137.692 21.4131 137.628 21.1886 137.628 20.8813V10.7255C138.159 10.3473 138.827 10.0342 139.63 9.78608C140.434 9.53794 141.273 9.41387 142.147 9.41387C145.716 9.41387 147.5 10.9263 147.5 13.9512C147.5 15.3219 147.122 16.4149 146.366 17.2302C145.609 18.0455 144.541 18.4531 143.158 18.4531C142.768 18.4531 142.39 18.4059 142.023 18.3113C141.668 18.2169 141.373 18.0869 141.137 17.9214V20.8813C141.137 21.1886 141.066 21.4131 140.924 21.5549C140.783 21.6967 140.54 21.7676 140.197 21.7676H138.549ZM142.395 16.0604C142.904 16.0604 143.282 15.8714 143.53 15.4932C143.789 15.1033 143.919 14.5834 143.919 13.9335C143.919 13.1655 143.766 12.6278 143.459 12.3206C143.164 12.0016 142.703 11.8421 142.077 11.8421C141.674 11.8421 141.356 11.8952 141.12 12.0016V14.8197C141.12 15.2215 141.231 15.5287 141.456 15.7414C141.681 15.9541 141.994 16.0604 142.395 16.0604Z" fill="white"/>
<path fill-rule="evenodd" clip-rule="evenodd" d="M11.3794 23.422C8.02166 23.4194 5.31692 22.6137 3.42708 21.1665C1.51457 19.702 0.5 17.6235 0.5 15.2717C0.5 13.0057 1.51235 11.3717 2.65782 10.2672C3.55551 9.40165 4.54613 8.84729 5.23591 8.52842C5.07992 8.04972 4.88531 7.42301 4.71119 6.77572C4.47822 5.90956 4.24966 4.89332 4.24966 4.14861C4.24966 3.26716 4.44184 2.38194 4.96001 1.69409C5.50747 0.967355 6.33165 0.578037 7.32315 0.578037C8.09806 0.578037 8.75594 0.865478 9.271 1.36134C9.76332 1.83532 10.091 2.46477 10.3172 3.12094C10.7148 4.27394 10.8696 5.7225 10.913 7.16809H11.8627C11.9062 5.7225 12.0609 4.27394 12.4585 3.12094C12.6848 2.46477 13.0123 1.83532 13.5047 1.36134C14.0198 0.865478 14.6776 0.578037 15.4525 0.578037C16.4441 0.578037 17.2682 0.967355 17.8157 1.69409C18.3339 2.38194 18.5261 3.26716 18.5261 4.14861C18.5261 4.89332 18.2974 5.90956 18.0645 6.77572C17.8904 7.42301 17.6957 8.04972 17.5398 8.52842C18.2296 8.84729 19.2202 9.40165 20.1179 10.2672C21.2633 11.3717 22.2756 13.0057 22.2756 15.2717C22.2756 17.6235 21.2612 19.702 19.3486 21.1665C17.4588 22.6137 14.754 23.4194 11.3962 23.422H11.3794Z" fill="#633001"/>
<path d="M7.32325 1.41634C5.87104 1.41634 5.20255 2.5108 5.20255 4.02442C5.20255 5.22752 5.97927 7.63702 6.29796 8.57499C6.36964 8.78596 6.25701 9.01711 6.05159 9.09892C4.88769 9.56254 1.45288 11.26 1.45288 15.1476C1.45288 19.2427 4.94343 22.3304 11.3803 22.3354C11.3828 22.3354 11.3854 22.3352 11.3879 22.3352C11.3905 22.3352 11.3931 22.3354 11.3956 22.3354C17.8324 22.3304 21.323 19.2427 21.323 15.1476C21.323 11.26 17.8882 9.56254 16.7243 9.09892C16.5189 9.01711 16.4063 8.78596 16.4779 8.57499C16.7967 7.63702 17.5734 5.22752 17.5734 4.02442C17.5734 2.5108 16.9049 1.41634 15.4526 1.41634C13.3623 1.41634 12.8411 4.4077 12.8039 7.61816C12.8015 7.83249 12.6299 8.00639 12.4178 8.00639H10.3581C10.1459 8.00639 9.97441 7.83249 9.97194 7.61816C9.93476 4.4077 9.41369 1.41634 7.32325 1.41634Z" fill="#D1884F"/>
<path d="M11.3956 21.0235C6.66616 21.0235 1.46106 18.4661 1.4529 15.1554C1.45289 15.1605 1.45288 15.1657 1.45288 15.1708C1.45288 19.2693 4.94898 22.3586 11.3956 22.3586C17.8423 22.3586 21.3384 19.2693 21.3384 15.1708C21.3384 15.1657 21.3384 15.1605 21.3384 15.1554C21.3302 18.4661 16.1251 21.0235 11.3956 21.0235Z" fill="#FEDC90"/>
<path d="M8.76774 14.1385C8.76774 15.2563 8.24484 15.8384 7.59982 15.8384C6.95478 15.8384 6.43188 15.2563 6.43188 14.1385C6.43188 13.0208 6.95478 12.4386 7.59982 12.4386C8.24484 12.4386 8.76774 13.0208 8.76774 14.1385Z" fill="#633001"/>
<path d="M16.3592 14.1385C16.3592 15.2563 15.8363 15.8384 15.1912 15.8384C14.5462 15.8384 14.0233 15.2563 14.0233 14.1385C14.0233 13.0208 14.5462 12.4386 15.1912 12.4386C15.8363 12.4386 16.3592 13.0208 16.3592 14.1385Z" fill="#633001"/>
</svg>
