<svg width="16" height="16" viewBox="0 0 16 16" fill="none" xmlns="http://www.w3.org/2000/svg">
<path d="M14.6668 4.82666C14.6673 4.73893 14.6505 4.65195 14.6174 4.57073C14.5842 4.4895 14.5353 4.41563 14.4735 4.35333L11.6468 1.52667C11.5845 1.46488 11.5107 1.41599 11.4294 1.38282C11.3482 1.34964 11.2612 1.33282 11.1735 1.33333C11.0858 1.33282 10.9988 1.34964 10.9176 1.38282C10.8363 1.41599 10.7625 1.46488 10.7002 1.52667L8.81351 3.41333L1.52684 10.7C1.46505 10.7623 1.41617 10.8362 1.38299 10.9174C1.34982 10.9986 1.333 11.0856 1.33351 11.1733V14C1.33351 14.1768 1.40375 14.3464 1.52877 14.4714C1.65379 14.5964 1.82336 14.6667 2.00017 14.6667H4.82684C4.92013 14.6717 5.01344 14.6572 5.10072 14.6238C5.188 14.5905 5.26731 14.5393 5.33351 14.4733L12.5802 7.18667L14.4735 5.33333C14.5344 5.26872 14.5839 5.19435 14.6202 5.11333C14.6266 5.06019 14.6266 5.00647 14.6202 4.95333C14.6233 4.9223 14.6233 4.89103 14.6202 4.86L14.6668 4.82666ZM4.55351 13.3333H2.66684V11.4467L9.28684 4.82666L11.1735 6.71333L4.55351 13.3333ZM12.1135 5.77333L10.2268 3.88667L11.1735 2.94667L13.0535 4.82666L12.1135 5.77333Z" fill="#F1F0F4"/>
</svg>
