<svg width="16" height="16" viewBox="0 0 16 16" fill="none" xmlns="http://www.w3.org/2000/svg">
<ellipse rx="6.66667" ry="6.66667" transform="matrix(1 0 0 -1 7.99968 7.99935)" fill="#A78BFA"/>
<path d="M10.2216 6.33334C10.2216 5.81969 10.0521 5.32039 9.73941 4.91289C9.42671 4.50538 8.98828 4.21245 8.49213 4.07951C7.99598 3.94657 7.46983 3.98105 6.99527 4.17762C6.52072 4.37418 6.12428 4.72184 5.86745 5.16667C5.77915 5.31982 5.75529 5.50177 5.8011 5.67251C5.84692 5.84325 5.95866 5.98881 6.11176 6.07718C6.26487 6.16556 6.4468 6.18952 6.61756 6.14379C6.78833 6.09807 6.93394 5.9864 7.0224 5.83334C7.11029 5.68146 7.23654 5.55533 7.3885 5.46758C7.54046 5.37983 7.71281 5.33354 7.88828 5.33334C8.1535 5.33334 8.40786 5.43869 8.59539 5.62623C8.78293 5.81377 8.88828 6.06812 8.88828 6.33334C8.88828 6.59855 8.78293 6.85291 8.59539 7.04045C8.40786 7.22798 8.1535 7.33334 7.88828 7.33334H7.88666C7.84383 7.33763 7.80155 7.34627 7.76048 7.35914C7.71556 7.3638 7.67121 7.37288 7.62807 7.38624C7.59136 7.40618 7.55664 7.42959 7.52439 7.45614C7.4861 7.47697 7.44993 7.50147 7.41639 7.5293C7.38641 7.56508 7.36026 7.60389 7.33835 7.64511C7.31406 7.67517 7.29249 7.70733 7.2739 7.74122C7.25941 7.78717 7.24983 7.83452 7.24533 7.88249C7.23372 7.92082 7.22578 7.96017 7.22162 8V8.66667L7.22316 8.67424L7.2239 9.00163C7.22436 9.17815 7.29479 9.34729 7.41977 9.47195C7.54474 9.59662 7.71404 9.66664 7.89057 9.66667H7.89219C8.069 9.66623 8.23839 9.59558 8.36311 9.47025C8.48783 9.34492 8.55765 9.17519 8.55723 8.99838L8.55621 8.55746C9.03592 8.41486 9.45693 8.12153 9.7569 7.72094C10.0569 7.32035 10.2198 6.83379 10.2216 6.33334ZM7.41986 10.86C7.32626 10.9528 7.26228 11.0713 7.23602 11.2005C7.20975 11.3297 7.22238 11.4638 7.27231 11.5858C7.32224 11.7078 7.40722 11.8123 7.51651 11.886C7.6258 11.9597 7.7545 11.9994 7.88633 12C8.06314 11.9986 8.23265 11.9294 8.35997 11.8067C8.48371 11.6802 8.553 11.5103 8.553 11.3334C8.553 11.1564 8.48371 10.9865 8.35997 10.8601C8.23234 10.7411 8.06438 10.675 7.88992 10.675C7.71547 10.675 7.5475 10.7411 7.41986 10.86V10.86Z" fill="white"/>
</svg>
