<svg width="32" height="32" viewBox="0 0 32 32" fill="none" xmlns="http://www.w3.org/2000/svg">
<path d="M16 0C7.2 0 0 7.2 0 16C0 24.8 7.2 32 16 32C24.8 32 32 24.8 32 16C32 7.2 24.8 0 16 0Z" fill="#FF6961"/>
<path d="M21.9196 21.9196C22.5596 21.2796 22.5596 20.3196 21.9196 19.6796L18.2396 15.9996L21.9196 12.3196C22.5596 11.6796 22.5596 10.7196 21.9196 10.0796C21.2796 9.43961 20.3196 9.43961 19.6796 10.0796L15.9996 13.7596L12.3196 10.0796C11.6796 9.43961 10.7196 9.43961 10.0796 10.0796C9.43961 10.7196 9.43961 11.6796 10.0796 12.3196L13.7596 15.9996L10.0796 19.6796C9.43961 20.3196 9.43961 21.2796 10.0796 21.9196C10.7196 22.5596 11.6796 22.5596 12.3196 21.9196L15.9996 18.2396L19.6796 21.9196C20.3196 22.5596 21.2796 22.5596 21.9196 21.9196Z" fill="#353446"/>
</svg>
