<svg width="32" height="32" viewBox="0 0 32 32" fill="none" xmlns="http://www.w3.org/2000/svg">
<circle cx="16" cy="16" r="16" fill="#30DB5B"/>
<path d="M24.5877 10.3762C24.4686 10.257 24.327 10.1624 24.1709 10.0978C24.0148 10.0332 23.8474 10 23.6783 10C23.5092 10 23.3418 10.0332 23.1858 10.0978C23.0297 10.1624 22.888 10.257 22.769 10.3762L13.2271 19.864L9.21822 15.8705C9.0946 15.7519 8.94867 15.6586 8.78875 15.596C8.62884 15.5335 8.45808 15.5028 8.28622 15.5057C8.11437 15.5087 7.94478 15.5452 7.78714 15.6133C7.6295 15.6813 7.48691 15.7795 7.36749 15.9022C7.24807 16.025 7.15417 16.1699 7.09115 16.3287C7.02813 16.4875 6.99722 16.6571 7.0002 16.8277C7.00317 16.9984 7.03996 17.1668 7.10848 17.3233C7.17699 17.4798 7.27588 17.6214 7.39951 17.74L12.3177 22.6238C12.4368 22.743 12.5785 22.8376 12.7345 22.9022C12.8906 22.9668 13.058 23 13.2271 23C13.3962 23 13.5636 22.9668 13.7197 22.9022C13.8757 22.8376 14.0174 22.743 14.1364 22.6238L24.5877 12.2458C24.7177 12.1267 24.8214 11.9821 24.8924 11.8212C24.9634 11.6604 25 11.4866 25 11.311C25 11.1353 24.9634 10.9616 24.8924 10.8007C24.8214 10.6398 24.7177 10.4953 24.5877 10.3762Z" fill="#353446"/>
</svg>
