<svg width="24" height="24" viewBox="0 0 24 24" fill="none" xmlns="http://www.w3.org/2000/svg">
<rect width="24" height="24" rx="12" fill="#353446"/>
<path d="M14.8466 6.91333C14.9997 7.00025 15.1809 7.02309 15.3508 6.97688C15.5206 6.93067 15.6653 6.81915 15.7533 6.66667C15.826 6.53824 15.9394 6.43759 16.0755 6.38052C16.2117 6.32344 16.3629 6.31317 16.5055 6.3513C16.6481 6.38943 16.774 6.47381 16.8635 6.59121C16.953 6.70861 17.001 6.85239 16.9999 7C16.9999 7.17681 16.9297 7.34638 16.8047 7.4714C16.6796 7.59643 16.5101 7.66667 16.3333 7.66667C16.1565 7.66667 15.9869 7.7369 15.8619 7.86193C15.7368 7.98695 15.6666 8.15652 15.6666 8.33333C15.6666 8.51014 15.7368 8.67971 15.8619 8.80474C15.9869 8.92976 16.1565 9 16.3333 9C16.6843 8.99977 17.0291 8.90717 17.333 8.73149C17.6368 8.55581 17.8891 8.30324 18.0645 7.99917C18.2399 7.69509 18.3321 7.35022 18.332 6.9992C18.3318 6.64818 18.2393 6.30338 18.0637 5.99944C17.8881 5.69551 17.6356 5.44315 17.3316 5.26771C17.0275 5.09227 16.6827 4.99994 16.3317 5C15.9806 5.00006 15.6358 5.0925 15.3318 5.26803C15.0279 5.44356 14.7754 5.69601 14.5999 6C14.5559 6.07609 14.5273 6.16015 14.5158 6.24733C14.5043 6.33452 14.5103 6.42311 14.5332 6.508C14.5561 6.5929 14.5956 6.67241 14.6494 6.74198C14.7032 6.81154 14.7702 6.86978 14.8466 6.91333ZM17.7133 11.6667C17.5383 11.644 17.3614 11.6915 17.2214 11.799C17.0815 11.9065 16.9898 12.0651 16.9666 12.24C16.8267 13.3701 16.2784 14.4101 15.425 15.164C14.5716 15.9179 13.472 16.3338 12.3333 16.3333H8.6066L9.03993 15.9C9.1641 15.7751 9.23379 15.6061 9.23379 15.43C9.23379 15.2539 9.1641 15.0849 9.03993 14.96C8.3899 14.3074 7.94752 13.477 7.76853 12.5735C7.58953 11.67 7.68192 10.7337 8.03406 9.88255C8.3862 9.03143 8.98234 8.30355 9.74739 7.79059C10.5124 7.27764 11.4122 7.00256 12.3333 7C12.5101 7 12.6796 6.92976 12.8047 6.80474C12.9297 6.67971 12.9999 6.51014 12.9999 6.33333C12.9999 6.15652 12.9297 5.98695 12.8047 5.86193C12.6796 5.7369 12.5101 5.66667 12.3333 5.66667C11.2061 5.67137 10.103 5.99349 9.15046 6.59613C8.1979 7.19877 7.43435 8.05755 6.94731 9.07408C6.46026 10.0906 6.26941 11.2238 6.39663 12.3438C6.52384 13.4638 6.96397 14.5253 7.6666 15.4067L6.5266 16.5267C6.43409 16.6204 6.37143 16.7395 6.34651 16.8688C6.3216 16.9981 6.33554 17.1319 6.3866 17.2533C6.43661 17.3751 6.52154 17.4793 6.63069 17.5529C6.73984 17.6264 6.86831 17.666 6.99993 17.6667H12.3333C13.7942 17.6669 15.2051 17.134 16.3011 16.168C17.3972 15.2021 18.1032 13.8694 18.2866 12.42C18.2988 12.3328 18.2936 12.2441 18.2713 12.159C18.2491 12.0738 18.2102 11.9939 18.1569 11.9239C18.1036 11.8539 18.0369 11.7951 17.9608 11.7509C17.8846 11.7068 17.8005 11.6781 17.7133 11.6667ZM16.5866 9.71333C16.4652 9.65964 16.3306 9.64339 16.1999 9.66667L16.0799 9.70667L15.9599 9.76667L15.8599 9.85333C15.8 9.91477 15.7524 9.9872 15.7199 10.0667C15.6805 10.1498 15.6622 10.2414 15.6666 10.3333C15.6647 10.4222 15.6805 10.5106 15.7133 10.5933C15.7477 10.6733 15.7976 10.7458 15.8599 10.8067C15.9222 10.8685 15.9961 10.9173 16.0773 10.9505C16.1586 10.9837 16.2455 11.0005 16.3333 11C16.5101 11 16.6796 10.9298 16.8047 10.8047C16.9297 10.6797 16.9999 10.5101 16.9999 10.3333C17.0022 10.2459 16.9839 10.1591 16.9466 10.08C16.875 9.9198 16.7468 9.79163 16.5866 9.72V9.71333Z" fill="white"/>
</svg>
