<svg width="16" height="16" viewBox="0 0 16 16" fill="none" xmlns="http://www.w3.org/2000/svg">
<path d="M9.60665 11.2449C9.15186 11.5784 8.58841 11.7289 8.02788 11.6667C7.46804 11.7291 6.90523 11.5787 6.45106 11.2455C6.32586 11.1212 6.15652 11.0515 5.9801 11.0518C5.80367 11.0521 5.63453 11.1222 5.50969 11.2469C5.38485 11.3715 5.31448 11.5406 5.31399 11.717C5.3135 11.8934 5.38292 12.0629 5.50706 12.1882C5.85177 12.485 6.25242 12.7097 6.68536 12.8491C7.1183 12.9885 7.57478 13.0399 8.02788 13.0001C8.48102 13.0397 8.9375 12.9883 9.37052 12.849C9.80353 12.7097 10.2043 12.4853 10.5494 12.1889C10.6116 12.127 10.661 12.0535 10.6947 11.9725C10.7285 11.8916 10.746 11.8047 10.7461 11.717C10.7463 11.6293 10.7291 11.5424 10.6957 11.4613C10.6622 11.3802 10.613 11.3065 10.5511 11.2445C10.4891 11.1824 10.4155 11.1332 10.3344 11.0996C10.2534 11.066 10.1665 11.0487 10.0788 11.0488C9.99105 11.0488 9.9042 11.0661 9.82318 11.0998C9.74217 11.1334 9.66859 11.1827 9.60666 11.2449L9.60665 11.2449ZM6.13354 10.0012C6.2654 10.0011 6.39428 9.96199 6.50389 9.88871C6.6135 9.81542 6.69892 9.71127 6.74934 9.58944C6.79976 9.46761 6.81292 9.33356 6.78716 9.20425C6.7614 9.07493 6.69787 8.95617 6.60461 8.86296C6.51134 8.76975 6.39254 8.70629 6.26321 8.68061C6.13388 8.65492 5.99984 8.66817 5.87804 8.71866C5.75624 8.76916 5.65214 8.85464 5.57892 8.96429C5.5057 9.07395 5.46664 9.20285 5.46668 9.3347C5.46687 9.51147 5.5372 9.68094 5.66224 9.8059C5.78727 9.93085 5.95678 10.0011 6.13354 10.0012ZM10.1335 8.66784C10.0017 8.6678 9.87279 8.70686 9.76313 8.78008C9.65348 8.8533 9.568 8.95739 9.5175 9.0792C9.46701 9.201 9.45376 9.33504 9.47945 9.46437C9.50513 9.5937 9.56859 9.7125 9.6618 9.80577C9.75501 9.89903 9.87378 9.96256 10.0031 9.98832C10.1324 10.0141 10.2664 10.0009 10.3883 9.9505C10.5101 9.90008 10.6143 9.81466 10.6875 9.70505C10.7608 9.59544 10.8 9.46656 10.8 9.3347C10.7998 9.15797 10.7296 8.98852 10.6046 8.86351C10.4797 8.7385 10.3103 8.66813 10.1335 8.66784ZM15.3332 7.85358C15.3344 7.32487 15.169 6.80923 14.8603 6.37996C14.5517 5.95069 14.1155 5.62964 13.614 5.46244C13.1124 5.29524 12.5709 5.29041 12.0664 5.44864C11.5619 5.60686 11.1201 5.92008 10.8039 6.34378C10.1375 6.17414 9.45678 6.06734 8.77051 6.02477L9.34103 2.22144L10.7327 2.69466C10.7391 3.22408 10.9553 3.72933 11.3339 4.09943C11.7125 4.46954 12.2225 4.67423 12.752 4.66854C13.2814 4.66286 13.7869 4.44727 14.1575 4.06913C14.5281 3.69098 14.7334 3.18121 14.7284 2.65178V2.63679C14.7157 2.11314 14.4999 1.61493 14.1268 1.24734C13.7536 0.879761 13.2522 0.671575 12.7284 0.666738C12.4279 0.668984 12.1318 0.739459 11.8624 0.872846C11.5931 1.00623 11.3576 1.19905 11.1737 1.43674L9.01485 0.702545C8.92246 0.670928 8.82424 0.660016 8.72716 0.670582C8.63008 0.681147 8.53651 0.712933 8.45308 0.763686C8.36966 0.814439 8.29841 0.882917 8.24439 0.96427C8.19037 1.04562 8.15491 1.13786 8.1405 1.23445L7.42285 6.01807C6.67142 6.05097 5.92526 6.1601 5.19588 6.34378C4.80966 5.82282 4.23691 5.47144 3.59751 5.36318C2.9581 5.25492 2.3016 5.39816 1.76541 5.76294C1.22922 6.12771 0.854905 6.68574 0.720801 7.32023C0.586697 7.95472 0.703202 8.61648 1.04593 9.16702C0.800284 9.62898 0.670115 10.1435 0.666545 10.6667C0.666545 13.2833 3.88788 15.3334 7.99988 15.3334C12.1119 15.3334 15.3332 13.2833 15.3332 10.6667C15.3297 10.1437 15.1996 9.62932 14.9541 9.16747C15.199 8.77277 15.3302 8.3181 15.3332 7.85358ZM12.7284 2.00007C12.8602 2.00007 12.9891 2.03917 13.0988 2.11243C13.2084 2.18568 13.2939 2.2898 13.3443 2.41162C13.3948 2.53343 13.408 2.66748 13.3822 2.7968C13.3565 2.92612 13.293 3.04491 13.1998 3.13814C13.1066 3.23138 12.9878 3.29487 12.8585 3.3206C12.7291 3.34632 12.5951 3.33312 12.4733 3.28266C12.3515 3.2322 12.2473 3.14675 12.1741 3.03712C12.1008 2.92749 12.0617 2.79859 12.0617 2.66674C12.0646 2.49082 12.1358 2.32292 12.2602 2.19851C12.3846 2.0741 12.5525 2.00294 12.7284 2.00007ZM3.18672 6.66674C3.39391 6.6693 3.59673 6.72669 3.77454 6.83308C3.13104 7.1098 2.53528 7.48641 2.00928 7.949C2.00661 7.9171 1.99988 7.88567 1.99988 7.85358C2.00028 7.53894 2.12545 7.23729 2.34794 7.0148C2.57043 6.79231 2.87208 6.66714 3.18672 6.66674ZM7.99988 14.0001C4.74727 14.0001 1.99988 12.4734 1.99988 10.6667C1.99988 8.86007 4.74727 7.3334 7.99988 7.3334C11.2525 7.3334 13.9999 8.86007 13.9999 10.6667C13.9999 12.4734 11.2525 14.0001 7.99988 14.0001ZM13.9905 7.94904C13.4645 7.48643 12.8687 7.1098 12.2252 6.83308C12.403 6.7267 12.6058 6.66931 12.813 6.66674C13.1277 6.66714 13.4293 6.79231 13.6518 7.0148C13.8743 7.23729 13.9995 7.53894 13.9999 7.85358C13.9999 7.88565 13.9932 7.91714 13.9905 7.94904Z" fill="#A78BFA"/>
</svg>
