<svg width="16" height="16" viewBox="0 0 16 16" fill="none" xmlns="http://www.w3.org/2000/svg">
<path d="M13.2469 5.73334C13.1972 5.61915 13.1166 5.52116 13.0141 5.45046C12.9116 5.37976 12.7913 5.33919 12.6669 5.33334H9.61358L10.4602 2.17334C10.4872 2.07445 10.491 1.97069 10.4714 1.87009C10.4517 1.7695 10.4091 1.6748 10.3469 1.59334C10.2848 1.51266 10.205 1.44728 10.1138 1.40221C10.0225 1.35714 9.92206 1.33358 9.82024 1.33334H5.15358C5.00307 1.32818 4.85525 1.37414 4.73419 1.46372C4.61314 1.5533 4.52598 1.68123 4.48691 1.82667L2.70024 8.49334C2.67328 8.59222 2.66948 8.69599 2.68913 8.79658C2.70879 8.89717 2.75137 8.99188 2.81358 9.07334C2.87637 9.15491 2.95719 9.22083 3.04972 9.26594C3.14225 9.31105 3.24397 9.33412 3.34691 9.33334H5.92691L4.72024 13.8267C4.68071 13.9716 4.69126 14.1256 4.75018 14.2637C4.8091 14.4019 4.91295 14.5161 5.04488 14.5878C5.17682 14.6596 5.32912 14.6847 5.47711 14.6591C5.6251 14.6334 5.7601 14.5586 5.86024 14.4467L13.1269 6.44667C13.2134 6.35193 13.2708 6.23423 13.2921 6.10769C13.3134 5.98116 13.2977 5.85118 13.2469 5.73334ZM6.72024 11.52L7.43358 8.85334C7.46054 8.75445 7.46434 8.65069 7.44469 8.55009C7.42503 8.4495 7.38245 8.3548 7.32024 8.27334C7.25814 8.19266 7.17838 8.12728 7.08709 8.08221C6.99579 8.03714 6.89539 8.01358 6.79358 8.01334H4.23358L5.66024 2.66667H8.94691L8.10024 5.82667C8.07306 5.92737 8.06989 6.03305 8.09098 6.13521C8.11207 6.23736 8.15684 6.33314 8.22168 6.41484C8.28653 6.49654 8.36964 6.56189 8.46433 6.60563C8.55903 6.64937 8.66266 6.67027 8.76691 6.66667H11.1469L6.72024 11.52Z" fill="white"/>
</svg>