<svg width="16" height="16" viewBox="0 0 16 16" fill="none" xmlns="http://www.w3.org/2000/svg">
<path d="M14.4738 13.5267L12.0004 11.0733C12.9605 9.87627 13.4254 8.35686 13.2996 6.82753C13.1738 5.2982 12.4669 3.87519 11.3241 2.85109C10.1813 1.827 8.68963 1.27967 7.15571 1.32164C5.62178 1.36362 4.16224 1.99171 3.07719 3.07676C1.99213 4.16181 1.36405 5.62136 1.32207 7.15528C1.2801 8.6892 1.82743 10.1809 2.85152 11.3237C3.87561 12.4664 5.29863 13.1734 6.82796 13.2992C8.35729 13.425 9.8767 12.9601 11.0738 12L13.5271 14.4533C13.5891 14.5158 13.6628 14.5654 13.744 14.5993C13.8253 14.6331 13.9124 14.6505 14.0004 14.6505C14.0884 14.6505 14.1756 14.6331 14.2568 14.5993C14.338 14.5654 14.4118 14.5158 14.4738 14.4533C14.5939 14.329 14.6611 14.1629 14.6611 13.99C14.6611 13.8171 14.5939 13.651 14.4738 13.5267ZM7.33376 12C6.41078 12 5.50853 11.7263 4.7411 11.2135C3.97367 10.7007 3.37553 9.97191 3.02232 9.11919C2.66911 8.26646 2.5767 7.32815 2.75676 6.42291C2.93682 5.51766 3.38128 4.68614 4.03393 4.0335C4.68657 3.38085 5.51809 2.9364 6.42334 2.75633C7.32858 2.57627 8.26689 2.66868 9.11961 3.02189C9.97234 3.3751 10.7012 3.97324 11.2139 4.74067C11.7267 5.5081 12.0004 6.41035 12.0004 7.33333C12.0004 8.57101 11.5088 9.75799 10.6336 10.6332C9.75842 11.5083 8.57143 12 7.33376 12Z" fill="white"/>
</svg>
