<svg width="16" height="16" viewBox="0 0 16 16" fill="none" xmlns="http://www.w3.org/2000/svg">
<path d="M5.80683 5.14L7.3335 3.60666V10C7.3335 10.1768 7.40373 10.3464 7.52876 10.4714C7.65378 10.5964 7.82335 10.6667 8.00016 10.6667C8.17697 10.6667 8.34654 10.5964 8.47157 10.4714C8.59659 10.3464 8.66683 10.1768 8.66683 10V3.60666L10.1935 5.14C10.2555 5.20248 10.3292 5.25208 10.4104 5.28592C10.4917 5.31977 10.5788 5.3372 10.6668 5.3372C10.7548 5.3372 10.842 5.31977 10.9232 5.28592C11.0045 5.25208 11.0782 5.20248 11.1402 5.14C11.2026 5.07802 11.2522 5.00429 11.2861 4.92305C11.3199 4.84181 11.3374 4.75467 11.3374 4.66666C11.3374 4.57866 11.3199 4.49152 11.2861 4.41028C11.2522 4.32904 11.2026 4.25531 11.1402 4.19333L8.4735 1.52666C8.41009 1.46597 8.33533 1.41839 8.2535 1.38666C8.09119 1.31998 7.90914 1.31998 7.74683 1.38666C7.665 1.41839 7.59023 1.46597 7.52683 1.52666L4.86016 4.19333C4.798 4.25549 4.7487 4.32928 4.71506 4.4105C4.68142 4.49171 4.6641 4.57876 4.6641 4.66666C4.6641 4.75457 4.68142 4.84162 4.71506 4.92283C4.7487 5.00404 4.798 5.07784 4.86016 5.14C4.92232 5.20216 4.99612 5.25146 5.07733 5.2851C5.15854 5.31874 5.24559 5.33606 5.3335 5.33606C5.4214 5.33606 5.50845 5.31874 5.58966 5.2851C5.67088 5.25146 5.74467 5.20216 5.80683 5.14ZM14.0002 8C13.8234 8 13.6538 8.07024 13.5288 8.19526C13.4037 8.32028 13.3335 8.48985 13.3335 8.66666V12.6667C13.3335 12.8435 13.2633 13.013 13.1382 13.1381C13.0132 13.2631 12.8436 13.3333 12.6668 13.3333H3.3335C3.15669 13.3333 2.98712 13.2631 2.86209 13.1381C2.73707 13.013 2.66683 12.8435 2.66683 12.6667V8.66666C2.66683 8.48985 2.59659 8.32028 2.47157 8.19526C2.34654 8.07024 2.17697 8 2.00016 8C1.82335 8 1.65378 8.07024 1.52876 8.19526C1.40373 8.32028 1.3335 8.48985 1.3335 8.66666V12.6667C1.3335 13.1971 1.54421 13.7058 1.91928 14.0809C2.29436 14.456 2.80306 14.6667 3.3335 14.6667H12.6668C13.1973 14.6667 13.706 14.456 14.081 14.0809C14.4561 13.7058 14.6668 13.1971 14.6668 12.6667V8.66666C14.6668 8.48985 14.5966 8.32028 14.4716 8.19526C14.3465 8.07024 14.177 8 14.0002 8Z" fill="white"/>
</svg>
