<svg width="16" height="16" viewBox="0 0 16 16" fill="none" xmlns="http://www.w3.org/2000/svg">
<path d="M6.19598 9.52667L6.00265 9.72667V4.66667C6.00265 4.48986 5.93241 4.32029 5.80738 4.19526C5.68236 4.07024 5.51279 4 5.33598 4C5.15917 4 4.9896 4.07024 4.86458 4.19526C4.73955 4.32029 4.66931 4.48986 4.66931 4.66667V9.72667L4.47598 9.52667C4.35044 9.40113 4.18018 9.33061 4.00265 9.33061C3.82511 9.33061 3.65485 9.40113 3.52931 9.52667C3.40378 9.6522 3.33325 9.82247 3.33325 10C3.33325 10.1775 3.40378 10.3478 3.52931 10.4733L4.86265 11.8067C4.92605 11.8674 5.00081 11.9149 5.08265 11.9467C5.16245 11.9819 5.24873 12.0002 5.33598 12.0002C5.42323 12.0002 5.50951 11.9819 5.58931 11.9467C5.67115 11.9149 5.74591 11.8674 5.80931 11.8067L7.14265 10.4733C7.20481 10.4112 7.25411 10.3374 7.28775 10.2562C7.32139 10.175 7.33871 10.0879 7.33871 10C7.33871 9.91209 7.32139 9.82505 7.28775 9.74383C7.25411 9.66262 7.20481 9.58883 7.14265 9.52667C7.08049 9.46451 7.00669 9.4152 6.92548 9.38156C6.84426 9.34792 6.75722 9.33061 6.66931 9.33061C6.58141 9.33061 6.49436 9.34792 6.41315 9.38156C6.33193 9.4152 6.25814 9.46451 6.19598 9.52667Z" fill="white"/>
<path d="M11.5319 6.4735L11.3386 6.2735V11.3335C11.3386 11.5103 11.2683 11.6799 11.1433 11.8049C11.0183 11.9299 10.8487 12.0002 10.6719 12.0002C10.4951 12.0002 10.3255 11.9299 10.2005 11.8049C10.0755 11.6799 10.0053 11.5103 10.0053 11.3335V6.2735L9.81192 6.4735C9.68638 6.59903 9.51612 6.66956 9.33858 6.66956C9.16105 6.66956 8.99079 6.59903 8.86525 6.4735C8.73971 6.34796 8.66919 6.1777 8.66919 6.00016C8.66919 5.82263 8.73971 5.65237 8.86525 5.52683L10.1986 4.1935C10.262 4.1328 10.3367 4.08523 10.4186 4.0535C10.4984 4.01823 10.5847 4.00001 10.6719 4.00001C10.7592 4.00001 10.8455 4.01823 10.9253 4.0535C11.0071 4.08523 11.0818 4.1328 11.1453 4.1935L12.4786 5.52683C12.5407 5.58899 12.5901 5.66278 12.6237 5.744C12.6573 5.82521 12.6746 5.91226 12.6746 6.00016C12.6746 6.08807 12.6573 6.17512 12.6237 6.25633C12.5901 6.33754 12.5407 6.41134 12.4786 6.4735C12.4164 6.53566 12.3426 6.58496 12.2614 6.6186C12.1802 6.65224 12.0932 6.66956 12.0053 6.66956C11.9173 6.66956 11.8303 6.65224 11.7491 6.6186C11.6679 6.58496 11.5941 6.53566 11.5319 6.4735Z" fill="white"/>
</svg>
