<svg width="16" height="16" viewBox="0 0 16 16" fill="none" xmlns="http://www.w3.org/2000/svg">
<path d="M7.99998 1.33333C6.68144 1.33333 5.39251 1.72432 4.29618 2.45686C3.19985 3.18941 2.34537 4.2306 1.84079 5.44877C1.3362 6.66695 1.20418 8.00739 1.46141 9.3006C1.71865 10.5938 2.35359 11.7817 3.28594 12.714C4.21829 13.6464 5.40617 14.2813 6.69938 14.5386C7.99259 14.7958 9.33303 14.6638 10.5512 14.1592C11.7694 13.6546 12.8106 12.8001 13.5431 11.7038C14.2757 10.6075 14.6666 9.31854 14.6666 8C14.6666 7.12452 14.4942 6.25761 14.1592 5.44877C13.8241 4.63993 13.3331 3.90501 12.714 3.28595C12.095 2.66689 11.36 2.17583 10.5512 1.8408C9.74237 1.50577 8.87546 1.33333 7.99998 1.33333ZM7.99998 13.3333C6.94515 13.3333 5.914 13.0205 5.03694 12.4345C4.15988 11.8485 3.47629 11.0155 3.07263 10.041C2.66896 9.06643 2.56334 7.99408 2.76913 6.95951C2.97492 5.92495 3.48287 4.97464 4.22875 4.22876C4.97463 3.48288 5.92494 2.97493 6.9595 2.76914C7.99407 2.56335 9.06642 2.66897 10.041 3.07264C11.0155 3.47631 11.8485 4.15989 12.4345 5.03695C13.0205 5.91402 13.3333 6.94516 13.3333 8C13.3333 9.41448 12.7714 10.771 11.7712 11.7712C10.771 12.7714 9.41447 13.3333 7.99998 13.3333Z" fill="white"/>
<path d="M6.67825 8.10234L9.9033 6.59847C10.0687 6.52135 10.1967 6.38168 10.2591 6.2102C10.4687 5.63416 9.87729 5.09218 9.32171 5.35125L6.09666 6.85512C5.93127 6.93224 5.80329 7.07191 5.74087 7.24339C5.53121 7.81944 6.12267 8.36141 6.67825 8.10234Z" fill="white"/>
<path d="M6.67589 10.6574L9.90107 9.16425C10.0668 9.08751 10.1951 8.94787 10.2576 8.77625C10.4664 8.20263 9.87842 7.6624 9.32448 7.91886L6.0993 9.41204C5.93356 9.48878 5.80525 9.62842 5.74279 9.80005C5.53401 10.3737 6.12195 10.9139 6.67589 10.6574Z" fill="white"/>
</svg>
