<svg width="12" height="12" viewBox="0 0 12 12" fill="none" xmlns="http://www.w3.org/2000/svg">
<circle cx="6" cy="6" r="6" fill="#34D399"/>
<path d="M7.81363 3.86L4.95363 6.72667L3.85363 5.62667C3.79387 5.55688 3.72032 5.5002 3.63761 5.46018C3.5549 5.42017 3.46481 5.39768 3.373 5.39413C3.28119 5.39059 3.18963 5.40606 3.10408 5.43957C3.01853 5.47309 2.94084 5.52393 2.87587 5.5889C2.8109 5.65387 2.76006 5.73157 2.72654 5.81712C2.69302 5.90267 2.67755 5.99422 2.6811 6.08603C2.68465 6.17785 2.70713 6.26794 2.74715 6.35065C2.78716 6.43336 2.84384 6.5069 2.91363 6.56667L4.4803 8.14C4.54259 8.20179 4.61647 8.25067 4.69769 8.28385C4.77892 8.31702 4.8659 8.33384 4.95363 8.33333C5.12853 8.3326 5.29613 8.26316 5.4203 8.14L8.75363 4.80667C8.81612 4.74469 8.86572 4.67096 8.89956 4.58972C8.93341 4.50848 8.95083 4.42134 8.95083 4.33333C8.95083 4.24532 8.93341 4.15819 8.89956 4.07695C8.86572 3.99571 8.81612 3.92197 8.75363 3.86C8.62872 3.73583 8.45976 3.66614 8.28363 3.66614C8.10751 3.66614 7.93854 3.73583 7.81363 3.86Z" fill="#21212C"/>
</svg>
