<svg width="24" height="24" viewBox="0 0 24 24" fill="none" xmlns="http://www.w3.org/2000/svg">
<circle cx="12" cy="12" r="9" fill="#34D399"/>
<path d="M14.7204 8.78997L10.4304 13.09L8.78045 11.44C8.6908 11.3353 8.58048 11.2503 8.45642 11.1902C8.33235 11.1302 8.19722 11.0965 8.0595 11.0912C7.92178 11.0859 7.78445 11.1091 7.65613 11.1593C7.5278 11.2096 7.41125 11.2859 7.3138 11.3833C7.21634 11.4808 7.14009 11.5973 7.08981 11.7256C7.03954 11.854 7.01633 11.9913 7.02165 12.129C7.02697 12.2667 7.0607 12.4019 7.12072 12.5259C7.18075 12.65 7.26577 12.7603 7.37045 12.85L9.72045 15.21C9.81389 15.3026 9.9247 15.376 10.0465 15.4257C10.1684 15.4755 10.2988 15.5007 10.4304 15.5C10.6928 15.4989 10.9442 15.3947 11.1304 15.21L16.1304 10.21C16.2242 10.117 16.2986 10.0064 16.3493 9.88455C16.4001 9.76269 16.4262 9.63198 16.4262 9.49997C16.4262 9.36796 16.4001 9.23725 16.3493 9.11539C16.2986 8.99353 16.2242 8.88293 16.1304 8.78997C15.9431 8.60372 15.6896 8.49918 15.4254 8.49918C15.1613 8.49918 14.9078 8.60372 14.7204 8.78997Z" fill="#353446"/>
</svg>
