<svg width="16" height="16" viewBox="0 0 12 12" fill="none" xmlns="http://www.w3.org/2000/svg">
<path d="M5.99713 1.00003C5.00823 1.00003 4.04153 1.29328 3.21928 1.84268C2.39704 2.39209 1.75617 3.17298 1.37774 4.08661C0.999298 5.00024 0.900281 6.00558 1.09321 6.97548C1.28613 7.94539 1.76234 8.8363 2.4616 9.53556C3.16086 10.2348 4.05178 10.711 5.02168 10.904C5.99159 11.0969 6.99692 10.9979 7.91055 10.6194C8.82418 10.241 9.60507 9.60013 10.1545 8.77788C10.7039 7.95564 10.9971 6.98894 10.9971 6.00003C10.9972 5.34341 10.8679 4.6932 10.6166 4.08655C10.3654 3.4799 9.99709 2.92868 9.53279 2.46438C9.06848 2.00007 8.51727 1.63178 7.91061 1.38052C7.30396 1.12927 6.65376 0.999976 5.99713 1.00003ZM7.58689 8.57627C7.56817 8.62293 7.5397 8.66505 7.50337 8.69982C7.46704 8.73458 7.42371 8.76117 7.37626 8.77781C7.32882 8.79446 7.27837 8.80076 7.22829 8.79632C7.17821 8.79187 7.12965 8.77676 7.08589 8.75202L5.72855 7.69733L4.85739 8.50103C4.83718 8.51597 4.81353 8.52558 4.78863 8.52898C4.76373 8.53238 4.73837 8.52947 4.71489 8.5205L4.88189 7.02627L4.88724 7.03051L4.89065 7.00101C4.89065 7.00101 7.33315 4.77726 7.43265 4.68251C7.53339 4.58801 7.50015 4.56751 7.50015 4.56751C7.50589 4.45225 7.31939 4.56751 7.31939 4.56751L4.08313 6.64953L2.73539 6.19053C2.73539 6.19053 2.52839 6.11628 2.50889 5.95303C2.48839 5.79103 2.74213 5.70303 2.74213 5.70303L8.10063 3.57428C8.10063 3.57428 8.54113 3.37802 8.54113 3.70303L7.58689 8.57627Z" fill="#8B5CF6"/>
</svg>
