<svg width="24" height="24" viewBox="0 0 24 24" fill="none" xmlns="http://www.w3.org/2000/svg">
<rect width="24" height="24" rx="5" fill="#FFD75C"/>
<path d="M13.5267 13.8038L13.7267 13.9971L8.66667 13.9971C8.48986 13.9971 8.32029 14.0673 8.19526 14.1924C8.07024 14.3174 8 14.487 8 14.6638C8 14.8406 8.07024 15.0102 8.19526 15.1352C8.32029 15.2602 8.48986 15.3304 8.66667 15.3304L13.7267 15.3304L13.5267 15.5238C13.4011 15.6493 13.3306 15.8196 13.3306 15.9971C13.3306 16.1746 13.4011 16.3449 13.5267 16.4704C13.6522 16.596 13.8225 16.6665 14 16.6665C14.1775 16.6665 14.3478 16.596 14.4733 16.4704L15.8067 15.1371C15.8674 15.0737 15.9149 14.9989 15.9467 14.9171C15.9819 14.8373 16.0002 14.751 16.0002 14.6638C16.0002 14.5765 15.9819 14.4902 15.9467 14.4104C15.9149 14.3286 15.8674 14.2538 15.8067 14.1904L14.4733 12.8571C14.4112 12.7949 14.3374 12.7456 14.2562 12.712C14.175 12.6784 14.0879 12.661 14 12.661C13.9121 12.661 13.825 12.6784 13.7438 12.712C13.6626 12.7456 13.5888 12.7949 13.5267 12.8571C13.4645 12.9193 13.4152 12.9931 13.3816 13.0743C13.3479 13.1555 13.3306 13.2425 13.3306 13.3304C13.3306 13.4183 13.3479 13.5054 13.3816 13.5866C13.4152 13.6678 13.4645 13.7416 13.5267 13.8038Z" fill="#2A2938"/>
<path d="M10.4733 8.46784L10.2733 8.66117L15.3333 8.66117C15.5101 8.66117 15.6797 8.73141 15.8047 8.85643C15.9298 8.98146 16 9.15103 16 9.32784C16 9.50465 15.9298 9.67422 15.8047 9.79924C15.6797 9.92427 15.5101 9.99451 15.3333 9.99451L10.2733 9.99451L10.4733 10.1878C10.5989 10.3134 10.6694 10.4836 10.6694 10.6612C10.6694 10.8387 10.5989 11.009 10.4733 11.1345C10.3478 11.26 10.1775 11.3306 10 11.3306C9.82247 11.3306 9.6522 11.26 9.52667 11.1345L8.19333 9.80117C8.13264 9.73777 8.08506 9.66301 8.05333 9.58117C8.01806 9.50137 7.99984 9.41509 7.99984 9.32784C7.99984 9.24059 8.01806 9.15431 8.05333 9.07451C8.08506 8.99267 8.13264 8.91791 8.19333 8.85451L9.52667 7.52117C9.58883 7.45901 9.66262 7.40971 9.74383 7.37607C9.82505 7.34243 9.91209 7.32511 10 7.32511C10.0879 7.32511 10.175 7.34243 10.2562 7.37607C10.3374 7.40971 10.4112 7.45901 10.4733 7.52117C10.5355 7.58333 10.5848 7.65712 10.6184 7.73834C10.6521 7.81955 10.6694 7.9066 10.6694 7.99451C10.6694 8.08241 10.6521 8.16946 10.6184 8.25067C10.5848 8.33189 10.5355 8.40568 10.4733 8.46784Z" fill="#2A2938"/>
</svg>
