<svg width="16" height="16" viewBox="0 0 12 12" fill="none" xmlns="http://www.w3.org/2000/svg">
<path d="M10.9999 2.90004C10.6241 3.06309 10.2266 3.17088 9.81991 3.22004C10.249 2.9637 10.5705 2.56044 10.7249 2.08504C10.3217 2.32508 9.88029 2.49419 9.41991 2.58504C9.11218 2.25133 8.70239 2.02919 8.25481 1.95347C7.80723 1.87775 7.34718 1.95272 6.9468 2.16664C6.54643 2.38055 6.22837 2.72131 6.04253 3.13546C5.85668 3.54961 5.81355 4.01374 5.91991 4.45504C5.10462 4.41381 4.30713 4.20152 3.57924 3.83197C2.85134 3.46243 2.20933 2.94389 1.69491 2.31004C1.51448 2.62513 1.41967 2.98196 1.41991 3.34504C1.41927 3.68224 1.50202 4.01435 1.66079 4.31183C1.81955 4.6093 2.04942 4.8629 2.32991 5.05004C2.0039 5.04117 1.68485 4.95369 1.39991 4.79504V4.82004C1.40235 5.29249 1.56791 5.74959 1.86857 6.11403C2.16923 6.47846 2.58654 6.72787 3.04991 6.82004C2.87154 6.87433 2.68635 6.90295 2.49991 6.90504C2.37085 6.90354 2.24212 6.89183 2.11491 6.87004C2.24686 7.27645 2.50222 7.63162 2.84545 7.88612C3.18867 8.14063 3.6027 8.28182 4.02991 8.29004C3.30851 8.85768 2.41785 9.16747 1.49991 9.17004C1.33278 9.17059 1.16578 9.16057 0.999908 9.14005C1.93712 9.74517 3.02931 10.0664 4.14491 10.065C4.91475 10.073 5.67848 9.92755 6.39147 9.63708C7.10446 9.34662 7.75242 8.91699 8.29751 8.37329C8.8426 7.8296 9.27389 7.18274 9.56619 6.4705C9.85848 5.75825 10.0059 4.99491 9.99991 4.22504C9.99991 4.14004 9.99991 4.05004 9.99991 3.96004C10.3923 3.66745 10.7306 3.30876 10.9999 2.90004Z" fill="#8B5CF6"/>
</svg>
