<svg width="12" height="12" viewBox="0 0 12 12" fill="none" xmlns="http://www.w3.org/2000/svg">
<path d="M6.095237186735802,0.0816326511474361 C4.9058607325254835,0.0816326511474361 3.7431936969214776,0.4319278151168974 2.7542596577232747,1.0882239337239932 C1.7653256185250732,1.7445290115158254 0.9945500693618822,2.6773503669810874 0.5393984840740312,3.768731373893483 C0.08423787838138357,4.860121339990614 -0.03484950575929204,6.061046298662763 0.19718236685475116,7.219657027829612 C0.4292232598735925,8.378258797811727 1.0019648421056813,9.442520352530062 1.8429822834294107,10.277785145411539 C2.6839997247531397,11.113139530140367 3.7555155698752847,11.681958168991004 4.9220433387327525,11.912477992232885 C6.08857110759022,12.14290822362741 7.297702248307742,12.024646985120109 8.39654089956245,11.572566523371753 C9.495406612031552,11.120486061623398 10.434611159579434,10.354923725983344 11.095355811018948,9.372728303441287 C11.75619066650644,8.390532880899228 12.108798290052798,7.235729805244926 12.108798290052798,6.054425461143302 C12.108798290052798,5.270066755928379 11.953286511338568,4.493386072031692 11.651102950611964,3.768731373893483 C11.348829185837381,3.0440766757552735 10.905927310264957,2.3856482711811515 10.347474049232599,1.8310209809513904 C9.789110992248215,1.2763936907216302 9.126111239609246,0.8364439651050067 8.39654089956245,0.5362843989148524 C7.666943498301257,0.23612483272469856 6.884955585974391,0.0816326511474361 6.095237186735802,0.0816326511474361 zM6.095237186735802,10.83262745607495 C5.143737827448507,10.83262745607495 4.213598786722423,10.552384157551593 3.4224551635257807,10.027375932057067 C2.6313115403291376,9.502367706562545 2.0146856887557063,8.756067618103604 1.6505680286873456,7.882995065638736 C1.2864413482141863,7.0098597988807185 1.1911678327397268,6.0491216237799454 1.3767987430738402,5.122231248609519 C1.562429653407953,4.195349832623828 2.020621115112665,3.343949548033895 2.6934350681716483,2.6757018769897742 C3.3662490212306326,2.007454205945651 4.223467109571227,1.5523724173109361 5.156682108333363,1.3680013546411098 C6.0899061275002975,1.1836302919712829 7.057209235993354,1.2782572011465931 7.936319846778231,1.6399126113605424 C8.815358294324723,2.001568021574492 9.56675801398222,2.6139999717170626 10.095353735133832,3.3997742281201813 C10.623949456285445,4.185557443708037 10.906107718360913,5.109374818514218 10.906107718360913,6.054425461143302 C10.906107718360913,7.321684223596366 10.39925117277202,8.537015551323039 9.497030284895157,9.433113208557893 C8.594809397018293,10.329210865792744 7.371164424981098,10.83262745607495 6.095237186735802,10.83262745607495 z" fill="#16161D" id="svg_1" class=""/><path d="M6.095237186735802,0.0816326511474361 C4.9058607325254835,0.0816326511474361 3.7431936969214776,0.43192781511689754 2.7542596577232747,1.0882239337239932 C1.7653256185250732,1.7445290115158254 0.9945500693618822,2.6773503669810874 0.5393984840740312,3.768731373893483 C0.08423787838138357,4.860121339990614 -0.03484950575929204,6.061046298662763 0.19718236685475116,7.219657027829612 C0.4292232598735925,8.378258797811727 1.0019648421056813,9.442520352530062 1.8429822834294107,10.277785145411539 C2.6839997247531397,11.113139530140367 3.7555155698752847,11.681958168991004 4.9220433387327525,11.912477992232885 C6.08857110759022,12.14290822362741 7.297702248307742,12.024646985120109 8.39654089956245,11.572566523371753 C9.495406612031552,11.120486061623398 10.434611159579434,10.354923725983344 11.095355811018948,9.372728303441287 C11.75619066650644,8.390532880899228 12.108798290052798,7.235729805244926 12.108798290052798,6.054425461143302 C12.108798290052798,5.270066755928379 11.953286511338568,4.493386072031692 11.651102950611964,3.768731373893483 C11.348829185837381,3.0440766757552735 10.905927310264957,2.3856482711811515 10.347474049232599,1.8310209809513904 C9.789110992248215,1.2763936907216302 9.126111239609246,0.8364439651050067 8.39654089956245,0.5362843989148524 C7.666943498301257,0.2361248327246986 6.884955585974391,0.0816326511474361 6.095237186735802,0.0816326511474361 zM6.095237186735802,10.83262745607495 C5.143737827448507,10.83262745607495 4.213598786722423,10.552384157551593 3.4224551635257807,10.027375932057067 C2.6313115403291376,9.502367706562545 2.0146856887557063,8.756067618103604 1.6505680286873456,7.882995065638736 C1.2864413482141863,7.0098597988807185 1.1911678327397268,6.0491216237799454 1.3767987430738402,5.122231248609519 C1.562429653407953,4.195349832623828 2.020621115112665,3.343949548033895 2.6934350681716483,2.6757018769897742 C3.3662490212306326,2.007454205945651 4.223467109571227,1.5523724173109361 5.156682108333363,1.3680013546411098 C6.0899061275002975,1.1836302919712829 7.057209235993354,1.2782572011465931 7.936319846778231,1.6399126113605424 C8.815358294324723,2.001568021574492 9.56675801398222,2.6139999717170626 10.095353735133832,3.3997742281201813 C10.623949456285445,4.185557443708037 10.906107718360913,5.109374818514218 10.906107718360913,6.054425461143302 C10.906107718360913,7.321684223596366 10.39925117277202,8.537015551323039 9.497030284895157,9.433113208557893 C8.594809397018293,10.329210865792744 7.371164424981098,10.83262745607495 6.095237186735802,10.83262745607495 z" fill="#16161D" class="" id="svg_4"/><path d="M4.902983223394982,6.1461137577254 L7.812108872712399,4.798768842922586 C7.9613063680681595,4.72967561024317 8.076767549480117,4.604542677043819 8.133054875418447,4.4509105772011575 C8.322122559980524,3.934825699703091 7.788646799833297,3.4492558054138036 7.287491150076621,3.681361404353849 L4.378365500759204,5.028706319156663 C4.229177025808239,5.097799551836079 4.113733885205879,5.2229324850354315 4.0574285184579555,5.3765645848780945 C3.8683067114670893,5.892658421560896 4.401827573638306,6.378219356665445 4.902983223394982,6.1461137577254 z" fill="#16161D" id="svg_2" class=""/><path d="M4.9008544078627,8.435239212728879 L7.8100973224424886,7.097498543962416 C7.959592491156578,7.028745760302943 8.075324284712469,6.903639704657799 8.131701814698776,6.749882176228838 C8.320047866877028,6.235965421436741 7.78966610557545,5.7519633844761495 7.289989802205613,5.981730636200257 L4.3807468876258255,7.319498182520926 C4.2312426985069385,7.388250966180398 4.1155018845462505,7.513357021825543 4.059160436179134,7.667123509439239 C3.8708324248104766,8.18106714178554 4.401178104492863,8.665042301191926 4.9008544078627,8.435239212728879 z" fill="#16161D" id="svg_3" class=""/><path d="M4.9008544078627,8.435239212728879 L7.8100973224424886,7.097498543962416 C7.959592491156578,7.028745760302943 8.075324284712469,6.903639704657799 8.131701814698776,6.749882176228838 C8.320047866877028,6.235965421436741 7.78966610557545,5.7519633844761495 7.289989802205613,5.981730636200257 L4.3807468876258255,7.319498182520926 C4.2312426985069385,7.388250966180398 4.1155018845462505,7.513357021825543 4.059160436179134,7.667123509439239 C3.8708324248104766,8.18106714178554 4.401178104492863,8.665042301191926 4.9008544078627,8.435239212728879 z" fill="#16161D" class="" id="svg_5"/>
</svg>
