<svg width="24" height="24" viewBox="0 0 24 24" fill="none" xmlns="http://www.w3.org/2000/svg">
<path d="M3.75734 7.75739C3.75734 8.28782 3.54663 8.79653 3.17157 9.17159C1.60948 10.7337 1.60948 13.2663 3.17157 14.8284C3.54663 15.2035 3.75734 15.7122 3.75734 16.2426C3.75734 18.4518 5.54823 20.2427 7.75739 20.2427C8.28782 20.2427 8.79653 20.4534 9.17159 20.8284C10.7337 22.3905 13.2663 22.3905 14.8284 20.8284C15.2035 20.4534 15.7122 20.2427 16.2426 20.2427C18.4518 20.2427 20.2427 18.4518 20.2427 16.2426C20.2427 15.7122 20.4534 15.2035 20.8284 14.8284C22.3905 13.2663 22.3905 10.7337 20.8284 9.17159C20.4534 8.79653 20.2427 8.28782 20.2427 7.75739C20.2427 5.54823 18.4518 3.75734 16.2426 3.75734C15.7122 3.75734 15.2035 3.54663 14.8284 3.17156C13.2663 1.60948 10.7337 1.60948 9.17159 3.17157C8.79653 3.54663 8.28782 3.75734 7.75739 3.75734C5.54823 3.75734 3.75734 5.54823 3.75734 7.75739Z" fill="#8B5CF6" stroke="#16161D" stroke-width="2"/>
<path d="M10.9001 12.9345L14.5491 9.24922C14.7084 9.0896 14.924 9 15.1487 9C15.3735 9 15.589 9.0896 15.7484 9.24922C15.8281 9.3289 15.8914 9.42369 15.9346 9.52812C15.9778 9.63256 16 9.74458 16 9.85772C16 9.97086 15.9778 10.0829 15.9346 10.1873C15.8914 10.2918 15.8281 10.3866 15.7484 10.4662L11.4955 14.7514C11.3371 14.9098 11.1232 14.999 10.9001 15C10.7881 15.0006 10.6772 14.979 10.5735 14.9364C10.4699 14.8937 10.3757 14.8309 10.2962 14.7514L8.29731 12.7288C8.20827 12.652 8.13596 12.5574 8.0849 12.4511C8.03385 12.3448 8.00516 12.229 8.00063 12.1109C7.99611 11.9929 8.01585 11.8752 8.05861 11.7652C8.10137 11.6552 8.16624 11.5554 8.24913 11.4718C8.33202 11.3883 8.43116 11.323 8.54031 11.2799C8.64946 11.2368 8.76627 11.2169 8.88341 11.2215C9.00055 11.226 9.11549 11.2549 9.22102 11.3064C9.32655 11.3578 9.42038 11.4307 9.49663 11.5204L10.9001 12.9345Z" fill="white"/>
</svg>
