<svg width="16" height="16" viewBox="0 0 16 16" fill="none" xmlns="http://www.w3.org/2000/svg">
<path fill-rule="evenodd" clip-rule="evenodd" d="M14.9419 7.40412C13.5284 4.32624 10.8692 2.4165 8.00016 2.4165C5.1311 2.4165 2.47196 4.32624 1.05842 7.40412C1.01989 7.48692 1 7.57628 1 7.66663C1 7.75697 1.01989 7.84633 1.05842 7.92913C2.47196 11.007 5.1311 12.9167 8.00016 12.9167C10.8692 12.9167 13.5284 11.007 14.9419 7.92913C14.9804 7.84633 15.0003 7.75697 15.0003 7.66663C15.0003 7.57628 14.9804 7.48692 14.9419 7.40412ZM11.5 7.66684C11.5 9.59988 9.93299 11.1669 7.99995 11.1669C6.06691 11.1669 4.49987 9.59988 4.49987 7.66684C4.49987 5.7338 6.06691 4.16676 7.99995 4.16676C9.93299 4.16676 11.5 5.7338 11.5 7.66684ZM8.00016 9.41709C8.96668 9.41709 9.7502 8.63357 9.7502 7.66705C9.7502 6.70053 8.96668 5.91701 8.00016 5.91701C7.03364 5.91701 6.25012 6.70053 6.25012 7.66705C6.25012 8.63357 7.03364 9.41709 8.00016 9.41709Z" fill="#A6A4BC"/>
</svg>
