<svg width="12" height="12" viewBox="0 0 12 12" fill="none" xmlns="http://www.w3.org/2000/svg">
<path d="M11.35 8.74999L7.3 1.74999C6.9 1.04999 5.95 0.799994 5.25 1.19999C5 1.34999 4.8 1.54999 4.7 1.74999L0.65 8.74999C0.25 9.44999 0.5 10.4 1.2 10.8C1.45 10.95 1.7 11 1.95 11H10C10.85 11 11.5 10.3 11.5 9.49999C11.55 9.19999 11.45 8.94999 11.35 8.74999ZM6 8.99999C5.7 8.99999 5.5 8.79999 5.5 8.49999C5.5 8.19999 5.7 7.99999 6 7.99999C6.3 7.99999 6.5 8.19999 6.5 8.49999C6.5 8.79999 6.3 8.99999 6 8.99999ZM6.5 6.49999C6.5 6.79999 6.3 6.99999 6 6.99999C5.7 6.99999 5.5 6.79999 5.5 6.49999V4.49999C5.5 4.19999 5.7 3.99999 6 3.99999C6.3 3.99999 6.5 4.19999 6.5 4.49999V6.49999Z" fill="#EC522A"/>
</svg>
