<svg width="16" height="16" viewBox="0 0 12 12" fill="none" xmlns="http://www.w3.org/2000/svg">
<path d="M11.5 4.85505C11.5247 4.13938 11.3682 3.42906 11.045 2.79005C10.8257 2.52785 10.5213 2.35091 10.185 2.29005C8.79374 2.16382 7.39675 2.11208 5.99998 2.13505C4.60831 2.11103 3.21634 2.1611 1.82998 2.28505C1.55589 2.33491 1.30224 2.46347 1.09998 2.65505C0.649983 3.07005 0.599983 3.78005 0.549983 4.38005C0.477439 5.45884 0.477439 6.54127 0.549983 7.62005C0.564448 7.95776 0.61473 8.29297 0.699983 8.62005C0.76027 8.87259 0.882244 9.10623 1.05498 9.30005C1.25862 9.50178 1.51818 9.63766 1.79998 9.69005C2.87794 9.82311 3.96409 9.87825 5.04998 9.85505C6.79998 9.88005 8.33498 9.85505 10.15 9.71505C10.4387 9.66588 10.7056 9.52983 10.915 9.32505C11.055 9.18501 11.1595 9.0136 11.22 8.82505C11.3988 8.27636 11.4866 7.70211 11.48 7.12505C11.5 6.84505 11.5 5.15505 11.5 4.85505ZM4.86998 7.42505V4.33005L7.82998 5.88505C6.99998 6.34505 5.90498 6.86505 4.86998 7.42505Z" fill="#8B5CF6"/>
</svg>
